<svg xmlns="http://www.w3.org/2000/svg" viewBox="0 0 512 512"><path d="M256,214c5.95,0,11.6,1.24,16.73,3.47l-58.45,33.75c2.37-20.94,20.14-37.22,41.72-37.22Zm41.72,46.78l-58.45,33.75c5.13,2.23,10.78,3.47,16.73,3.47,21.58,0,39.35-16.28,41.72-37.22Zm-210,63.51l78.18-45.14c-1.9-7.4-2.91-15.16-2.91-23.15,0-51.36,41.64-93,93-93,25.33,0,48.3,10.13,65.07,26.56l57.31-33.09c-36.48-19.49-78.14-30.53-122.38-30.53h0c-94.54,0-177.29,50.44-222.83,125.86-1.56,2.58-1.56,5.81,0,8.39,14.63,24.22,33.1,45.87,54.56,64.09Zm391.11-72.48c-14.63-24.22-33.1-45.87-54.56-64.09l-78.18,45.14c1.9,7.4,2.91,15.16,2.91,23.15,0,51.36-41.64,93-93,93-25.33,0-48.3-10.13-65.07-26.56l-57.31,33.09c36.48,19.49,78.14,30.53,122.38,30.53h0c94.54,0,177.29-50.44,222.83-125.86,1.56-2.58,1.56-5.81,0-8.39Zm-1.13-123.81c-2.76-4.78-8.88-6.42-13.66-3.66L37.96,370.34c-4.78,2.76-6.42,8.88-3.66,13.66,2.76,4.78,8.88,6.42,13.66,3.66L474.04,141.66c4.78-2.76,6.42-8.88,3.66-13.66Z"/></svg>