<svg xmlns="http://www.w3.org/2000/svg" viewBox="0 0 512 512"><path d="M386.1,436.59c84.8-30.77,113.55-101.44,80.6-191.94l-13.57-37.54c-12.58-34.12-36.81-49.83-56.25-42.87-4.85,1.83-6.55,5.47-4.88,9.99l5.88,16.3c2.68,7.26,.51,12.08-3.83,13.78-4.58,1.54-9.42-.64-12.14-7.97l-3.86-10.59c-7.55-20.58-25.62-29.43-43.56-22.85-8.35,3.08-11.09,8.2-8.42,15.41l8.17,22.26c2.68,7.33,.38,12.08-3.83,13.78-4.75,1.7-9.63-.6-12.3-7.97l-7.4-20.48c-8.31-22.78-25.56-29.33-43.36-22.82-7.94,2.87-10.93,8.36-8.42,15.34l15.97,43.72c2.68,7.3,.35,12.12-3.8,13.78-4.75,1.71-9.59-.64-12.3-7.97l-52.63-144.81c-5.33-14.9-18.69-21.13-31.53-16.53-13.57,4.96-19.41,18.23-14.08,33.14l76.62,210.5c1.71,4.91-.22,8.45-3.23,9.59-2.93,1.1-6.11,.17-9.7-3.8l-51.43-55.33c-8.19-8.53-16.95-11.45-26.79-7.76-13.95,5.04-19.71,17.94-15.38,30.2,1.68,4.45,4.01,8.04,6.24,10.84l66.59,82.84c55.42,68.98,119.17,82.82,182.64,59.77ZM131.2,104.97c-59.97,36.63-99.2,104.61-99.2,187.49,0,8.27,7.01,15.28,14.84,15.04,7.96-.2,13.8-6.41,14.03-14.6,1.78-71.3,32.01-127.69,80.63-159.73l-10.3-28.2Z"/></svg>
