<svg xmlns="http://www.w3.org/2000/svg" viewBox="0 0 512 512"><path d="M54.08,182.79c14.51,0,22.22-8.13,22.22-22.49v-51.09c0-21.97,11.42-32.82,32.44-32.82h52.24c14.59,0,22.49-7.94,22.49-22.26s-7.9-22.04-22.49-22.04h-54.81c-48.81,0-74.18,24.96-74.18,73.25v54.95c0,14.4,7.94,22.49,22.08,22.49Zm403.7,0c14.51,0,22.22-8.09,22.22-22.49v-54.95c0-48.29-25.33-73.25-74.18-73.25h-54.99c-14.36,0-22.3,7.72-22.3,22.04s7.98,22.26,22.3,22.26h52.24c20.84,0,32.63,10.84,32.63,32.82v51.09c0,14.4,7.94,22.49,22.08,22.49ZM106.18,479.91h54.81c14.59,0,22.49-7.94,22.49-22.08s-7.98-22.22-22.49-22.22h-52.24c-21.02,0-32.44-10.84-32.44-32.86v-51.09c0-14.55-7.9-22.49-22.22-22.49s-22.08,7.94-22.08,22.49v54.81c0,48.43,25.37,73.43,74.18,73.43Zm244.65,0h54.99c48.85,0,74.18-25.18,74.18-73.43v-54.81c0-14.55-7.9-22.49-22.22-22.49s-22.08,7.98-22.08,22.49v51.09c0,22.01-11.79,32.86-32.63,32.86h-52.24c-14.36,0-22.3,7.9-22.3,22.22s7.94,22.08,22.3,22.08ZM151.61,255.89c0,12.3,8.85,21.01,21.4,21.01h62v62.19c0,12.41,8.56,21.22,20.82,21.22s21.38-8.81,21.38-21.22v-62.19h62.19c12.41,0,21.22-8.7,21.22-21.01s-8.63-21.38-21.22-21.38h-62.19v-62c0-12.59-8.7-21.21-21.38-21.21s-20.82,8.62-20.82,21.21v62h-62c-12.74,0-21.4,8.89-21.4,21.38Z"/></svg>
