<svg xmlns="http://www.w3.org/2000/svg" viewBox="0 0 256 256"><path d="m126.1 18c-2.7 0.3-4.6 1.4-6.5 3.5-2.4 2.6-3.4 5.9-2.8 9.2 1 4.6 4.2 8 8.3 8.9 1 0.3 4.8 0.7 8.4 0.9 8 0.5 12.5 1.3 19.2 3.2 23.1 6.7 42.6 22.9 53.5 44.4 6.6 13 9.4 25 9.4 39.9 0 8.8-0.7 14.5-2.7 22.5-6 23.3-22.3 43.8-43.5 55.1-25 13.2-55.1 13.6-80.4 1.2-39.8-19.6-58.5-65.9-43.7-108.1 1.9-5.6 5.9-13.5 9.5-19l3.2-4.8v9c0 6.8 0.2 9.5 0.7 11.1 1.8 6.3 8.1 9.6 14.3 7.8 2.4-0.7 5.4-3.6 6.6-6.1l1-2.2v-25-24.9l-1-2.1c-1.1-2.4-2.6-4-4.9-5.5l-1.5-0.9-25.6-0.2c-23.1-0.1-25.8 0-27.5 0.6-5.2 2-8.2 8-6.7 13.1 0.9 3.2 3 5.8 5.8 7.2l2.2 1.2h10.4c5.8 0 10.4 0.2 10.4 0.3 0 0.2-0.8 1.4-1.8 2.7-3.6 4.6-8.1 11.8-11.2 18-15.1 30.4-15.4 64.8-1 96.1 7.5 16.4 21.2 32.7 36.7 43.4 14 9.8 30 16.1 47.5 18.8 7.1 1.1 21.3 1.3 28.2 0.4 20.6-2.6 40.4-10.9 56.1-23.4 20.9-16.7 35.1-40.4 39.9-66.7 2.3-12.4 2.3-26.8 0-39.2-5.5-29.6-22.7-55.7-47.8-72.4-11.1-7.3-24.4-13-37.1-15.7-8.3-1.8-21.2-3-25.6-2.3z"/></svg>