<svg xmlns="http://www.w3.org/2000/svg" viewBox="0 0 512 512"><path d="M469.46,230.54l-44.63-44.63v-62.75c0-19.88-16.12-36-36-36h-62.75l-44.63-44.63c-14.06-14.06-36.85-14.06-50.91,0l-44.63,44.63h-62.75c-19.88,0-36,16.12-36,36v62.75l-44.63,44.63c-14.06,14.06-14.06,36.85,0,50.91l44.63,44.63v62.75c0,19.88,16.12,36,36,36h62.75l44.63,44.63c14.06,14.06,36.85,14.06,50.91,0l44.63-44.63h62.75c19.88,0,36-16.12,36-36v-62.75l44.63-44.63c14.06-14.06,14.06-36.85,0-50.91Zm-120.69-43.49l-115.46,157.91c-5.47,7.48-15.96,9.1-23.43,3.64l-.32-.24c-2.04-1.49-3.63-3.35-4.78-5.42l-41.81-60.6c-5.26-7.62-3.35-18.07,4.28-23.33l.33-.23c7.62-5.26,18.07-3.35,23.33,4.28l29.25,42.4,101.22-138.44c5.47-7.48,15.96-9.1,23.43-3.64l.32,.24c7.47,5.47,9.1,15.95,3.64,23.43Z"/></svg>
