<?xml version="1.0" encoding="UTF-8"?>
<svg id="Icon" xmlns="http://www.w3.org/2000/svg" viewBox="0 0 512 512">
  <path d="M290.49,290.32c0,13.71-10.54,22.13-28.5,23.59v-47.78c20.45,4.86,28.5,11.33,28.5,24.19ZM441.97,127.84v166.6c0,80.34-42.22,115.03-170.5,181.1-5.68,2.91-11.52,4.46-15.46,4.46s-9.6-1.36-15.46-4.46c-126.37-69.28-170.5-100.76-170.5-181.1V127.84c0-26.04,10.24-35.63,32-44.61,24.58-9.92,106.91-39.75,131.09-47.49,7.19-2.15,15.43-3.74,22.87-3.74s15.72,1.4,23.06,3.74c24,8.11,106.36,37.39,130.95,47.49,21.95,9.21,31.96,18.57,31.96,44.61Zm-130.7,160.63c0-21.67-13.77-34.17-44.07-41.32l-5.22-1.21v-48.11c13.22,1.65,22.28,8.91,26.35,20.93,2.04,4.99,5.48,7.51,10.44,7.51,6.08,0,9.6-3.66,9.6-9.31,0-1.62-.23-3.3-.75-5.03-4.81-17.57-22.15-30.19-45.64-32.07v-13.72c0-3.51-2.67-6.14-6.13-6.14s-6.06,2.63-6.06,6.14v13.7c-27.53,2.09-46.73,18.45-46.73,41.93,0,21,13.83,33.75,42.57,40.56l4.16,.97v50.51c-15.49-1.6-25.43-9.18-28.97-21.8-1.94-5-5.24-7.68-10.29-7.68-6.23,0-9.79,3.95-9.79,9.87,0,1.47,.25,3.2,.84,5.01,4.98,18.38,23.86,30.77,48.21,32.55v14.04c0,3.51,2.59,6.21,6.06,6.21s6.13-2.7,6.13-6.21v-14.02c27.82-1.94,49.29-17.33,49.29-43.29Zm-87.39-68.26c0,11.43,8.28,18.55,25.9,22.89v-45.29c-16.49,1.88-25.9,11.3-25.9,22.4Z"/>
</svg>