<svg xmlns="http://www.w3.org/2000/svg" viewBox="0 0 512 512"><path d="M256,30.65c-123.71,0-224,100.29-224,224s100.29,224,224,224,224-100.29,224-224S379.71,30.65,256,30.65Zm-2.32,61.48c12.08-1.28,22.92,7.47,24.2,19.55,1.28,12.08-7.47,22.92-19.55,24.2-12.08,1.28-22.92-7.47-24.2-19.55-1.28-12.08,7.47-22.92,19.55-24.2ZM116.33,277.88c-12.08,1.28-22.92-7.47-24.2-19.55s7.47-22.92,19.55-24.2c12.08-1.28,22.92,7.47,24.2,19.55,1.28,12.08-7.47,22.92-19.55,24.2Zm56.38,92.36c-7.64,9.45-21.49,10.92-30.94,3.29-9.45-7.64-10.92-21.49-3.29-30.94s21.49-10.92,30.94-3.29c9.45,7.64,10.92,21.49,3.29,30.94Zm0-200.82c-7.64,9.45-21.49,10.92-30.94,3.29s-10.92-21.49-3.29-30.94,21.49-10.92,30.94-3.29c9.45,7.64,10.92,21.49,3.29,30.94Zm54.25,116.65h0c-18.05-18.56-14.21-44.17,7.13-58.68l114.4-79.01c12.87-8.72,25.65,3.96,16.79,16.75l-79.9,113.55c-14.72,21.12-40.11,25.22-58.42,7.39Zm146.57,84.17c-7.64,9.45-21.49,10.92-30.94,3.29s-10.92-21.49-3.29-30.94,21.49-10.92,30.94-3.29c9.45,7.64,10.92,21.49,3.29,30.94Zm26.8-92.36c-12.08,1.28-22.92-7.47-24.2-19.55-1.28-12.08,7.47-22.92,19.55-24.2,12.08-1.28,22.92,7.47,24.2,19.55s-7.47,22.92-19.55,24.2Z" /></svg>
