<svg xmlns="http://www.w3.org/2000/svg" viewBox="0 0 32 32"><path fill="#165bd7" d="M27.31,2.35c-.23-.23-.51-.35-.82-.35H5.49c-.32,0-.59,.12-.82,.35s-.35,.5-.35,.82v14c0,1.04,.21,2.08,.61,3.11,.41,1.03,.91,1.94,1.52,2.73,.6,.8,1.32,1.57,2.15,2.32,.83,.76,1.6,1.38,2.31,1.88,.71,.5,1.44,.97,2.21,1.41,.77,.44,1.31,.74,1.64,.91,.32,.16,.58,.28,.77,.36,.14,.08,.31,.11,.47,.11s.33-.04,.47-.11c.19-.09,.46-.21,.77-.36,.32-.16,.87-.46,1.64-.91s1.5-.92,2.21-1.41c.71-.5,1.47-1.12,2.31-1.88,.83-.76,1.55-1.53,2.15-2.32,.6-.8,1.1-1.71,1.51-2.73,.41-1.03,.61-2.07,.61-3.11V3.17c-.02-.32-.14-.59-.37-.82h0Zm-2.71,14.95c0,5.07-8.61,9.44-8.61,9.44V5h8.61v12.31Z"/></svg>