<svg viewBox="0 0 129 34" xmlns="http://www.w3.org/2000/svg"><path d="M26.5744 1.39938C26.3075 1.1355 25.9901 1 25.6294 1H1.34892C0.981031 1 0.670852 1.1355 0.403954 1.39938C0.137056 1.66325 0 1.96991 0 2.33363V18.3372C0 19.5282 0.238044 20.7192 0.70692 21.8888C1.17579 23.0655 1.76009 24.1068 2.45979 25.0125C3.15228 25.9253 3.98183 26.8097 4.94844 27.6655C5.90783 28.5284 6.8023 29.2416 7.61742 29.8121C8.43254 30.3827 9.28373 30.9175 10.171 31.4239C11.0582 31.9302 11.6858 32.2726 12.0609 32.458C12.436 32.6363 12.7318 32.7789 12.9554 32.8716C13.1213 32.9572 13.3088 33 13.5036 33C13.6984 33 13.8859 32.9572 14.0518 32.8716C14.2754 32.7718 14.5784 32.6363 14.9463 32.458C15.3214 32.2797 15.949 31.9302 16.8362 31.4239C17.7235 30.9175 18.5747 30.3755 19.3898 29.8121C20.2049 29.2416 21.0922 28.5284 22.0588 27.6655C23.0182 26.8025 23.8477 25.9182 24.5474 25.0125C25.2399 24.0996 25.8242 23.0584 26.2931 21.8888C26.762 20.7121 27 19.5282 27 18.3372V2.33363C26.9784 1.96991 26.8413 1.66325 26.5744 1.39938ZM23.4438 18.487C23.4438 24.2779 13.4892 29.2701 13.4892 29.2701V4.42322H23.4438C23.4438 4.42322 23.4438 12.696 23.4438 18.487Z"/><path d="M97.6001 1.00781H103.181L111.399 24.4966L119.617 1.00781H125.198L113.64 33H109.158L97.6001 1.00781ZM94.5898 1.00781H100.149L101.16 23.9033V33H94.5898V1.00781ZM122.649 1.00781H128.23V33H121.638V23.9033L122.649 1.00781Z"/><path d="M83.5156 24.6284C83.5156 24.0571 83.4277 23.5444 83.252 23.0903C83.0908 22.6216 82.7832 22.1968 82.3291 21.8159C81.875 21.4204 81.2378 21.0322 80.4175 20.6514C79.5972 20.2705 78.5352 19.875 77.2314 19.4648C75.7812 18.9961 74.4043 18.4688 73.1006 17.8828C71.8115 17.2969 70.6689 16.6157 69.6729 15.8394C68.6914 15.0483 67.915 14.1328 67.3438 13.0928C66.7871 12.0527 66.5088 10.8442 66.5088 9.46729C66.5088 8.13428 66.8018 6.92578 67.3877 5.8418C67.9736 4.74316 68.7939 3.80566 69.8486 3.0293C70.9033 2.23828 72.1484 1.63037 73.584 1.20557C75.0342 0.780762 76.6235 0.568359 78.3521 0.568359C80.7104 0.568359 82.7686 0.993164 84.5264 1.84277C86.2842 2.69238 87.6465 3.85693 88.6133 5.33643C89.5947 6.81592 90.0854 8.50781 90.0854 10.4121H83.5376C83.5376 9.47461 83.3398 8.6543 82.9443 7.95117C82.5635 7.2334 81.9775 6.66943 81.1865 6.25928C80.4102 5.84912 79.4287 5.64404 78.2422 5.64404C77.0996 5.64404 76.1475 5.81982 75.3857 6.17139C74.624 6.5083 74.0527 6.96973 73.6719 7.55566C73.291 8.12695 73.1006 8.77148 73.1006 9.48926C73.1006 10.0312 73.2324 10.522 73.4961 10.9614C73.7744 11.4009 74.1846 11.811 74.7266 12.1919C75.2686 12.5728 75.9351 12.9316 76.7261 13.2686C77.5171 13.6055 78.4326 13.9351 79.4727 14.2573C81.2158 14.7847 82.7466 15.3779 84.0649 16.0371C85.3979 16.6963 86.5112 17.436 87.4048 18.2563C88.2983 19.0767 88.9722 20.0068 89.4263 21.0469C89.8804 22.0869 90.1074 23.2661 90.1074 24.5845C90.1074 25.9761 89.8364 27.2212 89.2944 28.3198C88.7524 29.4185 87.9688 30.3486 86.9434 31.1104C85.918 31.8721 84.6948 32.4507 83.2739 32.8462C81.853 33.2417 80.2637 33.4395 78.5059 33.4395C76.9238 33.4395 75.3638 33.2344 73.8257 32.8242C72.2876 32.3994 70.8887 31.7622 69.6289 30.9126C68.3838 30.063 67.3877 28.979 66.6406 27.6606C65.8936 26.3423 65.52 24.7822 65.52 22.9805H72.1338C72.1338 23.9766 72.2876 24.8188 72.5952 25.5073C72.9028 26.1958 73.335 26.7524 73.8916 27.1772C74.4629 27.6021 75.1367 27.9097 75.9131 28.1001C76.7041 28.2905 77.5684 28.3857 78.5059 28.3857C79.6484 28.3857 80.5859 28.2246 81.3184 27.9023C82.0654 27.5801 82.6147 27.1333 82.9663 26.562C83.3325 25.9907 83.5156 25.3462 83.5156 24.6284Z"/><path d="M50.3149 21.5962H42.1631V16.4546H50.3149C51.5747 16.4546 52.6001 16.2495 53.3911 15.8394C54.1821 15.4146 54.7607 14.8286 55.127 14.0815C55.4932 13.3345 55.6763 12.4922 55.6763 11.5547C55.6763 10.6025 55.4932 9.71631 55.127 8.896C54.7607 8.07568 54.1821 7.4165 53.3911 6.91846C52.6001 6.42041 51.5747 6.17139 50.3149 6.17139H44.4482V33H37.8564V1.00781H50.3149C52.8198 1.00781 54.9658 1.46191 56.7529 2.37012C58.5547 3.26367 59.9316 4.50146 60.8838 6.0835C61.8359 7.66553 62.312 9.47461 62.312 11.5107C62.312 13.5762 61.8359 15.3633 60.8838 16.8721C59.9316 18.3809 58.5547 19.5454 56.7529 20.3657C54.9658 21.186 52.8198 21.5962 50.3149 21.5962Z"/></svg>