<svg xmlns="http://www.w3.org/2000/svg" viewBox="0 0 512 512"><path d="M163.8 33.9c23.8-1.1 31.5-1.4 92.3-1.4s68.5.3 92.3 1.4c23.9 1.1 40.2 4.8 54.4 10.3 14.7 5.8 27.2 13.4 39.7 25.9 12.4 12.4 20 25 25.8 39.6 5.4 14.2 9.2 30.5 10.3 54.4 1.1 23.8 1.4 31.5 1.4 92.3s-.3 68.5-1.4 92.3c-1.1 23.9-4.8 40.2-10.3 54.4-5.8 14.7-13.4 27.2-25.9 39.7s-25 20.1-39.7 25.9c-14.2 5.4-30.5 9.2-54.4 10.3-23.8 1.1-31.5 1.4-92.3 1.4s-68.5-.3-92.3-1.4c-23.9-1.1-40.2-4.8-54.4-10.3-14.7-5.8-27.2-13.4-39.7-25.9s-20.1-25-25.9-39.7c-5.4-14.2-9.2-30.5-10.3-54.4-1.1-23.8-1.4-31.5-1.4-92.3l1.4-92.3c1.1-23.9 4.8-40.2 10.3-54.4 5.8-14.6 13.4-27.2 25.9-39.6 12.5-12.5 25-20.1 39.7-25.9 14.2-5.5 30.5-9.3 54.5-10.3zM256 72.8c-59.8 0-66.9.2-90.5 1.3-21.9 1-33.7 4.7-41.6 7.7-10.5 4.1-18 9-25.8 16.8s-12.6 15.3-16.7 25.8c-3.1 7.9-6.8 19.7-7.8 41.6-1 23.6-1.3 30.7-1.3 90.5l1.3 90.5c1 21.9 4.7 33.7 7.8 41.6 4.1 10.5 8.9 18 16.7 25.8s15.3 12.6 25.8 16.7c7.9 3.1 19.7 6.8 41.6 7.8 23.6 1 30.7 1.3 90.5 1.3l90.5-1.3c21.9-1 33.7-4.7 41.6-7.8 10.5-4.1 18-8.9 25.8-16.7s12.6-15.3 16.7-25.8c3.1-7.9 6.8-19.7 7.8-41.6 1-23.6 1.3-30.7 1.3-90.5l-1.3-90.5c-1-21.9-4.7-33.7-7.8-41.6-4.1-10.5-8.9-18-16.7-25.8s-15.3-12.7-25.8-16.8c-7.9-3-19.7-6.7-41.6-7.7-23.6-1.1-30.7-1.3-90.5-1.3zm0 298.7c-63.6 0-115-51.4-115-115s51.4-115 115-115 115 51.4 115 115-51.4 115-115 115zm74.7-115c0-41.3-33.4-74.7-74.7-74.7s-74.7 33.4-74.7 74.7 33.4 74.7 74.7 74.7 74.7-33.4 74.7-74.7zm44.9-92.7c-14.8 0-26.8-12-26.8-26.9 0-14.8 12-26.8 26.8-26.8 14.9 0 26.9 12 26.9 26.8 0 14.9-12 26.9-26.9 26.9z"/></svg>