<svg xmlns="http://www.w3.org/2000/svg" viewBox="0 0 512 512"><path d="M480 251.87c0-27.23-22.25-49.37-49.6-49.37-13.35 0-25.44 5.34-34.35 13.93-33.79-22.23-79.5-36.38-130.13-38.19l27.68-87.15 74.97 17.57-.11 1.08c0 22.27 18.2 40.38 40.58 40.38s40.54-18.11 40.54-40.38-18.2-40.39-40.54-40.39c-17.17 0-31.81 10.71-37.73 25.74L290.5 76.14c-3.53-.86-7.11 1.18-8.21 4.65l-30.87 97.2c-52.98.63-100.97 14.9-136.27 37.8-8.85-8.18-20.59-13.29-33.58-13.29-27.35 0-49.58 22.16-49.58 49.39 0 18.11 9.95 33.81 24.58 42.39-.97 5.26-1.61 10.58-1.61 16 0 73.01 89.75 132.4 200.09 132.4s200.11-59.4 200.11-132.4c0-5.11-.54-10.15-1.4-15.12 15.53-8.34 26.23-24.49 26.23-43.27zm-321.51 33.9c0-16.2 13.25-29.4 29.53-29.4s29.51 13.2 29.51 29.4-13.23 29.38-29.51 29.38-29.53-13.18-29.53-29.38zm169.14 87.15c-14.88 14.8-38.23 22.01-71.38 22.01l-.24-.06-.24.06c-33.17 0-56.52-7.21-71.38-22.01-2.71-2.69-2.71-7.07 0-9.76a6.95 6.95 0 0 1 9.82 0c12.13 12.08 32.27 17.94 61.56 17.94l.24.06.24-.06c29.29 0 49.43-5.88 61.56-17.96 2.71-2.71 7.11-2.69 9.82 0a6.9 6.9 0 0 1 0 9.78zm-3.53-57.77c-16.28 0-29.51-13.18-29.51-29.38s13.23-29.4 29.51-29.4 29.51 13.2 29.51 29.4-13.23 29.38-29.51 29.38z"/></svg>