<svg xmlns="http://www.w3.org/2000/svg" viewBox="0 0 512 512"><path d="M480,117.06c-16.47,7.3-34.17,12.23-52.78,14.46,18.98-11.36,33.54-29.4,40.41-50.87-17.76,10.54-37.43,18.19-58.36,22.3-16.77-17.84-40.64-29-67.08-29-50.75,0-91.9,41.16-91.9,91.94,0,7.18,.83,14.17,2.37,20.91-76.42-3.85-144.11-40.45-189.45-96.05-7.89,13.61-12.43,29.4-12.43,46.21,0,31.88,16.24,60.04,40.88,76.51-15.07-.49-29.24-4.62-41.63-11.5v1.18c0,44.53,31.67,81.68,73.73,90.13-7.73,2.09-15.84,3.2-24.21,3.2-5.92,0-11.7-.55-17.3-1.62,11.7,36.5,45.64,63.1,85.87,63.81-31.47,24.66-71.11,39.36-114.16,39.36-7.42,0-14.74-.43-21.94-1.28,40.68,26.1,88.98,41.3,140.88,41.3,169.09,0,261.53-140.05,261.53-261.51,0-3.95-.1-7.93-.28-11.88,17.95-12.98,33.54-29.14,45.83-47.55l.04-.06Z"/></svg>