<svg width="569" height="420" viewBox="0 0 569 420" fill="none" xmlns="http://www.w3.org/2000/svg"><path d="M102.002 210C102.002 94.8486 195.351 0 310.502 0H520.002C546.512 0 568.002 21.4903 568.002 48V372C568.002 398.51 546.512 420 520.002 420H310.502C195.351 420 102.002 325.151 102.002 210V210Z" fill="url(#paint0_linear_77_692)"/><g filter="url(#filter0_d_77_692)"><path d="M24 100H520V375C520 379.418 516.418 383 512 383H32C27.5817 383 24 379.418 24 375V100Z" fill="var(--bg-secondary)"/><rect x="368" y="157" width="128" height="4" rx="2" fill="var(--bg-fifth)"/><rect x="368" y="157" width="41" height="4" rx="2" fill="var(--ac-primary-500)"/><g filter="url(#filter1_d_77_692)"><circle cx="409" cy="159" r="6" fill="var(--ac-secondary-500)"/></g><rect x="403.345" y="144.5" width="8" height="8" rx="1" transform="rotate(-45 403.345 144.5)" fill="var(--bg-fourth)"/><rect x="397" y="128.5" width="24" height="18" rx="2" fill="var(--bg-fourth)"/><text xml:space="preserve" style="white-space: pre" font-family="Nunito Sans" font-size="10" font-weight="bold" letter-spacing="0em"><tspan fill="var(--tx-primary)" x="403" y="141.79">24</tspan></text><text xml:space="preserve" style="white-space: pre" font-family="Nunito Sans" font-size="16" font-weight="500" letter-spacing="0em"><tspan fill="var(--tx-primary)" x="48" y="164.264">Minimum characters</tspan></text><text xml:space="preserve" style="white-space: pre" font-family="Nunito Sans" font-size="16" font-weight="500" letter-spacing="0em"><tspan fill="var(--tx-primary)" x="48" y="218.764">Use capital letters (A-Z)</tspan></text><rect x="448" y="200.5" width="48" height="26" rx="13" fill="var(--ac-primary-500)"/><g filter="url(#filter2_d_77_692)"><circle cx="483" cy="213.5" r="10" fill="var(--white)"/></g><text xml:space="preserve" style="white-space: pre" font-family="Nunito Sans" font-size="16" font-weight="500" letter-spacing="0em"><tspan fill="var(--tx-primary)" x="48" y="274.764">Use digits (0-9)</tspan></text><rect x="448" y="256.5" width="48" height="26" rx="13" fill="var(--bg-fourth)"/><circle cx="461" cy="269.5" r="10" fill="var(--white)"/><text xml:space="preserve" style="white-space: pre" font-family="Nunito Sans" font-size="16" font-weight="500" letter-spacing="0em"><tspan fill="var(--tx-primary)" x="48" y="330.764">Use special characters (!@#$%...)</tspan></text><rect x="448" y="312.5" width="48" height="26" rx="13" fill="var(--ac-primary-500)"/><g filter="url(#filter3_d_77_692)"><circle cx="483" cy="325.5" r="10" fill="var(--white)"/></g><path d="M24 44C24 39.5817 27.5817 36 32 36H512C516.418 36 520 39.5817 520 44V100H24V44Z" fill="var(--bg-fourth)"/><text xml:space="preserve" style="white-space: pre" font-family="Roboto" font-size="18" font-weight="bold" letter-spacing="0em"><tspan fill="var(--tx-primary)" x="141" y="74.1523">This is a Strong password policy</tspan></text></g><defs><filter id="filter0_d_77_692" x="0" y="16" width="544" height="396" filterUnits="userSpaceOnUse" color-interpolation-filters="sRGB"><feFlood flood-opacity="0" result="BackgroundImageFix"/><feColorMatrix in="SourceAlpha" type="matrix" values="0 0 0 0 0 0 0 0 0 0 0 0 0 0 0 0 0 0 127 0" result="hardAlpha"/><feOffset dy="4"/><feGaussianBlur stdDeviation="12"/><feComposite in2="hardAlpha" operator="out"/><feColorMatrix type="matrix" values="0 0 0 0 0 0 0 0 0 0 0 0 0 0 0 0 0 0 0.6 0"/><feBlend mode="normal" in2="BackgroundImageFix" result="effect1_dropShadow_77_692"/><feBlend mode="normal" in="SourceGraphic" in2="effect1_dropShadow_77_692" result="shape"/></filter><filter id="filter1_d_77_692" x="401" y="151" width="16" height="16" filterUnits="userSpaceOnUse" color-interpolation-filters="sRGB"><feFlood flood-opacity="0" result="BackgroundImageFix"/><feColorMatrix in="SourceAlpha" type="matrix" values="0 0 0 0 0 0 0 0 0 0 0 0 0 0 0 0 0 0 127 0" result="hardAlpha"/><feOffset/><feGaussianBlur stdDeviation="1"/><feComposite in2="hardAlpha" operator="out"/><feColorMatrix type="matrix" values="0 0 0 0 0 0 0 0 0 0 0 0 0 0 0 0 0 0 0.5 0"/><feBlend mode="normal" in2="BackgroundImageFix" result="effect1_dropShadow_77_692"/><feBlend mode="normal" in="SourceGraphic" in2="effect1_dropShadow_77_692" result="shape"/></filter><filter id="filter2_d_77_692" x="469" y="199.5" width="28" height="28" filterUnits="userSpaceOnUse" color-interpolation-filters="sRGB"><feFlood flood-opacity="0" result="BackgroundImageFix"/><feColorMatrix in="SourceAlpha" type="matrix" values="0 0 0 0 0 0 0 0 0 0 0 0 0 0 0 0 0 0 127 0" result="hardAlpha"/><feOffset/><feGaussianBlur stdDeviation="2"/><feComposite in2="hardAlpha" operator="out"/><feColorMatrix type="matrix" values="0 0 0 0 0 0 0 0 0 0 0 0 0 0 0 0 0 0 0.1 0"/><feBlend mode="normal" in2="BackgroundImageFix" result="effect1_dropShadow_77_692"/><feBlend mode="normal" in="SourceGraphic" in2="effect1_dropShadow_77_692" result="shape"/></filter><filter id="filter3_d_77_692" x="469" y="311.5" width="28" height="28" filterUnits="userSpaceOnUse" color-interpolation-filters="sRGB"><feFlood flood-opacity="0" result="BackgroundImageFix"/><feColorMatrix in="SourceAlpha" type="matrix" values="0 0 0 0 0 0 0 0 0 0 0 0 0 0 0 0 0 0 127 0" result="hardAlpha"/><feOffset/><feGaussianBlur stdDeviation="2"/><feComposite in2="hardAlpha" operator="out"/><feColorMatrix type="matrix" values="0 0 0 0 0 0 0 0 0 0 0 0 0 0 0 0 0 0 0.1 0"/><feBlend mode="normal" in2="BackgroundImageFix" result="effect1_dropShadow_77_692"/><feBlend mode="normal" in="SourceGraphic" in2="effect1_dropShadow_77_692" result="shape"/></filter><linearGradient id="paint0_linear_77_692" x1="568" y1="209.548" x2="102" y2="209.548" gradientUnits="userSpaceOnUse"><stop stop-color="var(--ac-secondary-700)"/><stop offset="1" stop-color="var(--ac-secondary-300)"/></linearGradient></defs></svg>
