<svg width="670" height="676" viewBox="0 0 670 676" fill="none" xmlns="http://www.w3.org/2000/svg"><rect y="0.500366" width="670" height="592" rx="12" fill="var(--indigo-400)"/><path d="M82 60.5004C82 53.8729 87.3726 48.5004 94 48.5004H670V544.5H94C87.3726 544.5 82 539.128 82 532.5V60.5004Z" fill="var(--bg-primary)"/><g clip-path="url(#clip0_31_17)"><mask id="mask0_31_17" style="mask-type:luminance" maskUnits="userSpaceOnUse" x="114" y="72" width="188" height="33"><path d="M114.436 72.2697H301.894V104.144H114.436V72.2697Z" fill="white"/></mask><g mask="url(#mask0_31_17)"><mask id="mask1_31_17" style="mask-type:luminance" maskUnits="userSpaceOnUse" x="114" y="72" width="188" height="33"><path d="M114.436 104.144H301.894V72.2696H114.436V104.144Z" fill="white"/></mask><g mask="url(#mask1_31_17)"><path d="M187.947 75.7583C187.947 75.0012 188.248 74.2752 188.782 73.7399C189.316 73.2045 190.041 72.9038 190.796 72.9038C191.552 72.9038 192.276 73.2045 192.81 73.7399C193.344 74.2752 193.645 75.0012 193.645 75.7583C193.617 76.4969 193.305 77.1961 192.774 77.7089C192.242 78.2217 191.534 78.5082 190.796 78.5082C190.058 78.5082 189.349 78.2217 188.818 77.7089C188.287 77.1961 187.975 76.4969 187.947 75.7583Z" fill="#273B7D"/><path d="M232.892 94.7953C232.892 93.2111 234.165 91.9309 235.734 91.9309C236.492 91.9309 237.219 92.2325 237.754 92.7693C238.29 93.3061 238.591 94.0342 238.591 94.7933C238.591 95.5525 238.29 96.2806 237.754 96.8174C237.219 97.3542 236.492 97.6558 235.734 97.6558C234.167 97.6558 232.892 96.3736 232.892 94.7933" fill="#499FDD"/><path d="M141.198 93.5569C138.746 93.5569 137.04 91.6049 137.04 88.814C137.04 86.0252 138.746 84.0751 141.2 84.0751C143.666 84.0751 145.389 86.0252 145.389 88.814C145.389 91.6486 143.703 93.5569 141.198 93.5569ZM141.198 79.9067C136.009 79.9067 132.242 83.6537 132.242 88.814C132.242 93.9763 136.011 97.7213 141.198 97.7213C146.409 97.7213 150.19 93.9763 150.19 88.816C150.19 83.6537 146.407 79.9067 141.198 79.9067ZM182.431 89.2613C182.25 88.9113 182.022 88.5881 181.752 88.3012L181.594 88.1362L181.76 87.9772C181.998 87.7247 182.242 87.4266 182.476 87.0807L187.059 80.2586H181.497L178.055 85.5958C177.86 85.882 177.468 86.0252 176.879 86.0252H176.095V75.9351C176.095 73.9175 174.839 73.6432 173.484 73.6432H171.163L171.169 97.4589H176.097V90.3148H176.559C177.121 90.3148 177.501 90.3804 177.678 90.6865L180.396 95.8269C181.155 97.2224 181.911 97.4589 183.335 97.4589H187.11L184.297 92.7995L182.433 89.2613M206.35 79.867C203.843 79.867 202.244 80.9841 201.347 81.9283L201.05 82.2305L200.943 81.819C200.681 80.8072 199.792 80.2526 198.457 80.2526H196.249L196.263 97.453H201.157V89.5257C201.157 88.7504 201.256 88.0785 201.462 87.4643C202.006 85.6057 203.525 84.4508 205.424 84.4508C206.951 84.4508 207.548 85.2599 207.548 87.347V94.839C207.548 96.6201 208.371 97.453 210.151 97.453H212.48L212.472 86.5122C212.472 82.1669 210.355 79.867 206.35 79.867ZM190.856 80.2586H188.537L188.552 93.5589V97.4589H191.026L191.113 97.4629L192.268 97.4589H193.415V97.453H193.422L193.432 82.8725C193.432 81.1133 192.593 80.2606 190.858 80.2606M160.418 93.5569C157.966 93.5569 156.258 91.6049 156.258 88.814C156.258 86.0252 157.966 84.0751 160.42 84.0751C162.88 84.0751 164.609 86.0252 164.609 88.814C164.609 91.6486 162.923 93.5569 160.42 93.5569H160.418ZM160.418 79.9067C155.225 79.9067 151.456 83.6537 151.456 88.814C151.456 93.9763 155.225 97.7213 160.42 97.7213C165.623 97.7213 169.412 93.9763 169.412 88.816C169.412 83.6537 165.623 79.9067 160.42 79.9067" fill="#273B7D"/></g></g><mask id="mask2_31_17" style="mask-type:luminance" maskUnits="userSpaceOnUse" x="114" y="72" width="188" height="33"><path d="M114.436 72.2697H301.894V104.144H114.436V72.2697Z" fill="white"/></mask><g mask="url(#mask2_31_17)"><mask id="mask3_31_17" style="mask-type:luminance" maskUnits="userSpaceOnUse" x="114" y="72" width="188" height="33"><path d="M114.436 72.8979H301.855V104.102H114.436V72.8979Z" fill="white"/></mask><g mask="url(#mask3_31_17)"><mask id="mask4_31_17" style="mask-type:luminance" maskUnits="userSpaceOnUse" x="114" y="72" width="188" height="33"><path d="M114.436 104.144H301.894V72.2697H114.436V104.144Z" fill="white"/></mask><g mask="url(#mask4_31_17)"><path d="M265.305 93.557C262.853 93.557 261.143 91.605 261.143 88.8142C261.143 86.0253 262.853 84.0753 265.305 84.0753C267.769 84.0753 269.497 86.0253 269.497 88.8142C269.497 91.6487 267.811 93.557 265.305 93.557ZM265.305 79.9069C260.112 79.9069 256.345 83.6539 256.345 88.8142C256.345 93.9764 260.112 97.7214 265.305 97.7214C270.51 97.7214 274.297 93.9764 274.297 88.8161C274.297 83.6539 270.508 79.9069 265.305 79.9069Z" fill="#499FDD"/><path d="M222.789 92.7996C220.113 92.7996 219.161 90.462 219.161 88.2695C219.161 87.3034 219.405 84.1567 222.533 84.1567C224.086 84.1567 226.155 84.602 226.155 88.4305C226.155 92.0423 224.324 92.7996 222.789 92.7996ZM228.696 80.213C227.768 80.213 227.054 80.5847 226.695 81.2625L226.56 81.5249L226.334 81.3261C225.544 80.6423 224.128 79.8293 221.829 79.8293C217.252 79.8293 214.172 83.2742 214.172 88.3967C214.172 93.5172 217.36 97.0953 221.92 97.0953C223.477 97.0953 224.709 96.7295 225.685 95.99L226.062 95.7058V96.1829C226.062 98.4807 224.58 99.749 221.892 99.749C220.585 99.749 219.397 99.4309 218.599 99.1407C217.564 98.8266 216.953 99.087 216.534 100.131L216.146 101.093L215.596 102.5L215.935 102.681C217.657 103.595 219.897 104.142 221.92 104.142C226.086 104.142 230.954 102.005 230.954 95.99L230.972 80.213H228.696Z" fill="#273B7D"/></g></g></g><mask id="mask5_31_17" style="mask-type:luminance" maskUnits="userSpaceOnUse" x="114" y="72" width="188" height="33"><path d="M114.436 72.2697H301.894V104.144H114.436V72.2697Z" fill="white"/></mask><g mask="url(#mask5_31_17)"><mask id="mask6_31_17" style="mask-type:luminance" maskUnits="userSpaceOnUse" x="114" y="72" width="189" height="33"><path d="M114.436 104.144H302.436V72.1775H114.436V104.144Z" fill="white"/></mask><g mask="url(#mask6_31_17)"><path d="M122.976 93.3602L118.992 93.3562V88.5855C118.992 87.5638 119.387 87.035 120.258 86.9118H122.976C124.914 86.9118 126.167 88.1363 126.169 90.1181C126.167 92.1536 124.945 93.3582 122.976 93.3582V93.3602ZM118.992 80.4873V79.231C118.992 78.1317 119.457 77.6089 120.474 77.5414H122.514C124.261 77.5414 125.309 78.5889 125.309 80.3441C125.309 81.6799 124.59 83.2404 122.577 83.2404H118.992V80.4873ZM128.062 85.25L127.342 84.8445L127.971 84.3058C128.703 83.6757 129.927 82.2584 129.927 79.8134C129.927 76.0684 127.03 73.6513 122.545 73.6513H116.844C116.203 73.6747 115.595 73.9446 115.146 74.4049C114.698 74.8653 114.444 75.4809 114.436 76.1241V97.3735H122.646C127.631 97.3735 130.849 94.6542 130.849 90.4421C130.849 88.174 129.81 86.236 128.062 85.25Z" fill="#273B7D"/><path d="M296.156 79.9247C295.145 79.9284 294.149 80.1595 293.24 80.6009C292.33 81.0424 291.532 81.6828 290.903 82.475L290.55 82.9242L290.272 82.4213C289.363 80.7655 287.804 79.9247 285.636 79.9247C283.361 79.9247 281.835 81.1969 281.127 81.9522L280.663 82.4551L280.484 81.7932C280.227 80.839 279.38 80.3163 278.098 80.3163H276.041L276.021 97.451H280.693V89.8875C280.693 89.2235 280.776 88.5696 280.941 87.8838C281.387 86.055 282.613 84.0891 284.674 84.2859C285.944 84.4091 286.566 85.3931 286.566 87.2934V97.451H291.272V89.8875C291.272 89.0586 291.349 88.4384 291.536 87.8182C291.913 86.0729 293.194 84.2839 295.182 84.2839C296.622 84.2839 297.153 85.0989 297.153 87.2934V94.9464C297.153 96.6758 297.923 97.451 299.651 97.451H301.849L301.853 86.5122C301.853 82.1411 299.933 79.9247 296.156 79.9247ZM253.637 91.5015C253.623 91.5194 251.614 93.6424 248.966 93.6424C246.554 93.6424 244.118 92.1595 244.118 88.8498C244.118 85.9914 246.006 83.9937 248.712 83.9937C249.589 83.9937 250.588 84.3077 250.745 84.8385L250.767 84.9279C250.867 85.2933 251.084 85.6155 251.386 85.8444C251.687 86.0733 252.055 86.1963 252.433 86.1942L254.992 86.1981V83.9559C254.992 80.9981 251.237 79.9247 248.712 79.9247C243.308 79.9247 239.388 83.6935 239.388 88.8856C239.388 94.0737 243.265 97.8386 248.613 97.8386C253.25 97.8386 255.774 94.7834 255.798 94.7536L255.932 94.5866L253.905 91.2173L253.637 91.5015Z" fill="#499FDD"/></g></g></g><rect x="334" y="82.5004" width="56" height="12" rx="6" fill="var(--bg-secondary)"/><rect x="406" y="82.5004" width="56" height="12" rx="6" fill="var(--bg-secondary)"/><rect x="478" y="82.5004" width="56" height="12" rx="6" fill="var(--bg-secondary)"/><rect x="550" y="82.5004" width="56" height="12" rx="6" fill="var(--bg-secondary)"/><path d="M114 164.5C114 157.873 119.373 152.5 126 152.5H670V496.5H126C119.373 496.5 114 491.127 114 484.5V164.5Z" fill="var(--bg-secondary)"/><g filter="url(#filter0_d_31_17)"><rect x="48" y="323.5" width="303" height="333.999" rx="8" fill="var(--bg-secondary)"/><text xml:space="preserve" style="white-space: pre" font-family="Nunito Sans" font-size="16" font-weight="600" letter-spacing="0em"><tspan fill="var(--tx-primary)" x="72" y="390.764">John Doe</tspan></text><text xml:space="preserve" style="white-space: pre" font-family="Roboto" font-size="16" font-weight="600" letter-spacing="0em"><tspan fill="var(--tx-secondary)" x="72" y="362.469">Name on card</tspan></text><rect x="283" y="446.5" width="44" height="36" rx="6" fill="var(--bg-tertiary)"/><path d="M309.327 456.739H300.674V472.288H309.327V456.739Z" fill="#FF5F00"/><path d="M301.223 464.514C301.222 463.016 301.561 461.538 302.216 460.191C302.87 458.844 303.822 457.664 305 456.739C303.541 455.592 301.789 454.879 299.944 454.681C298.099 454.483 296.236 454.808 294.567 455.619C292.898 456.43 291.491 457.695 290.507 459.267C289.522 460.84 289 462.658 289 464.514C289 466.369 289.522 468.188 290.507 469.76C291.491 471.333 292.898 472.598 294.567 473.408C296.236 474.219 298.099 474.545 299.944 474.347C301.789 474.148 303.541 473.435 305 472.289C303.822 471.364 302.87 470.184 302.216 468.837C301.561 467.49 301.222 466.011 301.223 464.514Z" fill="#EB001B"/><path d="M321 464.514C321 466.369 320.478 468.188 319.494 469.76C318.509 471.333 317.102 472.597 315.433 473.408C313.764 474.219 311.901 474.545 310.056 474.346C308.211 474.148 306.459 473.435 305 472.289C306.177 471.363 307.129 470.183 307.783 468.836C308.437 467.489 308.777 466.011 308.777 464.514C308.777 463.017 308.437 461.539 307.783 460.192C307.129 458.845 306.177 457.665 305 456.739C306.459 455.592 308.211 454.879 310.056 454.681C311.901 454.483 313.764 454.808 315.433 455.619C317.102 456.43 318.509 457.695 319.494 459.267C320.478 460.84 321 462.658 321 464.514Z" fill="#F79E1B"/><path d="M320.056 470.641V470.323H320.185V470.258H319.858V470.323H319.986V470.641H320.056ZM320.691 470.641V470.258H320.591L320.476 470.522L320.36 470.258H320.26V470.641H320.331V470.352L320.439 470.601H320.512L320.62 470.351V470.641H320.691Z" fill="#F79E1B"/><ellipse cx="76.9977" cy="464.5" rx="2.99765" ry="3" fill="var(--max)"/><ellipse cx="86.9903" cy="464.5" rx="2.99765" ry="3" fill="var(--max)"/><ellipse cx="96.983" cy="464.5" rx="2.99765" ry="3" fill="var(--max)"/><ellipse cx="106.976" cy="464.5" rx="2.99765" ry="3" fill="var(--max)"/><ellipse cx="120.971" cy="464.5" rx="2.99765" ry="3" fill="var(--max)"/><ellipse cx="130.964" cy="464.5" rx="2.99765" ry="3" fill="var(--max)"/><ellipse cx="140.956" cy="464.5" rx="2.99765" ry="3" fill="var(--max)"/><ellipse cx="150.949" cy="464.5" rx="2.99765" ry="3" fill="var(--max)"/><ellipse cx="164.944" cy="464.5" rx="2.99765" ry="3" fill="var(--max)"/><ellipse cx="174.937" cy="464.5" rx="2.99765" ry="3" fill="var(--max)"/><ellipse cx="184.93" cy="464.5" rx="2.99765" ry="3" fill="var(--max)"/><ellipse cx="194.922" cy="464.5" rx="2.99765" ry="3" fill="var(--max)"/><text xml:space="preserve" style="white-space: pre" font-family="Nunito Sans" font-size="16" font-weight="600" letter-spacing="0em"><tspan fill="var(--tx-primary)" x="205.92" y="471.764">4875</tspan></text><text xml:space="preserve" style="white-space: pre" font-family="Roboto" font-size="16" font-weight="600" letter-spacing="0em"><tspan fill="var(--tx-secondary)" x="72" y="443.469">Card Number</tspan></text><ellipse cx="288.998" cy="550.5" rx="2.99765" ry="3" fill="var(--max)"/><ellipse cx="298.99" cy="550.5" rx="2.99765" ry="3" fill="var(--max)"/><ellipse cx="308.983" cy="550.5" rx="2.99765" ry="3" fill="var(--max)"/><text xml:space="preserve" style="white-space: pre" font-family="Roboto" font-size="16" font-weight="600" letter-spacing="0em"><tspan fill="var(--tx-secondary)" x="284" y="529.469">CCV</tspan></text><text xml:space="preserve" style="white-space: pre" font-family="Nunito Sans" font-size="16" font-weight="600" letter-spacing="0em"><tspan fill="var(--tx-primary)" x="72.0405" y="557.764">08/26</tspan></text><text xml:space="preserve" style="white-space: pre" font-family="Roboto" font-size="16" font-weight="600" letter-spacing="0em"><tspan fill="var(--tx-secondary)" x="72" y="529.469">Expiry Date</tspan></text><rect x="72" y="595.5" width="255" height="38" rx="4" fill="var(--ac-primary-500)"/><text xml:space="preserve" style="white-space: pre" font-family="Nunito Sans" font-size="16" font-weight="bold" letter-spacing="0em"><tspan fill="var(--white)" x="164.5" y="619.764">Pay $150</tspan></text></g><defs><filter id="filter0_d_31_17" x="30" y="309.5" width="335" height="365.999" filterUnits="userSpaceOnUse" color-interpolation-filters="sRGB"><feFlood flood-opacity="0" result="BackgroundImageFix"/><feColorMatrix in="SourceAlpha" type="matrix" values="0 0 0 0 0 0 0 0 0 0 0 0 0 0 0 0 0 0 127 0" result="hardAlpha"/><feOffset dx="-2" dy="2"/><feGaussianBlur stdDeviation="8"/><feComposite in2="hardAlpha" operator="out"/><feColorMatrix type="matrix" values="0 0 0 0 0 0 0 0 0 0 0 0 0 0 0 0 0 0 0.5 0"/><feBlend mode="normal" in2="BackgroundImageFix" result="effect1_dropShadow_31_17"/><feBlend mode="normal" in="SourceGraphic" in2="effect1_dropShadow_31_17" result="shape"/></filter><clipPath id="clip0_31_17"><rect width="188.29" height="32" fill="white" transform="translate(114 72.5004)"/></clipPath></defs></svg>
