<svg width="670" height="592" viewBox="0 0 670 592" fill="none" xmlns="http://www.w3.org/2000/svg"><rect width="670" height="592" rx="12" fill="var(--ac-primary-300)"/><g filter="url(#filter0_d_9_806)"><rect x="150" y="135" width="424" height="361" rx="8" fill="var(--bg-secondary)" shape-rendering="crispEdges"/><text xml:space="preserve" style="white-space: pre" font-family="Roboto" font-size="22" font-weight="bold" letter-spacing="0em"><tspan fill="var(--tx-primary)" x="174" y="179.52">Save login details?</tspan></text><text xml:space="preserve" style="white-space: pre" font-family="Nunito Sans" font-size="16" font-weight="500" letter-spacing="0em"><tspan fill="var(--tx-primary)" x="241.947" y="257.264">Google</tspan></text><text xml:space="preserve" style="white-space: pre" font-family="Roboto" font-size="16" font-weight="bold" letter-spacing="0em"><tspan fill="var(--tx-secondary)" x="241.947" y="228.969">Title</tspan></text><rect x="174" y="209" width="55.9561" height="56" rx="6" fill="var(--bg-tertiary)"/><path d="M222.547 237.483C222.547 236.055 222.431 234.62 222.184 233.216H202.392V241.303H213.726C213.256 243.911 211.745 246.218 209.532 247.685V252.932H216.294C220.265 249.275 222.547 243.873 222.547 237.485V237.483Z" fill="#4285F4"/><path d="M202.392 258C208.051 258 212.824 256.14 216.301 252.931L209.54 247.684C207.659 248.964 205.229 249.69 202.4 249.69C196.926 249.69 192.285 245.994 190.62 241.025H183.642V246.434C187.203 253.525 194.459 258 202.393 258H202.392Z" fill="#34A853"/><path d="M190.611 241.025C189.733 238.417 189.733 235.593 190.611 232.985V227.575H183.642C180.666 233.509 180.666 240.5 183.642 246.433L190.611 241.024V241.025Z" fill="#FBBC04"/><path d="M202.392 224.312C205.383 224.266 208.275 225.392 210.442 227.46L216.432 221.465C212.639 217.9 207.604 215.94 202.392 216.002C194.459 216.002 187.203 220.477 183.641 227.576L190.61 232.986C192.268 228.008 196.918 224.313 202.391 224.313L202.392 224.312Z" fill="#EA4335"/><text xml:space="preserve" style="white-space: pre" font-family="Nunito Sans" font-size="16" font-weight="500" letter-spacing="0em"><tspan fill="var(--tx-primary)" x="174" y="332.264">johndoe@gmail.com</tspan></text><text xml:space="preserve" style="white-space: pre" font-family="Roboto" font-size="16" font-weight="bold" letter-spacing="0em"><tspan fill="var(--tx-secondary)" x="174" y="303.969">Email</tspan></text><ellipse cx="177.998" cy="398" rx="2.99765" ry="3" fill="var(--max)"/><ellipse cx="187.99" cy="398" rx="2.99765" ry="3" fill="var(--max)"/><ellipse cx="197.983" cy="398" rx="2.99765" ry="3" fill="var(--max)"/><ellipse cx="207.976" cy="398" rx="2.99765" ry="3" fill="var(--max)"/><ellipse cx="217.968" cy="398" rx="2.99765" ry="3" fill="var(--max)"/><ellipse cx="227.961" cy="398" rx="2.99765" ry="3" fill="var(--max)"/><ellipse cx="237.954" cy="398" rx="2.99765" ry="3" fill="var(--max)"/><ellipse cx="247.946" cy="398" rx="2.99765" ry="3" fill="var(--max)"/><ellipse cx="257.939" cy="398" rx="2.99765" ry="3" fill="var(--max)"/><ellipse cx="267.932" cy="398" rx="2.99765" ry="3" fill="var(--max)"/><ellipse cx="277.924" cy="398" rx="2.99765" ry="3" fill="var(--max)"/><ellipse cx="287.917" cy="398" rx="2.99765" ry="3" fill="var(--max)"/><ellipse cx="297.91" cy="398" rx="2.99765" ry="3" fill="var(--max)"/><ellipse cx="307.902" cy="398" rx="2.99765" ry="3" fill="var(--max)"/><ellipse cx="317.895" cy="398" rx="2.99765" ry="3" fill="var(--max)"/><ellipse cx="327.888" cy="398" rx="2.99765" ry="3" fill="var(--max)"/><ellipse cx="337.88" cy="398" rx="2.99765" ry="3" fill="var(--max)"/><ellipse cx="347.873" cy="398" rx="2.99765" ry="3" fill="var(--max)"/><path d="M548.446 397.804C546.313 394.268 542.437 391.904 538.009 391.904C533.58 391.904 529.704 394.268 527.571 397.804C527.498 397.925 527.498 398.076 527.571 398.197C529.704 401.733 533.58 404.097 538.009 404.097C542.437 404.097 546.313 401.732 548.446 398.197C548.519 398.076 548.519 397.925 548.446 397.804ZM538.009 402.359C535.603 402.359 533.652 400.408 533.652 398C533.652 395.593 535.603 393.641 538.009 393.641C540.414 393.641 542.365 395.593 542.365 398C542.365 400.408 540.414 402.359 538.009 402.359Z" fill="var(--ic-secondary)"/><path d="M538.009 399.969C539.095 399.969 539.976 399.087 539.976 398C539.976 396.913 539.095 396.031 538.009 396.031C536.922 396.031 536.042 396.913 536.042 398C536.042 399.087 536.922 399.969 538.009 399.969Z" fill="var(--ic-secondary)"/><text xml:space="preserve" style="white-space: pre" font-family="Roboto" font-size="16" font-weight="bold" letter-spacing="0em"><tspan fill="var(--tx-secondary)" x="174" y="376.969">Password</tspan></text><rect x="174" y="434" width="376" height="38" rx="4" fill="var(--ac-primary-500)"/><text xml:space="preserve" style="white-space: pre" font-family="Nunito Sans" font-size="16" font-weight="bold" letter-spacing="0em"><tspan fill="var(--white)" x="344" y="458.264">Save</tspan></text></g><defs><filter id="filter0_d_9_806" x="118" y="103" width="488" height="425" filterUnits="userSpaceOnUse" color-interpolation-filters="sRGB"><feFlood flood-opacity="0" result="BackgroundImageFix"/><feColorMatrix in="SourceAlpha" type="matrix" values="0 0 0 0 0 0 0 0 0 0 0 0 0 0 0 0 0 0 127 0" result="hardAlpha"/><feOffset/><feGaussianBlur stdDeviation="16"/><feComposite in2="hardAlpha" operator="out"/><feColorMatrix type="matrix" values="0 0 0 0 0 0 0 0 0 0 0 0 0 0 0 0 0 0 0.4 0"/><feBlend mode="normal" in2="BackgroundImageFix" result="effect1_dropShadow_9_806"/><feBlend mode="normal" in="SourceGraphic" in2="effect1_dropShadow_9_806" result="shape"/></filter></defs></svg>
