<svg width="670" height="592" viewBox="0 0 670 592" xmlns="http://www.w3.org/2000/svg"><rect width="670" height="592" rx="12" fill="#5FC0C3"/><path d="M0 63H576C582.627 63 588 68.3726 588 75V547C588 553.627 582.627 559 576 559H0V63Z" fill="var(--bg-primary)"/><rect width="115" height="496" transform="translate(0 63)" fill="var(--bg-secondary)"/><g clip-path="url(#clip0_11_857)"><path d="M14.2049 71.5454C14.1426 71.4854 14.0684 71.4546 13.9842 71.4546H8.31496C8.22906 71.4546 8.15664 71.4854 8.09432 71.5454C8.032 71.6053 8 71.675 8 71.7577V75.3949C8 75.6655 8.05558 75.9362 8.16506 76.202C8.27454 76.4695 8.41096 76.7061 8.57434 76.912C8.73603 77.1194 8.92972 77.3204 9.15541 77.5149C9.37942 77.711 9.58827 77.8731 9.7786 78.0028C9.96892 78.1325 10.1677 78.254 10.3748 78.3691C10.582 78.4842 10.7285 78.562 10.8161 78.6041C10.9037 78.6447 10.9728 78.6771 11.025 78.6981C11.0637 78.7176 11.1075 78.7273 11.153 78.7273C11.1984 78.7273 11.2422 78.7176 11.281 78.6981C11.3332 78.6755 11.4039 78.6447 11.4898 78.6041C11.5774 78.5636 11.7239 78.4842 11.9311 78.3691C12.1383 78.254 12.337 78.1308 12.5273 78.0028C12.7177 77.8731 12.9248 77.711 13.1505 77.5149C13.3745 77.3188 13.5682 77.1178 13.7316 76.912C13.8933 76.7045 14.0297 76.4679 14.1392 76.202C14.2487 75.9346 14.3042 75.6655 14.3042 75.3949V71.7577C14.2992 71.675 14.2672 71.6053 14.2049 71.5454ZM13.4739 75.4289C13.4739 76.745 11.1496 77.8796 11.1496 77.8796V72.2326H13.4739C13.4739 72.2326 13.4739 74.1128 13.4739 75.4289Z" fill="var(--max)"/><path d="M105.298 74.5025V78.7273H103.82V73.324H105.21L105.298 74.5025ZM106.97 73.289L106.944 74.6224C106.873 74.6124 106.785 74.6041 106.683 74.5974C106.584 74.5874 106.493 74.5824 106.411 74.5824C106.202 74.5824 106.021 74.6091 105.867 74.6623C105.716 74.7123 105.59 74.7872 105.487 74.887C105.388 74.9869 105.313 75.1084 105.262 75.2516C105.214 75.3948 105.186 75.5579 105.18 75.741L104.882 75.6511C104.882 75.3015 104.918 74.9803 104.99 74.6873C105.062 74.391 105.166 74.133 105.303 73.9133C105.443 73.6935 105.614 73.5238 105.816 73.4039C106.017 73.284 106.248 73.2241 106.508 73.2241C106.59 73.2241 106.674 73.2308 106.76 73.2441C106.845 73.2541 106.915 73.2691 106.97 73.289Z" fill="var(--max)"/><path d="M100.701 78.8272C100.27 78.8272 99.8834 78.7606 99.5414 78.6274C99.1993 78.4909 98.9086 78.3028 98.6691 78.0631C98.4332 77.8234 98.2518 77.5454 98.1252 77.2291C97.9987 76.9095 97.9354 76.57 97.9354 76.2104V76.0107C97.9354 75.6012 97.9954 75.2266 98.115 74.887C98.2348 74.5475 98.4057 74.2528 98.6282 74.0032C98.8537 73.7535 99.1274 73.562 99.4489 73.4289C99.7704 73.2924 100.133 73.2241 100.537 73.2241C100.93 73.2241 101.279 73.2874 101.583 73.4139C101.887 73.5404 102.142 73.7202 102.348 73.9532C102.556 74.1863 102.714 74.4659 102.82 74.7922C102.926 75.1151 102.979 75.4747 102.979 75.8708V76.4701H98.5666V75.5113H101.527V75.4014C101.527 75.2017 101.489 75.0235 101.414 74.8671C101.342 74.7073 101.233 74.5808 101.085 74.4875C100.939 74.3943 100.75 74.3477 100.521 74.3477C100.326 74.3477 100.159 74.3893 100.018 74.4726C99.8783 74.5558 99.7637 74.6723 99.6747 74.8221C99.5892 74.972 99.5241 75.1484 99.4797 75.3515C99.4386 75.5512 99.4181 75.771 99.4181 76.0107V76.2104C99.4181 76.4268 99.4489 76.6265 99.5106 76.8097C99.5755 76.9928 99.6661 77.1509 99.7823 77.2841C99.9021 77.4172 100.046 77.5204 100.213 77.5937C100.385 77.6669 100.578 77.7035 100.793 77.7035C101.06 77.7035 101.308 77.6536 101.537 77.5537C101.77 77.4505 101.97 77.2957 102.137 77.0893L102.856 77.8484C102.739 78.0115 102.58 78.168 102.379 78.3178C102.18 78.4676 101.941 78.5908 101.66 78.6873C101.38 78.7805 101.06 78.8272 100.701 78.8272Z" fill="var(--max)"/><path d="M95.6575 73.324H96.9966V78.5475C96.9966 79.0402 96.8838 79.458 96.658 79.8009C96.4357 80.1472 96.1245 80.4085 95.7243 80.585C95.3241 80.7647 94.859 80.8546 94.3287 80.8546C94.0962 80.8546 93.8501 80.8247 93.59 80.7647C93.3336 80.7048 93.0873 80.6116 92.8512 80.4851C92.6186 80.3586 92.4237 80.1988 92.2663 80.0057L92.918 79.1567C93.0889 79.3498 93.2874 79.4996 93.5131 79.6062C93.7389 79.716 93.9885 79.771 94.2622 79.771C94.5288 79.771 94.7546 79.7227 94.9393 79.6262C95.124 79.5329 95.266 79.3948 95.3652 79.2117C95.4644 79.0319 95.5139 78.8138 95.5139 78.5575V74.5725L95.6575 73.324ZM91.9226 76.0905V75.9857C91.9226 75.5729 91.974 75.1983 92.0765 74.8621C92.1827 74.5225 92.3315 74.2312 92.5229 73.9882C92.7179 73.7451 92.9539 73.557 93.2309 73.4239C93.508 73.2907 93.8209 73.2241 94.1697 73.2241C94.5391 73.2241 94.8487 73.2907 95.0983 73.4239C95.3482 73.557 95.5534 73.7468 95.714 73.9932C95.8749 74.2362 95.9996 74.5242 96.0885 74.8571C96.181 75.1867 96.2527 75.5479 96.3041 75.9408V76.1705C96.2527 76.5467 96.1759 76.8962 96.0731 77.2192C95.9706 77.5421 95.8354 77.8251 95.6678 78.0681C95.5004 78.3078 95.2916 78.4942 95.042 78.6274C94.7957 78.7606 94.5015 78.8272 94.1595 78.8272C93.8176 78.8272 93.508 78.7589 93.2309 78.6224C92.9572 78.4859 92.723 78.2945 92.5281 78.0481C92.3331 77.8018 92.1827 77.5121 92.0765 77.1792C91.974 76.8463 91.9226 76.4834 91.9226 76.0905ZM93.4001 75.9857V76.0905C93.4001 76.3136 93.4226 76.5217 93.4669 76.7148C93.5113 76.9079 93.5797 77.0793 93.6722 77.2291C93.7679 77.3756 93.8858 77.4905 94.0261 77.5737C94.1697 77.6536 94.339 77.6936 94.534 77.6936C94.8043 77.6936 95.0248 77.6386 95.1959 77.5288C95.3668 77.4156 95.4952 77.2608 95.5807 77.0643C95.6662 76.8679 95.7157 76.6415 95.7294 76.3852V75.731C95.7227 75.5213 95.6935 75.3332 95.6421 75.1667C95.591 74.9969 95.5191 74.8521 95.4268 74.7323C95.3344 74.6124 95.2146 74.5192 95.0677 74.4526C94.9206 74.386 94.7462 74.3527 94.5442 74.3527C94.3493 74.3527 94.18 74.396 94.0364 74.4825C93.8961 74.5658 93.7782 74.6806 93.6824 74.8271C93.59 74.9736 93.5199 75.1467 93.4721 75.3465C93.4242 75.5429 93.4001 75.756 93.4001 75.9857Z" fill="var(--max)"/><path d="M89.5165 77.5088V75.1018C89.5165 74.9287 89.4876 74.7805 89.4294 74.6573C89.3713 74.5308 89.2805 74.4326 89.1574 74.3627C89.0376 74.2928 88.8821 74.2578 88.6904 74.2578C88.5263 74.2578 88.3843 74.2861 88.2648 74.3427C88.145 74.396 88.0528 74.4742 87.9876 74.5774C87.9227 74.6773 87.8902 74.7955 87.8902 74.932H86.4127C86.4127 74.7023 86.4674 74.4842 86.5769 74.2778C86.6864 74.0714 86.8454 73.89 87.0539 73.7335C87.2626 73.5737 87.5106 73.4488 87.7978 73.359C88.0885 73.2691 88.4135 73.2241 88.7726 73.2241C89.2036 73.2241 89.5866 73.294 89.9218 73.4339C90.2569 73.5737 90.5203 73.7834 90.712 74.0631C90.9069 74.3427 91.0043 74.6923 91.0043 75.1118V77.4239C91.0043 77.7202 91.0232 77.9632 91.0608 78.153C91.0984 78.3394 91.153 78.5025 91.225 78.6424V78.7273H89.732C89.6601 78.5808 89.6055 78.3977 89.5679 78.178C89.5336 77.9549 89.5165 77.7318 89.5165 77.5088ZM89.7115 75.4364L89.7217 76.2504H88.8957C88.7007 76.2504 88.5314 76.272 88.3878 76.3153C88.2442 76.3585 88.1263 76.4201 88.0338 76.5C87.9414 76.5766 87.8732 76.6665 87.8286 76.7697C87.7875 76.8729 87.767 76.9861 87.767 77.1093C87.767 77.2325 87.7962 77.344 87.8543 77.4439C87.9124 77.5404 87.9963 77.617 88.1058 77.6736C88.215 77.7268 88.3434 77.7535 88.4905 77.7535C88.7128 77.7535 88.9059 77.7102 89.0701 77.6236C89.2345 77.5371 89.361 77.4305 89.4497 77.304C89.5422 77.1775 89.5901 77.0577 89.5936 76.9445L89.9835 77.5537C89.9286 77.6902 89.8534 77.8317 89.7577 77.9782C89.6652 78.1247 89.5473 78.2628 89.4037 78.3927C89.2599 78.5192 89.0874 78.6241 88.8854 78.7073C88.6836 78.7872 88.4443 78.8272 88.1672 78.8272C87.8148 78.8272 87.4952 78.7589 87.2078 78.6224C86.9241 78.4826 86.6983 78.2912 86.5306 78.0481C86.3665 77.8018 86.2843 77.5221 86.2843 77.2092C86.2843 76.9262 86.3392 76.6748 86.4484 76.4551C86.5579 76.2354 86.7188 76.0506 86.9308 75.9008C87.1463 75.7476 87.4149 75.6328 87.7364 75.5562C88.0579 75.4763 88.4305 75.4364 88.8548 75.4364H89.7115Z" fill="var(--max)"/><path d="M82.0775 74.4776V78.7273H80.6V73.324H81.985L82.0775 74.4776ZM81.862 75.8359H81.4618C81.4618 75.4364 81.5148 75.0768 81.6208 74.7572C81.7268 74.4343 81.8755 74.1596 82.0672 73.9332C82.2587 73.7035 82.4861 73.5288 82.7495 73.4089C83.0164 73.2857 83.3138 73.2241 83.6421 73.2241C83.9022 73.2241 84.1399 73.2607 84.3554 73.334C84.5707 73.4072 84.7554 73.5238 84.9095 73.6835C85.0667 73.8433 85.1864 74.0548 85.2686 74.3178C85.3541 74.5808 85.3968 74.902 85.3968 75.2816V78.7273H83.909V75.2766C83.909 75.0369 83.8747 74.8504 83.8065 74.7173C83.7381 74.5841 83.637 74.4909 83.5037 74.4376C83.3736 74.381 83.213 74.3527 83.0215 74.3527C82.823 74.3527 82.6503 74.391 82.5032 74.4676C82.3596 74.5441 82.24 74.6507 82.144 74.7872C82.0518 74.9203 81.9818 75.0768 81.9339 75.2566C81.8858 75.4364 81.862 75.6295 81.862 75.8359Z" fill="var(--max)"/><path d="M78.0037 77.5088V75.1018C78.0037 74.9287 77.9748 74.7805 77.9166 74.6573C77.8585 74.5308 77.7679 74.4326 77.6446 74.3627C77.5251 74.2928 77.3693 74.2578 77.1779 74.2578C77.0137 74.2578 76.8717 74.2861 76.752 74.3427C76.6322 74.396 76.54 74.4742 76.475 74.5774C76.4099 74.6773 76.3774 74.7955 76.3774 74.932H74.8999C74.8999 74.7023 74.9546 74.4842 75.0641 74.2778C75.1736 74.0714 75.3326 73.89 75.5413 73.7335C75.7498 73.5737 75.9978 73.4488 76.2852 73.359C76.5759 73.2691 76.9007 73.2241 77.2598 73.2241C77.6908 73.2241 78.074 73.294 78.409 73.4339C78.7443 73.5737 79.0077 73.7834 79.1992 74.0631C79.3941 74.3427 79.4917 74.6923 79.4917 75.1118V77.4239C79.4917 77.7202 79.5104 77.9632 79.548 78.153C79.5856 78.3394 79.6405 78.5025 79.7122 78.6424V78.7273H78.2192C78.1475 78.5808 78.0927 78.3977 78.0551 78.178C78.021 77.9549 78.0037 77.7318 78.0037 77.5088ZM78.1987 75.4364L78.2089 76.2504H77.3831C77.1881 76.2504 77.0188 76.272 76.875 76.3153C76.7314 76.3585 76.6135 76.4201 76.521 76.5C76.4288 76.5766 76.3604 76.6665 76.3158 76.7697C76.2749 76.8729 76.2544 76.9861 76.2544 77.1093C76.2544 77.2325 76.2834 77.344 76.3415 77.4439C76.3996 77.5404 76.4835 77.617 76.593 77.6736C76.7025 77.7268 76.8307 77.7535 76.9778 77.7535C77.2 77.7535 77.3934 77.7102 77.5575 77.6236C77.7217 77.5371 77.8482 77.4305 77.9372 77.304C78.0294 77.1775 78.0773 77.0577 78.0808 76.9445L78.4707 77.5537C78.4161 77.6902 78.3406 77.8317 78.2449 77.9782C78.1527 78.1247 78.0345 78.2628 77.8909 78.3927C77.7473 78.5192 77.5746 78.6241 77.3728 78.7073C77.1711 78.7872 76.9315 78.8272 76.6546 78.8272C76.3023 78.8272 75.9824 78.7589 75.6952 78.6224C75.4113 78.4826 75.1855 78.2912 75.0178 78.0481C74.8537 77.8018 74.7717 77.5221 74.7717 77.2092C74.7717 76.9262 74.8264 76.6748 74.9359 76.4551C75.0454 76.2354 75.206 76.0506 75.418 75.9008C75.6335 75.7476 75.9021 75.6328 76.2236 75.5562C76.5451 75.4763 76.918 75.4364 77.342 75.4364H78.1987Z" fill="var(--max)"/><path d="M66.5989 71.4563H67.902L69.8209 76.7947L71.7397 71.4563H73.0428L70.3441 78.7273H69.2976L66.5989 71.4563ZM65.8961 71.4563H67.1941L67.4302 76.6598V78.7273H65.8961V71.4563ZM72.4476 71.4563H73.7507V78.7273H72.2116V76.6598L72.4476 71.4563Z" fill="var(--max)"/><path d="M60.5451 77.5487V71.0568H62.0329V78.7272H60.6939L60.5451 77.5487ZM57.0358 76.0905V75.9856C57.0358 75.5728 57.0836 75.1983 57.1794 74.862C57.2753 74.5224 57.4154 74.2311 57.6001 73.9881C57.7848 73.7451 58.0122 73.557 58.2826 73.4238C58.5528 73.2906 58.8605 73.2241 59.2061 73.2241C59.5308 73.2241 59.8148 73.2906 60.0576 73.4238C60.3039 73.557 60.5124 73.7467 60.6836 73.9931C60.858 74.2361 60.9981 74.5241 61.1043 74.857C61.2103 75.1866 61.2872 75.5478 61.335 75.9407V76.1704C61.2872 76.5466 61.2103 76.8962 61.1043 77.2191C60.9981 77.542 60.858 77.825 60.6836 78.068C60.5124 78.3077 60.3039 78.4942 60.0576 78.6273C59.8113 78.7605 59.5241 78.8271 59.1958 78.8271C58.8502 78.8271 58.5425 78.7589 58.2723 78.6224C58.0055 78.4859 57.7797 78.2944 57.595 78.0481C57.4138 77.8017 57.2753 77.5121 57.1794 77.1791C57.0836 76.8462 57.0358 76.4834 57.0358 76.0905ZM58.5133 75.9856V76.0905C58.5133 76.3136 58.5306 76.5216 58.5647 76.7147C58.6023 76.9078 58.6623 77.0793 58.7442 77.2291C58.8297 77.3756 58.9392 77.4904 59.0725 77.5736C59.2093 77.6536 59.3753 77.6935 59.5703 77.6935C59.8234 77.6935 60.0319 77.6386 60.1961 77.5287C60.3602 77.4155 60.4851 77.2607 60.5706 77.0643C60.6595 76.8679 60.7109 76.6415 60.7247 76.3851V75.7309C60.7144 75.5212 60.6836 75.3331 60.6322 75.1666C60.5844 74.9969 60.5124 74.852 60.4167 74.7322C60.3245 74.6123 60.2082 74.5191 60.0679 74.4525C59.9311 74.3859 59.7685 74.3527 59.5806 74.3527C59.3889 74.3527 59.2247 74.3959 59.0879 74.4825C58.9511 74.5657 58.84 74.6806 58.7545 74.8271C58.6723 74.9736 58.6109 75.1467 58.5698 75.3464C58.5322 75.5429 58.5133 75.7559 58.5133 75.9856Z" fill="var(--max)"/><path d="M54.9991 74.5025V78.7273H53.5216V73.324H54.912L54.9991 74.5025ZM56.6716 73.289L56.6459 74.6224C56.5743 74.6124 56.4869 74.6041 56.3844 74.5974C56.2852 74.5874 56.1946 74.5824 56.1124 74.5824C55.9039 74.5824 55.7225 74.6091 55.5686 74.6623C55.418 74.7123 55.2917 74.7872 55.189 74.887C55.0897 74.9869 55.0145 75.1084 54.9632 75.2516C54.9153 75.3948 54.888 75.5579 54.8812 75.741L54.5835 75.6511C54.5835 75.3015 54.6195 74.9803 54.6914 74.6873C54.7631 74.391 54.8674 74.133 55.0043 73.9133C55.1446 73.6935 55.3155 73.5238 55.5172 73.4039C55.7192 73.284 55.9499 73.2241 56.21 73.2241C56.292 73.2241 56.3758 73.2308 56.4613 73.2441C56.5467 73.2541 56.617 73.2691 56.6716 73.289Z" fill="var(--max)"/><path d="M47.3549 76.0806V75.9757C47.3549 75.5795 47.413 75.215 47.5293 74.8821C47.6456 74.5458 47.8148 74.2545 48.0371 74.0081C48.2594 73.7618 48.5331 73.5704 48.8581 73.4339C49.1829 73.294 49.5557 73.2241 49.9765 73.2241C50.3972 73.2241 50.7718 73.294 51.1 73.4339C51.4283 73.5704 51.7036 73.7618 51.9259 74.0081C52.1517 74.2545 52.3228 74.5458 52.4391 74.8821C52.5554 75.215 52.6135 75.5795 52.6135 75.9757V76.0806C52.6135 76.4734 52.5554 76.838 52.4391 77.1742C52.3228 77.5071 52.1517 77.7984 51.9259 78.0481C51.7036 78.2945 51.43 78.4859 51.1052 78.6224C50.7802 78.7589 50.4075 78.8272 49.9868 78.8272C49.566 78.8272 49.1915 78.7589 48.8632 78.6224C48.5382 78.4859 48.2629 78.2945 48.0371 78.0481C47.8148 77.7984 47.6456 77.5071 47.5293 77.1742C47.413 76.838 47.3549 76.4734 47.3549 76.0806ZM48.8324 75.9757V76.0806C48.8324 76.307 48.8529 76.5184 48.894 76.7148C48.9349 76.9112 49 77.0843 49.089 77.2341C49.1812 77.3806 49.301 77.4955 49.4481 77.5787C49.5952 77.6619 49.7748 77.7035 49.9868 77.7035C50.192 77.7035 50.3681 77.6619 50.5152 77.5787C50.6623 77.4955 50.7802 77.3806 50.8691 77.2341C50.9581 77.0843 51.023 76.9112 51.0641 76.7148C51.1085 76.5184 51.1309 76.307 51.1309 76.0806V75.9757C51.1309 75.756 51.1085 75.5496 51.0641 75.3565C51.023 75.16 50.9564 74.9869 50.864 74.8371C50.775 74.684 50.6571 74.5641 50.51 74.4776C50.3629 74.391 50.185 74.3477 49.9765 74.3477C49.7677 74.3477 49.5901 74.391 49.443 74.4776C49.2991 74.5641 49.1812 74.684 49.089 74.8371C49 74.9869 48.9349 75.16 48.894 75.3565C48.8529 75.5496 48.8324 75.756 48.8324 75.9757Z" fill="var(--max)"/><path d="M41.4599 77.329L42.6143 73.324H43.5532L43.2505 74.897L42.0962 78.7272H41.3112L41.4599 77.329ZM40.875 73.324L41.7011 77.324L41.7782 78.7272H40.8545L39.4489 73.324H40.875ZM44.6099 77.2591L45.4155 73.324H46.847L45.4412 78.7272H44.5228L44.6099 77.2591ZM43.6813 73.324L44.8306 77.299L44.9896 78.7272H44.1997L43.0453 74.902L42.7527 73.324H43.6813Z" fill="var(--max)"/><path d="M37.4787 77.2341C37.4787 77.1309 37.4481 77.0377 37.3864 76.9545C37.3248 76.8713 37.2104 76.7947 37.0427 76.7248C36.8786 76.6515 36.6409 76.5849 36.3297 76.525C36.049 76.4651 35.7875 76.3902 35.5447 76.3003C35.3051 76.2071 35.0966 76.0955 34.9187 75.9657C34.7443 75.8359 34.6074 75.6827 34.5082 75.5063C34.409 75.3265 34.3595 75.1218 34.3595 74.892C34.3595 74.6657 34.409 74.4526 34.5082 74.2528C34.6109 74.0531 34.7562 73.8766 34.9444 73.7235C35.1358 73.567 35.3684 73.4455 35.642 73.359C35.9192 73.2691 36.2304 73.2241 36.5758 73.2241C37.0582 73.2241 37.4719 73.299 37.8175 73.4488C38.1663 73.5987 38.433 73.8051 38.6176 74.0681C38.8058 74.3278 38.8999 74.624 38.8999 74.957H37.4224C37.4224 74.8171 37.3916 74.6923 37.3299 74.5824C37.2718 74.4692 37.1796 74.381 37.053 74.3178C36.9297 74.2512 36.7691 74.2179 36.5706 74.2179C36.4065 74.2179 36.2645 74.2462 36.145 74.3028C36.0252 74.356 35.9327 74.4293 35.8678 74.5225C35.8062 74.6124 35.7756 74.7123 35.7756 74.8221C35.7756 74.9054 35.7926 74.9803 35.8267 75.0469C35.8643 75.1101 35.9243 75.1684 36.0063 75.2216C36.0885 75.2749 36.1945 75.3248 36.3245 75.3715C36.4579 75.4147 36.622 75.4547 36.817 75.4913C37.2172 75.5712 37.5746 75.6761 37.8892 75.8059C38.2039 75.9324 38.4535 76.1055 38.6382 76.3253C38.8229 76.5417 38.9153 76.8263 38.9153 77.1792C38.9153 77.4189 38.8605 77.6386 38.7512 77.8384C38.6417 78.0381 38.4843 78.2129 38.2791 78.3627C38.0738 78.5092 37.8277 78.6241 37.5403 78.7073C37.2564 78.7872 36.9367 78.8272 36.5809 78.8272C36.0644 78.8272 35.6266 78.7373 35.2675 78.5575C34.9119 78.3777 34.6418 78.1497 34.4571 77.8733C34.2757 77.5937 34.1851 77.3074 34.1851 77.0144H35.5858C35.5925 77.2108 35.6439 77.369 35.7396 77.4888C35.8389 77.6087 35.9636 77.6952 36.1142 77.7485C36.268 77.8018 36.4338 77.8284 36.6117 77.8284C36.8032 77.8284 36.9624 77.8034 37.089 77.7535C37.2155 77.7002 37.3113 77.6303 37.3762 77.5438C37.4446 77.4539 37.4787 77.3507 37.4787 77.2341Z" fill="var(--max)"/><path d="M32.0815 77.2341C32.0815 77.1309 32.0507 77.0377 31.9893 76.9545C31.9276 76.8713 31.813 76.7947 31.6456 76.7248C31.4812 76.6515 31.2436 76.5849 30.9323 76.525C30.6519 76.4651 30.3902 76.3902 30.1474 76.3003C29.908 76.2071 29.6993 76.0955 29.5215 75.9657C29.3471 75.8359 29.2102 75.6827 29.111 75.5063C29.0119 75.3265 28.9623 75.1218 28.9623 74.892C28.9623 74.6657 29.0119 74.4526 29.111 74.2528C29.2137 74.0531 29.359 73.8766 29.5471 73.7235C29.7387 73.567 29.9712 73.4455 30.2449 73.359C30.5219 73.2691 30.8331 73.2241 31.1786 73.2241C31.6608 73.2241 32.0747 73.299 32.4201 73.4488C32.7691 73.5987 33.0358 73.8051 33.2205 74.0681C33.4087 74.3278 33.5028 74.624 33.5028 74.957H32.0252C32.0252 74.8171 31.9944 74.6923 31.9328 74.5824C31.8746 74.4692 31.7822 74.381 31.6556 74.3178C31.5326 74.2512 31.3719 74.2179 31.1735 74.2179C31.0093 74.2179 30.8674 74.2462 30.7476 74.3028C30.6279 74.356 30.5356 74.4293 30.4706 74.5225C30.409 74.6124 30.3783 74.7123 30.3783 74.8221C30.3783 74.9054 30.3954 74.9803 30.4296 75.0469C30.4672 75.1101 30.527 75.1684 30.6091 75.2216C30.6912 75.2749 30.7972 75.3248 30.9272 75.3715C31.0606 75.4147 31.2248 75.4547 31.4198 75.4913C31.82 75.5712 32.1772 75.6761 32.492 75.8059C32.8067 75.9324 33.0563 76.1055 33.241 76.3253C33.4257 76.5417 33.5182 76.8263 33.5182 77.1792C33.5182 77.4189 33.4633 77.6386 33.3538 77.8384C33.2445 78.0381 33.0872 78.2129 32.8819 78.3627C32.6767 78.5092 32.4303 78.6241 32.1431 78.7073C31.8592 78.7872 31.5393 78.8272 31.1837 78.8272C30.6673 78.8272 30.2295 78.7373 29.8704 78.5575C29.5147 78.3777 29.2444 78.1497 29.0597 77.8733C28.8785 77.5937 28.7878 77.3074 28.7878 77.0144H30.1884C30.1953 77.2108 30.2466 77.369 30.3424 77.4888C30.4415 77.6087 30.5664 77.6952 30.7169 77.7485C30.8708 77.8018 31.0367 77.8284 31.2145 77.8284C31.406 77.8284 31.565 77.8034 31.6916 77.7535C31.8181 77.7002 31.9139 77.6303 31.979 77.5438C32.0474 77.4539 32.0815 77.3507 32.0815 77.2341Z" fill="var(--max)"/><path d="M26.4535 77.5088V75.1018C26.4535 74.9287 26.4244 74.7805 26.3663 74.6573C26.3081 74.5308 26.2175 74.4326 26.0943 74.3627C25.9746 74.2928 25.819 74.2578 25.6275 74.2578C25.4633 74.2578 25.3214 74.2861 25.2017 74.3427C25.082 74.396 24.9896 74.4742 24.9246 74.5774C24.8596 74.6773 24.8271 74.7955 24.8271 74.932H23.3496C23.3496 74.7023 23.4043 74.4842 23.5138 74.2778C23.6232 74.0714 23.7823 73.89 23.9909 73.7335C24.1995 73.5737 24.4475 73.4488 24.7348 73.359C25.0255 73.2691 25.3504 73.2241 25.7096 73.2241C26.1405 73.2241 26.5236 73.294 26.8588 73.4339C27.194 73.5737 27.4573 73.7834 27.6489 74.0631C27.8438 74.3427 27.9413 74.6923 27.9413 75.1118V77.4239C27.9413 77.7202 27.9601 77.9632 27.9977 78.153C28.0354 78.3394 28.0901 78.5025 28.1619 78.6424V78.7273H26.669C26.5971 78.5808 26.5424 78.3977 26.5048 78.178C26.4706 77.9549 26.4535 77.7318 26.4535 77.5088ZM26.6484 75.4364L26.6587 76.2504H25.8327C25.6378 76.2504 25.4685 76.272 25.3248 76.3153C25.1811 76.3585 25.0631 76.4201 24.9708 76.5C24.8784 76.5766 24.81 76.6665 24.7656 76.7697C24.7245 76.8729 24.704 76.9861 24.704 77.1093C24.704 77.2325 24.7331 77.344 24.7912 77.4439C24.8494 77.5404 24.9332 77.617 25.0426 77.6736C25.1521 77.7268 25.2803 77.7535 25.4274 77.7535C25.6497 77.7535 25.843 77.7102 26.0071 77.6236C26.1713 77.5371 26.2979 77.4305 26.3868 77.304C26.4791 77.1775 26.527 77.0577 26.5304 76.9445L26.9203 77.5537C26.8656 77.6902 26.7904 77.8317 26.6946 77.9782C26.6023 78.1247 26.4843 78.2628 26.3406 78.3927C26.197 78.5192 26.0242 78.6241 25.8224 78.7073C25.6206 78.7872 25.3812 78.8272 25.1042 78.8272C24.7519 78.8272 24.4321 78.7589 24.1448 78.6224C23.8609 78.4826 23.6352 78.2912 23.4676 78.0481C23.3034 77.8018 23.2213 77.5221 23.2213 77.2092C23.2213 76.9262 23.276 76.6748 23.3855 76.4551C23.4949 76.2354 23.6557 76.0506 23.8678 75.9008C24.0832 75.7476 24.3517 75.6328 24.6732 75.5562C24.9947 75.4763 25.3675 75.4364 25.7916 75.4364H26.6484Z" fill="var(--max)"/><path d="M19.7481 76.1355H17.8447V74.9669H19.7481C20.0422 74.9669 20.2816 74.9203 20.4663 74.8271C20.651 74.7306 20.7861 74.5974 20.8716 74.4276C20.9571 74.2578 20.9999 74.0664 20.9999 73.8533C20.9999 73.6369 20.9571 73.4355 20.8716 73.2491C20.7861 73.0626 20.651 72.9128 20.4663 72.7996C20.2816 72.6864 20.0422 72.6298 19.7481 72.6298H18.3782V78.7273H16.8391V71.4563H19.7481C20.3329 71.4563 20.834 71.5595 21.2513 71.7659C21.672 71.969 21.9935 72.2503 22.2158 72.6099C22.4381 72.9694 22.5493 73.3806 22.5493 73.8433C22.5493 74.3128 22.4381 74.7189 22.2158 75.0618C21.9935 75.4047 21.672 75.6694 21.2513 75.8558C20.834 76.0423 20.3329 76.1355 19.7481 76.1355Z" fill="var(--max)"/></g><rect x="8" y="97" width="82" height="8" rx="2" fill="var(--bg-tertiary)"/><rect x="8" y="109" width="82" height="8" rx="2" fill="var(--bg-tertiary)"/><rect x="8" y="121" width="82" height="8" rx="2" fill="var(--bg-tertiary)"/><rect x="8" y="159" width="82" height="8" rx="2" fill="var(--bg-tertiary)"/><rect x="8" y="171" width="82" height="8" rx="2" fill="var(--bg-tertiary)"/><rect x="8" y="183" width="82" height="8" rx="2" fill="var(--bg-tertiary)"/><rect x="8" y="195" width="82" height="8" rx="2" fill="var(--bg-tertiary)"/><rect x="8" y="145" width="44" height="8" rx="2" fill="var(--bg-tertiary)"/><rect x="8" y="233" width="82" height="8" rx="2" fill="var(--bg-tertiary)"/><rect x="8" y="219" width="44" height="8" rx="2" fill="var(--bg-tertiary)"/><rect x="8" y="531" width="82" height="8" rx="2" fill="var(--bg-tertiary)"/><rect x="8" y="543" width="82" height="8" rx="2" fill="var(--bg-tertiary)"/><path opacity="0.5" d="M0 63H576C582.627 63 588 68.3726 588 75V547C588 553.627 582.627 559 576 559H0V63Z" fill="#111111"/><g filter="url(#filter0_d_11_857)"><rect x="123" y="144" width="523" height="310" rx="8" fill="var(--bg-secondary)"/><rect x="147" y="168" width="55.9561" height="56" rx="6" fill="var(--bg-max)"/><path d="M177.474 175.027L177.458 184.309L177.442 193.592L176.678 191.437C176.678 191.437 176.677 191.433 176.676 191.433L175.689 212.097C176.659 214.837 177.179 216.3 177.185 216.305C177.193 216.313 177.746 216.347 178.414 216.379C180.438 216.48 182.947 216.695 184.85 216.932C185.291 216.986 185.67 217.014 185.693 216.993C185.717 216.973 185.729 207.522 185.72 195.992L185.706 175.027H177.474ZM162.585 175V195.986C162.585 207.528 162.596 216.983 162.61 216.996C162.624 217.01 163.338 216.943 164.198 216.846C165.058 216.75 166.247 216.631 166.839 216.58C167.747 216.503 170.462 216.329 170.776 216.327C170.867 216.327 170.873 215.854 170.886 207.438L170.9 198.551L171.557 200.408C171.658 200.695 171.69 200.785 171.789 201.064L172.775 180.406C172.566 179.815 172.676 180.125 172.436 179.448C171.63 177.168 170.946 175.235 170.916 175.152L170.862 175H162.584H162.585Z" fill="#B1060F"/><path d="M162.584 175V186.78L170.882 208.792C170.882 208.288 170.883 208.015 170.884 207.438L170.898 198.551L171.555 200.408C175.209 210.749 177.172 216.293 177.184 216.304C177.192 216.312 177.745 216.346 178.413 216.378C180.437 216.479 182.946 216.694 184.849 216.931C185.29 216.985 185.669 217.013 185.692 216.993C185.708 216.978 185.718 212.344 185.721 205.807L177.462 182.061L177.458 184.308L177.442 193.591L176.678 191.436C175.932 189.331 175.434 187.923 172.436 179.448C171.63 177.168 170.946 175.235 170.916 175.152L170.862 175H162.584Z" fill="url(#paint0_radial_11_857)"/><path d="M162.585 175L170.899 198.561V198.551L171.556 200.408C175.21 210.749 177.173 216.293 177.185 216.304C177.193 216.312 177.746 216.346 178.414 216.378C180.438 216.479 182.947 216.694 184.85 216.931C185.289 216.985 185.666 217.013 185.692 216.993L177.442 193.587V193.592L176.678 191.437C175.932 189.332 175.434 187.923 172.436 179.448C171.63 177.169 170.946 175.236 170.916 175.153L170.862 175.001H162.585V175Z" fill="#E50914"/><path d="M229.229 179.125V190.5H226.886L222.315 182.875V190.5H219.972V179.125H222.315L226.894 186.758V179.125H229.229ZM235.019 190.656C234.362 190.656 233.774 190.552 233.253 190.344C232.732 190.13 232.289 189.836 231.925 189.461C231.565 189.086 231.289 188.651 231.097 188.156C230.904 187.656 230.808 187.125 230.808 186.562V186.25C230.808 185.609 230.899 185.023 231.081 184.492C231.263 183.961 231.524 183.5 231.862 183.109C232.206 182.719 232.623 182.419 233.112 182.211C233.602 181.997 234.154 181.891 234.769 181.891C235.368 181.891 235.899 181.99 236.362 182.188C236.826 182.385 237.214 182.667 237.526 183.031C237.844 183.396 238.084 183.833 238.245 184.344C238.407 184.849 238.487 185.411 238.487 186.031V186.969H231.769V185.469H236.276V185.297C236.276 184.984 236.219 184.706 236.104 184.461C235.995 184.211 235.828 184.013 235.604 183.867C235.381 183.721 235.094 183.648 234.745 183.648C234.448 183.648 234.193 183.714 233.979 183.844C233.766 183.974 233.591 184.156 233.456 184.391C233.326 184.625 233.227 184.901 233.159 185.219C233.097 185.531 233.065 185.875 233.065 186.25V186.562C233.065 186.901 233.112 187.214 233.206 187.5C233.305 187.786 233.443 188.034 233.62 188.242C233.802 188.451 234.021 188.612 234.276 188.727C234.537 188.841 234.831 188.898 235.159 188.898C235.565 188.898 235.943 188.82 236.292 188.664C236.646 188.503 236.951 188.26 237.206 187.938L238.3 189.125C238.123 189.38 237.881 189.625 237.573 189.859C237.271 190.094 236.907 190.286 236.479 190.438C236.052 190.583 235.565 190.656 235.019 190.656ZM243.909 182.047V183.641H238.987V182.047H243.909ZM240.206 179.961H242.456V187.953C242.456 188.198 242.487 188.385 242.55 188.516C242.618 188.646 242.716 188.737 242.847 188.789C242.977 188.836 243.141 188.859 243.339 188.859C243.479 188.859 243.604 188.854 243.714 188.844C243.828 188.828 243.925 188.812 244.003 188.797L244.011 190.453C243.818 190.516 243.61 190.565 243.386 190.602C243.162 190.638 242.914 190.656 242.644 190.656C242.149 190.656 241.716 190.576 241.347 190.414C240.982 190.247 240.701 189.982 240.503 189.617C240.305 189.253 240.206 188.773 240.206 188.18V179.961ZM248.058 190.5H245.792V181.398C245.792 180.737 245.93 180.18 246.206 179.727C246.482 179.268 246.881 178.922 247.401 178.688C247.922 178.453 248.55 178.336 249.284 178.336C249.591 178.336 249.974 178.352 250.433 178.383C250.896 178.409 251.368 178.443 251.847 178.484C252.331 178.521 252.756 178.56 253.12 178.602L252.183 180.375C251.714 180.292 251.263 180.227 250.831 180.18C250.399 180.133 249.987 180.109 249.597 180.109C249.263 180.109 248.982 180.159 248.753 180.258C248.524 180.357 248.349 180.503 248.229 180.695C248.115 180.883 248.058 181.117 248.058 181.398V190.5ZM250.87 190.5V178.602H253.12V190.5H250.87ZM249.745 182.047V183.641H244.534V182.047H249.745ZM257.378 182.047V190.5H255.12V182.047H257.378ZM254.979 179.844C254.979 179.516 255.094 179.245 255.323 179.031C255.552 178.818 255.86 178.711 256.245 178.711C256.625 178.711 256.93 178.818 257.159 179.031C257.394 179.245 257.511 179.516 257.511 179.844C257.511 180.172 257.394 180.443 257.159 180.656C256.93 180.87 256.625 180.977 256.245 180.977C255.86 180.977 255.552 180.87 255.323 180.656C255.094 180.443 254.979 180.172 254.979 179.844ZM261.05 182.047L262.448 184.617L263.886 182.047H266.284L263.894 186.18L266.394 190.5H263.987L262.464 187.781L260.94 190.5H258.534L261.034 186.18L258.644 182.047H261.05Z" fill="var(--tx-primary)"/><path d="M220.06 200.788V199.332H221.66V200.788H220.06ZM218.156 213.588L218.06 212.58L218.748 212.516C219.729 212.431 220.22 211.839 220.22 210.74V202.724H221.516V210.612C221.516 211.54 221.297 212.244 220.86 212.724C220.423 213.204 219.751 213.476 218.844 213.54L218.156 213.588ZM227.185 210.644C226.428 210.644 225.772 210.479 225.217 210.148C224.663 209.817 224.231 209.353 223.921 208.756C223.623 208.148 223.473 207.433 223.473 206.612C223.473 205.791 223.623 205.081 223.921 204.484C224.231 203.876 224.663 203.407 225.217 203.076C225.772 202.745 226.428 202.58 227.185 202.58C227.932 202.58 228.583 202.745 229.137 203.076C229.703 203.407 230.135 203.876 230.433 204.484C230.743 205.081 230.897 205.791 230.897 206.612C230.897 207.433 230.743 208.148 230.433 208.756C230.135 209.353 229.703 209.817 229.137 210.148C228.583 210.479 227.932 210.644 227.185 210.644ZM227.185 209.604C227.911 209.604 228.492 209.348 228.929 208.836C229.367 208.313 229.585 207.572 229.585 206.612C229.585 205.641 229.367 204.9 228.929 204.388C228.492 203.876 227.911 203.62 227.185 203.62C226.449 203.62 225.863 203.876 225.425 204.388C224.999 204.9 224.785 205.641 224.785 206.612C224.785 207.572 224.999 208.313 225.425 208.836C225.863 209.348 226.449 209.604 227.185 209.604ZM232.844 210.5V199.22H234.14V204.004C234.396 203.535 234.753 203.183 235.212 202.948C235.681 202.703 236.204 202.58 236.78 202.58C238.625 202.58 239.548 203.604 239.548 205.652V210.5H238.252V205.732C238.252 205.007 238.108 204.479 237.82 204.148C237.543 203.807 237.095 203.636 236.476 203.636C235.761 203.636 235.191 203.86 234.764 204.308C234.348 204.745 234.14 205.332 234.14 206.068V210.5H232.844ZM241.938 210.5V202.724H243.202V204.052C243.458 203.561 243.82 203.193 244.29 202.948C244.759 202.703 245.287 202.58 245.874 202.58C247.719 202.58 248.642 203.604 248.642 205.652V210.5H247.346V205.732C247.346 205.007 247.202 204.479 246.914 204.148C246.636 203.807 246.188 203.636 245.57 203.636C244.855 203.636 244.284 203.86 243.858 204.308C243.442 204.745 243.234 205.332 243.234 206.068V210.5H241.938ZM253.991 210.644C253.298 210.644 252.69 210.479 252.167 210.148C251.655 209.817 251.255 209.353 250.967 208.756C250.69 208.148 250.551 207.433 250.551 206.612C250.551 205.78 250.69 205.065 250.967 204.468C251.255 203.86 251.655 203.396 252.167 203.076C252.69 202.745 253.298 202.58 253.991 202.58C254.599 202.58 255.133 202.713 255.591 202.98C256.061 203.247 256.407 203.615 256.631 204.084V199.22H257.927V210.5H256.663V209.076C256.439 209.567 256.093 209.951 255.623 210.228C255.154 210.505 254.61 210.644 253.991 210.644ZM254.263 209.604C254.989 209.604 255.57 209.348 256.007 208.836C256.445 208.313 256.663 207.572 256.663 206.612C256.663 205.641 256.445 204.9 256.007 204.388C255.57 203.876 254.989 203.62 254.263 203.62C253.527 203.62 252.941 203.876 252.503 204.388C252.077 204.9 251.863 205.641 251.863 206.612C251.863 207.572 252.077 208.313 252.503 208.836C252.941 209.348 253.527 209.604 254.263 209.604ZM263.592 210.644C262.834 210.644 262.178 210.479 261.624 210.148C261.069 209.817 260.637 209.353 260.328 208.756C260.029 208.148 259.88 207.433 259.88 206.612C259.88 205.791 260.029 205.081 260.328 204.484C260.637 203.876 261.069 203.407 261.624 203.076C262.178 202.745 262.834 202.58 263.592 202.58C264.338 202.58 264.989 202.745 265.544 203.076C266.109 203.407 266.541 203.876 266.84 204.484C267.149 205.081 267.304 205.791 267.304 206.612C267.304 207.433 267.149 208.148 266.84 208.756C266.541 209.353 266.109 209.817 265.544 210.148C264.989 210.479 264.338 210.644 263.592 210.644ZM263.592 209.604C264.317 209.604 264.898 209.348 265.336 208.836C265.773 208.313 265.992 207.572 265.992 206.612C265.992 205.641 265.773 204.9 265.336 204.388C264.898 203.876 264.317 203.62 263.592 203.62C262.856 203.62 262.269 203.876 261.832 204.388C261.405 204.9 261.192 205.641 261.192 206.612C261.192 207.572 261.405 208.313 261.832 208.836C262.269 209.348 262.856 209.604 263.592 209.604ZM272.754 210.644C271.528 210.644 270.557 210.287 269.842 209.572C269.128 208.847 268.77 207.865 268.77 206.628C268.77 205.828 268.93 205.124 269.25 204.516C269.57 203.897 270.008 203.423 270.562 203.092C271.128 202.751 271.778 202.58 272.514 202.58C273.57 202.58 274.397 202.921 274.994 203.604C275.592 204.276 275.89 205.204 275.89 206.388V206.884H270.034C270.077 207.769 270.333 208.447 270.802 208.916C271.272 209.375 271.922 209.604 272.754 209.604C273.224 209.604 273.672 209.535 274.098 209.396C274.525 209.247 274.93 209.007 275.314 208.676L275.762 209.588C275.41 209.919 274.962 210.18 274.418 210.372C273.874 210.553 273.32 210.644 272.754 210.644ZM272.546 203.54C271.81 203.54 271.229 203.769 270.802 204.228C270.376 204.687 270.125 205.289 270.05 206.036H274.77C274.738 205.247 274.53 204.633 274.146 204.196C273.773 203.759 273.24 203.54 272.546 203.54ZM284.31 213.108C282.955 213.108 281.766 212.82 280.742 212.244C279.728 211.679 278.939 210.873 278.374 209.828C277.808 208.783 277.526 207.551 277.526 206.132C277.526 205.087 277.691 204.132 278.022 203.268C278.363 202.404 278.843 201.663 279.462 201.044C280.091 200.415 280.832 199.929 281.686 199.588C282.539 199.247 283.483 199.076 284.518 199.076C285.755 199.076 286.838 199.327 287.766 199.828C288.694 200.319 289.414 201.007 289.926 201.892C290.448 202.777 290.71 203.812 290.71 204.996C290.71 205.924 290.582 206.729 290.326 207.412C290.08 208.095 289.728 208.623 289.27 208.996C288.811 209.369 288.278 209.556 287.67 209.556C287.147 209.556 286.726 209.433 286.406 209.188C286.086 208.932 285.894 208.58 285.83 208.132C285.531 208.601 285.168 208.959 284.742 209.204C284.326 209.439 283.883 209.556 283.414 209.556C282.592 209.556 281.952 209.3 281.494 208.788C281.046 208.265 280.822 207.551 280.822 206.644C280.822 205.865 280.971 205.172 281.27 204.564C281.568 203.945 281.979 203.46 282.502 203.108C283.024 202.756 283.616 202.58 284.278 202.58C285.302 202.58 285.979 202.996 286.31 203.828L286.502 202.724H287.558L286.838 206.868C286.795 207.145 286.774 207.396 286.774 207.62C286.774 208.335 287.094 208.692 287.734 208.692C288.342 208.692 288.838 208.356 289.222 207.684C289.606 207.001 289.798 206.105 289.798 204.996C289.798 203.983 289.574 203.103 289.126 202.356C288.688 201.609 288.075 201.028 287.286 200.612C286.496 200.196 285.568 199.988 284.502 199.988C283.318 199.988 282.278 200.244 281.382 200.756C280.486 201.268 279.787 201.988 279.286 202.916C278.784 203.833 278.534 204.905 278.534 206.132C278.534 207.401 278.768 208.489 279.238 209.396C279.707 210.303 280.374 210.996 281.238 211.476C282.102 211.967 283.126 212.212 284.31 212.212C285.174 212.212 285.952 212.073 286.646 211.796C287.35 211.529 287.931 211.151 288.39 210.66L288.918 211.428C288.395 211.972 287.734 212.388 286.934 212.676C286.144 212.964 285.27 213.108 284.31 213.108ZM283.558 208.628C284.038 208.628 284.459 208.489 284.822 208.212C285.195 207.924 285.488 207.529 285.702 207.028C285.915 206.527 286.022 205.951 286.022 205.3C286.022 204.105 285.478 203.508 284.39 203.508C283.92 203.508 283.499 203.647 283.126 203.924C282.752 204.191 282.454 204.559 282.23 205.028C282.016 205.497 281.91 206.036 281.91 206.644C281.91 207.284 282.054 207.775 282.342 208.116C282.63 208.457 283.035 208.628 283.558 208.628ZM296.346 213.524C295.674 213.524 295.04 213.433 294.442 213.252C293.856 213.081 293.333 212.82 292.874 212.468L293.306 211.524C293.786 211.865 294.261 212.111 294.73 212.26C295.21 212.409 295.728 212.484 296.282 212.484C297.818 212.484 298.586 211.695 298.586 210.116V208.74C298.362 209.231 298.01 209.62 297.53 209.908C297.061 210.185 296.522 210.324 295.914 210.324C295.2 210.324 294.581 210.159 294.058 209.828C293.536 209.497 293.13 209.044 292.842 208.468C292.565 207.881 292.426 207.204 292.426 206.436C292.426 205.668 292.565 204.996 292.842 204.42C293.13 203.833 293.536 203.38 294.058 203.06C294.581 202.74 295.2 202.58 295.914 202.58C296.522 202.58 297.061 202.719 297.53 202.996C298.01 203.273 298.362 203.652 298.586 204.132V202.724H299.85V209.94C299.85 211.135 299.552 212.031 298.954 212.628C298.368 213.225 297.498 213.524 296.346 213.524ZM296.154 209.268C296.901 209.268 297.493 209.012 297.93 208.5C298.368 207.988 298.586 207.3 298.586 206.436C298.586 205.572 298.368 204.889 297.93 204.388C297.493 203.876 296.901 203.62 296.154 203.62C295.418 203.62 294.832 203.876 294.394 204.388C293.957 204.889 293.738 205.572 293.738 206.436C293.738 207.3 293.957 207.988 294.394 208.5C294.832 209.012 295.418 209.268 296.154 209.268ZM302.313 210.5V202.724H303.577V204.036C303.812 203.567 304.137 203.209 304.553 202.964C304.969 202.708 305.455 202.58 306.009 202.58C307.225 202.58 308.004 203.108 308.345 204.164C308.58 203.673 308.927 203.289 309.385 203.012C309.844 202.724 310.372 202.58 310.969 202.58C312.697 202.58 313.561 203.604 313.561 205.652V210.5H312.265V205.716C312.265 205.001 312.137 204.479 311.881 204.148C311.636 203.807 311.225 203.636 310.649 203.636C310.02 203.636 309.519 203.86 309.145 204.308C308.772 204.756 308.585 205.353 308.585 206.1V210.5H307.289V205.716C307.289 205.001 307.161 204.479 306.905 204.148C306.66 203.807 306.249 203.636 305.673 203.636C305.033 203.636 304.527 203.86 304.153 204.308C303.791 204.756 303.609 205.353 303.609 206.1V210.5H302.313ZM318.433 210.644C317.899 210.644 317.419 210.543 316.993 210.34C316.577 210.127 316.246 209.839 316.001 209.476C315.755 209.113 315.633 208.708 315.633 208.26C315.633 207.695 315.777 207.247 316.065 206.916C316.363 206.585 316.849 206.351 317.521 206.212C318.203 206.063 319.131 205.988 320.305 205.988H320.817V205.492C320.817 204.831 320.678 204.356 320.401 204.068C320.134 203.769 319.702 203.62 319.105 203.62C318.635 203.62 318.182 203.689 317.745 203.828C317.307 203.956 316.859 204.169 316.401 204.468L315.953 203.524C316.358 203.236 316.849 203.007 317.425 202.836C318.011 202.665 318.571 202.58 319.105 202.58C320.107 202.58 320.849 202.825 321.329 203.316C321.819 203.807 322.065 204.569 322.065 205.604V210.5H320.849V209.156C320.646 209.615 320.331 209.977 319.905 210.244C319.489 210.511 318.998 210.644 318.433 210.644ZM318.641 209.668C319.281 209.668 319.803 209.449 320.209 209.012C320.614 208.564 320.817 207.999 320.817 207.316V206.836H320.321C319.457 206.836 318.774 206.879 318.273 206.964C317.782 207.039 317.435 207.177 317.233 207.38C317.041 207.572 316.945 207.839 316.945 208.18C316.945 208.617 317.094 208.975 317.393 209.252C317.702 209.529 318.118 209.668 318.641 209.668ZM324.309 200.788V199.332H325.909V200.788H324.309ZM324.469 210.5V202.724H325.765V210.5H324.469ZM330.572 210.644C329.782 210.644 329.185 210.415 328.78 209.956C328.385 209.487 328.188 208.809 328.188 207.924V199.22H329.484V207.828C329.484 208.969 329.937 209.54 330.844 209.54C331.11 209.54 331.35 209.508 331.564 209.444L331.532 210.532C331.201 210.607 330.881 210.644 330.572 210.644ZM332.87 210.5V208.868H334.502V210.5H332.87ZM339.656 210.644C338.877 210.644 338.205 210.479 337.64 210.148C337.074 209.807 336.637 209.332 336.328 208.724C336.029 208.105 335.88 207.385 335.88 206.564C335.88 205.327 336.216 204.356 336.888 203.652C337.56 202.937 338.482 202.58 339.656 202.58C340.136 202.58 340.61 202.665 341.08 202.836C341.549 203.007 341.938 203.247 342.248 203.556L341.8 204.5C341.49 204.201 341.149 203.983 340.776 203.844C340.413 203.705 340.066 203.636 339.736 203.636C338.925 203.636 338.301 203.892 337.864 204.404C337.426 204.905 337.208 205.631 337.208 206.58C337.208 207.508 337.426 208.244 337.864 208.788C338.301 209.321 338.925 209.588 339.736 209.588C340.066 209.588 340.413 209.519 340.776 209.38C341.149 209.241 341.49 209.017 341.8 208.708L342.248 209.652C341.938 209.961 341.544 210.207 341.064 210.388C340.594 210.559 340.125 210.644 339.656 210.644ZM346.842 210.644C346.084 210.644 345.428 210.479 344.874 210.148C344.319 209.817 343.887 209.353 343.578 208.756C343.279 208.148 343.13 207.433 343.13 206.612C343.13 205.791 343.279 205.081 343.578 204.484C343.887 203.876 344.319 203.407 344.874 203.076C345.428 202.745 346.084 202.58 346.842 202.58C347.588 202.58 348.239 202.745 348.794 203.076C349.359 203.407 349.791 203.876 350.09 204.484C350.399 205.081 350.554 205.791 350.554 206.612C350.554 207.433 350.399 208.148 350.09 208.756C349.791 209.353 349.359 209.817 348.794 210.148C348.239 210.479 347.588 210.644 346.842 210.644ZM346.842 209.604C347.567 209.604 348.148 209.348 348.586 208.836C349.023 208.313 349.242 207.572 349.242 206.612C349.242 205.641 349.023 204.9 348.586 204.388C348.148 203.876 347.567 203.62 346.842 203.62C346.106 203.62 345.519 203.876 345.082 204.388C344.655 204.9 344.442 205.641 344.442 206.612C344.442 207.572 344.655 208.313 345.082 208.836C345.519 209.348 346.106 209.604 346.842 209.604ZM352.532 210.5V202.724H353.796V204.036C354.031 203.567 354.356 203.209 354.772 202.964C355.188 202.708 355.674 202.58 356.228 202.58C357.444 202.58 358.223 203.108 358.564 204.164C358.799 203.673 359.146 203.289 359.604 203.012C360.063 202.724 360.591 202.58 361.188 202.58C362.916 202.58 363.78 203.604 363.78 205.652V210.5H362.484V205.716C362.484 205.001 362.356 204.479 362.1 204.148C361.855 203.807 361.444 203.636 360.868 203.636C360.239 203.636 359.738 203.86 359.364 204.308C358.991 204.756 358.804 205.353 358.804 206.1V210.5H357.508V205.716C357.508 205.001 357.38 204.479 357.124 204.148C356.879 203.807 356.468 203.636 355.892 203.636C355.252 203.636 354.746 203.86 354.372 204.308C354.01 204.756 353.828 205.353 353.828 206.1V210.5H352.532Z" fill="var(--tx-secondary)"/><line x1="147" y1="255.5" x2="622" y2="255.5" stroke="var(--bg-tertiary)"/><path d="M153.102 297.625V309H150.766V297.625H153.102ZM156.602 297.625V299.461H147.32V297.625H156.602ZM156.078 304.859V304.695C156.078 304.076 156.167 303.505 156.344 302.984C156.521 302.458 156.779 302.003 157.117 301.617C157.456 301.232 157.872 300.932 158.367 300.719C158.862 300.5 159.43 300.391 160.07 300.391C160.711 300.391 161.281 300.5 161.781 300.719C162.281 300.932 162.701 301.232 163.039 301.617C163.383 302.003 163.643 302.458 163.82 302.984C163.997 303.505 164.086 304.076 164.086 304.695V304.859C164.086 305.474 163.997 306.044 163.82 306.57C163.643 307.091 163.383 307.547 163.039 307.938C162.701 308.323 162.284 308.622 161.789 308.836C161.294 309.049 160.727 309.156 160.086 309.156C159.445 309.156 158.875 309.049 158.375 308.836C157.88 308.622 157.461 308.323 157.117 307.938C156.779 307.547 156.521 307.091 156.344 306.57C156.167 306.044 156.078 305.474 156.078 304.859ZM158.328 304.695V304.859C158.328 305.214 158.359 305.544 158.422 305.852C158.484 306.159 158.583 306.43 158.719 306.664C158.859 306.893 159.042 307.073 159.266 307.203C159.49 307.333 159.763 307.398 160.086 307.398C160.398 307.398 160.667 307.333 160.891 307.203C161.115 307.073 161.294 306.893 161.43 306.664C161.565 306.43 161.664 306.159 161.727 305.852C161.794 305.544 161.828 305.214 161.828 304.859V304.695C161.828 304.352 161.794 304.029 161.727 303.727C161.664 303.419 161.562 303.148 161.422 302.914C161.286 302.674 161.107 302.487 160.883 302.352C160.659 302.216 160.388 302.148 160.07 302.148C159.753 302.148 159.482 302.216 159.258 302.352C159.039 302.487 158.859 302.674 158.719 302.914C158.583 303.148 158.484 303.419 158.422 303.727C158.359 304.029 158.328 304.352 158.328 304.695ZM165.555 307.914C165.555 307.581 165.669 307.302 165.898 307.078C166.133 306.854 166.443 306.742 166.828 306.742C167.214 306.742 167.521 306.854 167.75 307.078C167.984 307.302 168.102 307.581 168.102 307.914C168.102 308.247 167.984 308.526 167.75 308.75C167.521 308.974 167.214 309.086 166.828 309.086C166.443 309.086 166.133 308.974 165.898 308.75C165.669 308.526 165.555 308.247 165.555 307.914ZM165.555 301.469C165.555 301.135 165.669 300.857 165.898 300.633C166.133 300.409 166.443 300.297 166.828 300.297C167.214 300.297 167.521 300.409 167.75 300.633C167.984 300.857 168.102 301.135 168.102 301.469C168.102 301.802 167.984 302.081 167.75 302.305C167.521 302.529 167.214 302.641 166.828 302.641C166.443 302.641 166.133 302.529 165.898 302.305C165.669 302.081 165.555 301.802 165.555 301.469Z" fill="var(--tx-primary)"/><rect x="194" y="288" width="117" height="30" rx="6" fill="var(--bg-tertiary)"/><path d="M210.432 308L206.48 296.72H207.856L211.04 306.08L214.304 296.72H215.36L218.592 306.16L221.84 296.72H223.152L219.2 308H218.032L214.816 298.72L211.568 308H210.432ZM224.665 298.288V296.832H226.265V298.288H224.665ZM224.825 308V300.224H226.121V308H224.825ZM230.928 308.144C230.139 308.144 229.541 307.915 229.136 307.456C228.741 306.987 228.544 306.309 228.544 305.424V296.72H229.84V305.328C229.84 306.469 230.293 307.04 231.2 307.04C231.467 307.04 231.707 307.008 231.92 306.944L231.888 308.032C231.557 308.107 231.237 308.144 230.928 308.144ZM235.663 308.144C234.873 308.144 234.276 307.915 233.871 307.456C233.476 306.987 233.279 306.309 233.279 305.424V296.72H234.575V305.328C234.575 306.469 235.028 307.04 235.935 307.04C236.201 307.04 236.441 307.008 236.655 306.944L236.623 308.032C236.292 308.107 235.972 308.144 235.663 308.144ZM237.853 298.288V296.832H239.453V298.288H237.853ZM238.013 308V300.224H239.309V308H238.013ZM244.18 308.144C243.646 308.144 243.166 308.043 242.74 307.84C242.324 307.627 241.993 307.339 241.748 306.976C241.502 306.613 241.38 306.208 241.38 305.76C241.38 305.195 241.524 304.747 241.812 304.416C242.11 304.085 242.596 303.851 243.268 303.712C243.95 303.563 244.878 303.488 246.052 303.488H246.564V302.992C246.564 302.331 246.425 301.856 246.148 301.568C245.881 301.269 245.449 301.12 244.852 301.12C244.382 301.12 243.929 301.189 243.492 301.328C243.054 301.456 242.606 301.669 242.148 301.968L241.7 301.024C242.105 300.736 242.596 300.507 243.172 300.336C243.758 300.165 244.318 300.08 244.852 300.08C245.854 300.08 246.596 300.325 247.076 300.816C247.566 301.307 247.812 302.069 247.812 303.104V308H246.596V306.656C246.393 307.115 246.078 307.477 245.652 307.744C245.236 308.011 244.745 308.144 244.18 308.144ZM244.388 307.168C245.028 307.168 245.55 306.949 245.956 306.512C246.361 306.064 246.564 305.499 246.564 304.816V304.336H246.068C245.204 304.336 244.521 304.379 244.02 304.464C243.529 304.539 243.182 304.677 242.98 304.88C242.788 305.072 242.692 305.339 242.692 305.68C242.692 306.117 242.841 306.475 243.14 306.752C243.449 307.029 243.865 307.168 244.388 307.168ZM250.248 308V300.224H251.512V301.536C251.747 301.067 252.072 300.709 252.488 300.464C252.904 300.208 253.389 300.08 253.944 300.08C255.16 300.08 255.939 300.608 256.28 301.664C256.515 301.173 256.861 300.789 257.32 300.512C257.779 300.224 258.307 300.08 258.904 300.08C260.632 300.08 261.496 301.104 261.496 303.152V308H260.2V303.216C260.2 302.501 260.072 301.979 259.816 301.648C259.571 301.307 259.16 301.136 258.584 301.136C257.955 301.136 257.453 301.36 257.08 301.808C256.707 302.256 256.52 302.853 256.52 303.6V308H255.224V303.216C255.224 302.501 255.096 301.979 254.84 301.648C254.595 301.307 254.184 301.136 253.608 301.136C252.968 301.136 252.461 301.36 252.088 301.808C251.725 302.256 251.544 302.853 251.544 303.6V308H250.248Z" fill="var(--tx-primary)"/><g clip-path="url(#clip1_11_857)"><path d="M294.062 302.998L298.031 299.029C298.323 298.736 298.323 298.262 298.031 297.97C297.738 297.677 297.264 297.677 296.971 297.97L293.002 301.938L289.035 297.971C288.743 297.678 288.268 297.678 287.976 297.971C287.683 298.264 287.683 298.738 287.976 299.031L291.943 302.998L287.969 306.971C287.677 307.263 287.677 307.738 287.969 308.03C288.262 308.323 288.737 308.323 289.029 308.03L293.002 304.057L296.964 308.02C297.257 308.312 297.731 308.312 298.024 308.02C298.316 307.727 298.316 307.252 298.024 306.96L294.062 302.998H294.062Z" fill="var(--ic-secondary)"/></g><rect x="323" y="288" width="178" height="30" rx="6" fill="var(--bg-tertiary)"/><path d="M336.392 308V296.72H337.704V306.848H343.448V308H336.392ZM344.743 298.288V296.832H346.344V298.288H344.743ZM344.904 308V300.224H346.2V308H344.904ZM351.246 308.144C350.638 308.144 350.062 308.059 349.518 307.888C348.974 307.717 348.526 307.477 348.174 307.168L348.59 306.256C348.974 306.565 349.396 306.795 349.854 306.944C350.324 307.083 350.798 307.152 351.278 307.152C351.886 307.152 352.345 307.04 352.654 306.816C352.964 306.592 353.118 306.288 353.118 305.904C353.118 305.605 353.017 305.371 352.814 305.2C352.612 305.019 352.292 304.88 351.854 304.784L350.398 304.464C349.076 304.176 348.414 303.493 348.414 302.416C348.414 301.712 348.692 301.147 349.246 300.72C349.812 300.293 350.548 300.08 351.454 300.08C351.988 300.08 352.494 300.165 352.974 300.336C353.465 300.496 353.87 300.736 354.19 301.056L353.758 301.968C353.449 301.68 353.086 301.461 352.67 301.312C352.265 301.152 351.86 301.072 351.454 301.072C350.857 301.072 350.404 301.189 350.094 301.424C349.785 301.659 349.63 301.968 349.63 302.352C349.63 302.949 350.025 303.333 350.814 303.504L352.27 303.808C352.953 303.957 353.47 304.197 353.822 304.528C354.174 304.848 354.35 305.285 354.35 305.84C354.35 306.555 354.068 307.12 353.502 307.536C352.937 307.941 352.185 308.144 351.246 308.144ZM358.773 308.144C358.24 308.144 357.76 308.043 357.333 307.84C356.917 307.627 356.587 307.339 356.341 306.976C356.096 306.613 355.973 306.208 355.973 305.76C355.973 305.195 356.117 304.747 356.405 304.416C356.704 304.085 357.189 303.851 357.861 303.712C358.544 303.563 359.472 303.488 360.645 303.488H361.157V302.992C361.157 302.331 361.019 301.856 360.741 301.568C360.475 301.269 360.043 301.12 359.445 301.12C358.976 301.12 358.523 301.189 358.085 301.328C357.648 301.456 357.2 301.669 356.741 301.968L356.293 301.024C356.699 300.736 357.189 300.507 357.765 300.336C358.352 300.165 358.912 300.08 359.445 300.08C360.448 300.08 361.189 300.325 361.669 300.816C362.16 301.307 362.405 302.069 362.405 303.104V308H361.189V306.656C360.987 307.115 360.672 307.477 360.245 307.744C359.829 308.011 359.339 308.144 358.773 308.144ZM358.981 307.168C359.621 307.168 360.144 306.949 360.549 306.512C360.955 306.064 361.157 305.499 361.157 304.816V304.336H360.661C359.797 304.336 359.115 304.379 358.613 304.464C358.123 304.539 357.776 304.677 357.573 304.88C357.381 305.072 357.285 305.339 357.285 305.68C357.285 306.117 357.435 306.475 357.733 306.752C358.043 307.029 358.459 307.168 358.981 307.168ZM371.354 310.608C369.999 310.608 368.81 310.32 367.786 309.744C366.772 309.179 365.983 308.373 365.418 307.328C364.852 306.283 364.57 305.051 364.57 303.632C364.57 302.587 364.735 301.632 365.066 300.768C365.407 299.904 365.887 299.163 366.506 298.544C367.135 297.915 367.876 297.429 368.73 297.088C369.583 296.747 370.527 296.576 371.562 296.576C372.799 296.576 373.882 296.827 374.81 297.328C375.738 297.819 376.458 298.507 376.97 299.392C377.492 300.277 377.754 301.312 377.754 302.496C377.754 303.424 377.626 304.229 377.37 304.912C377.124 305.595 376.772 306.123 376.314 306.496C375.855 306.869 375.322 307.056 374.714 307.056C374.191 307.056 373.77 306.933 373.45 306.688C373.13 306.432 372.938 306.08 372.874 305.632C372.575 306.101 372.212 306.459 371.786 306.704C371.37 306.939 370.927 307.056 370.458 307.056C369.636 307.056 368.996 306.8 368.538 306.288C368.09 305.765 367.866 305.051 367.866 304.144C367.866 303.365 368.015 302.672 368.314 302.064C368.612 301.445 369.023 300.96 369.546 300.608C370.068 300.256 370.66 300.08 371.322 300.08C372.346 300.08 373.023 300.496 373.354 301.328L373.546 300.224H374.602L373.882 304.368C373.839 304.645 373.818 304.896 373.818 305.12C373.818 305.835 374.138 306.192 374.778 306.192C375.386 306.192 375.882 305.856 376.266 305.184C376.65 304.501 376.842 303.605 376.842 302.496C376.842 301.483 376.618 300.603 376.17 299.856C375.732 299.109 375.119 298.528 374.33 298.112C373.54 297.696 372.612 297.488 371.546 297.488C370.362 297.488 369.322 297.744 368.426 298.256C367.53 298.768 366.831 299.488 366.33 300.416C365.828 301.333 365.578 302.405 365.578 303.632C365.578 304.901 365.812 305.989 366.282 306.896C366.751 307.803 367.418 308.496 368.282 308.976C369.146 309.467 370.17 309.712 371.354 309.712C372.218 309.712 372.996 309.573 373.69 309.296C374.394 309.029 374.975 308.651 375.434 308.16L375.962 308.928C375.439 309.472 374.778 309.888 373.978 310.176C373.188 310.464 372.314 310.608 371.354 310.608ZM370.602 306.128C371.082 306.128 371.503 305.989 371.866 305.712C372.239 305.424 372.532 305.029 372.746 304.528C372.959 304.027 373.066 303.451 373.066 302.8C373.066 301.605 372.522 301.008 371.434 301.008C370.964 301.008 370.543 301.147 370.17 301.424C369.796 301.691 369.498 302.059 369.274 302.528C369.06 302.997 368.954 303.536 368.954 304.144C368.954 304.784 369.098 305.275 369.386 305.616C369.674 305.957 370.079 306.128 370.602 306.128ZM383.39 311.024C382.718 311.024 382.084 310.933 381.486 310.752C380.9 310.581 380.377 310.32 379.918 309.968L380.35 309.024C380.83 309.365 381.305 309.611 381.774 309.76C382.254 309.909 382.772 309.984 383.326 309.984C384.862 309.984 385.63 309.195 385.63 307.616V306.24C385.406 306.731 385.054 307.12 384.574 307.408C384.105 307.685 383.566 307.824 382.958 307.824C382.244 307.824 381.625 307.659 381.102 307.328C380.58 306.997 380.174 306.544 379.886 305.968C379.609 305.381 379.47 304.704 379.47 303.936C379.47 303.168 379.609 302.496 379.886 301.92C380.174 301.333 380.58 300.88 381.102 300.56C381.625 300.24 382.244 300.08 382.958 300.08C383.566 300.08 384.105 300.219 384.574 300.496C385.054 300.773 385.406 301.152 385.63 301.632V300.224H386.894V307.44C386.894 308.635 386.596 309.531 385.998 310.128C385.412 310.725 384.542 311.024 383.39 311.024ZM383.198 306.768C383.945 306.768 384.537 306.512 384.974 306C385.412 305.488 385.63 304.8 385.63 303.936C385.63 303.072 385.412 302.389 384.974 301.888C384.537 301.376 383.945 301.12 383.198 301.12C382.462 301.12 381.876 301.376 381.438 301.888C381.001 302.389 380.782 303.072 380.782 303.936C380.782 304.8 381.001 305.488 381.438 306C381.876 306.512 382.462 306.768 383.198 306.768ZM389.357 308V300.224H390.621V301.536C390.856 301.067 391.181 300.709 391.597 300.464C392.013 300.208 392.499 300.08 393.053 300.08C394.269 300.08 395.048 300.608 395.389 301.664C395.624 301.173 395.971 300.789 396.429 300.512C396.888 300.224 397.416 300.08 398.013 300.08C399.741 300.08 400.605 301.104 400.605 303.152V308H399.309V303.216C399.309 302.501 399.181 301.979 398.925 301.648C398.68 301.307 398.269 301.136 397.693 301.136C397.064 301.136 396.563 301.36 396.189 301.808C395.816 302.256 395.629 302.853 395.629 303.6V308H394.333V303.216C394.333 302.501 394.205 301.979 393.949 301.648C393.704 301.307 393.293 301.136 392.717 301.136C392.077 301.136 391.571 301.36 391.197 301.808C390.835 302.256 390.653 302.853 390.653 303.6V308H389.357ZM405.477 308.144C404.943 308.144 404.463 308.043 404.037 307.84C403.621 307.627 403.29 307.339 403.045 306.976C402.799 306.613 402.677 306.208 402.677 305.76C402.677 305.195 402.821 304.747 403.109 304.416C403.407 304.085 403.893 303.851 404.565 303.712C405.247 303.563 406.175 303.488 407.349 303.488H407.861V302.992C407.861 302.331 407.722 301.856 407.445 301.568C407.178 301.269 406.746 301.12 406.149 301.12C405.679 301.12 405.226 301.189 404.789 301.328C404.351 301.456 403.903 301.669 403.445 301.968L402.997 301.024C403.402 300.736 403.893 300.507 404.469 300.336C405.055 300.165 405.615 300.08 406.149 300.08C407.151 300.08 407.893 300.325 408.373 300.816C408.863 301.307 409.109 302.069 409.109 303.104V308H407.893V306.656C407.69 307.115 407.375 307.477 406.949 307.744C406.533 308.011 406.042 308.144 405.477 308.144ZM405.685 307.168C406.325 307.168 406.847 306.949 407.253 306.512C407.658 306.064 407.861 305.499 407.861 304.816V304.336H407.365C406.501 304.336 405.818 304.379 405.317 304.464C404.826 304.539 404.479 304.677 404.277 304.88C404.085 305.072 403.989 305.339 403.989 305.68C403.989 306.117 404.138 306.475 404.437 306.752C404.746 307.029 405.162 307.168 405.685 307.168ZM411.353 298.288V296.832H412.953V298.288H411.353ZM411.513 308V300.224H412.809V308H411.513ZM417.616 308.144C416.826 308.144 416.229 307.915 415.824 307.456C415.429 306.987 415.232 306.309 415.232 305.424V296.72H416.528V305.328C416.528 306.469 416.981 307.04 417.888 307.04C418.154 307.04 418.394 307.008 418.608 306.944L418.576 308.032C418.245 308.107 417.925 308.144 417.616 308.144ZM419.914 308V306.368H421.546V308H419.914ZM426.7 308.144C425.921 308.144 425.249 307.979 424.684 307.648C424.118 307.307 423.681 306.832 423.372 306.224C423.073 305.605 422.924 304.885 422.924 304.064C422.924 302.827 423.26 301.856 423.932 301.152C424.604 300.437 425.526 300.08 426.7 300.08C427.18 300.08 427.654 300.165 428.124 300.336C428.593 300.507 428.982 300.747 429.292 301.056L428.844 302C428.534 301.701 428.193 301.483 427.82 301.344C427.457 301.205 427.11 301.136 426.78 301.136C425.969 301.136 425.345 301.392 424.908 301.904C424.47 302.405 424.252 303.131 424.252 304.08C424.252 305.008 424.47 305.744 424.908 306.288C425.345 306.821 425.969 307.088 426.78 307.088C427.11 307.088 427.457 307.019 427.82 306.88C428.193 306.741 428.534 306.517 428.844 306.208L429.292 307.152C428.982 307.461 428.588 307.707 428.108 307.888C427.638 308.059 427.169 308.144 426.7 308.144ZM433.886 308.144C433.128 308.144 432.472 307.979 431.918 307.648C431.363 307.317 430.931 306.853 430.622 306.256C430.323 305.648 430.174 304.933 430.174 304.112C430.174 303.291 430.323 302.581 430.622 301.984C430.931 301.376 431.363 300.907 431.918 300.576C432.472 300.245 433.128 300.08 433.886 300.08C434.632 300.08 435.283 300.245 435.838 300.576C436.403 300.907 436.835 301.376 437.134 301.984C437.443 302.581 437.598 303.291 437.598 304.112C437.598 304.933 437.443 305.648 437.134 306.256C436.835 306.853 436.403 307.317 435.838 307.648C435.283 307.979 434.632 308.144 433.886 308.144ZM433.886 307.104C434.611 307.104 435.192 306.848 435.63 306.336C436.067 305.813 436.286 305.072 436.286 304.112C436.286 303.141 436.067 302.4 435.63 301.888C435.192 301.376 434.611 301.12 433.886 301.12C433.15 301.12 432.563 301.376 432.126 301.888C431.699 302.4 431.486 303.141 431.486 304.112C431.486 305.072 431.699 305.813 432.126 306.336C432.563 306.848 433.15 307.104 433.886 307.104ZM439.576 308V300.224H440.84V301.536C441.075 301.067 441.4 300.709 441.816 300.464C442.232 300.208 442.717 300.08 443.272 300.08C444.488 300.08 445.267 300.608 445.608 301.664C445.843 301.173 446.189 300.789 446.648 300.512C447.107 300.224 447.635 300.08 448.232 300.08C449.96 300.08 450.824 301.104 450.824 303.152V308H449.528V303.216C449.528 302.501 449.4 301.979 449.144 301.648C448.899 301.307 448.488 301.136 447.912 301.136C447.283 301.136 446.781 301.36 446.408 301.808C446.035 302.256 445.848 302.853 445.848 303.6V308H444.552V303.216C444.552 302.501 444.424 301.979 444.168 301.648C443.923 301.307 443.512 301.136 442.936 301.136C442.296 301.136 441.789 301.36 441.416 301.808C441.053 302.256 440.872 302.853 440.872 303.6V308H439.576Z" fill="var(--tx-primary)"/><g clip-path="url(#clip2_11_857)"><path d="M484.062 302.998L488.031 299.029C488.323 298.736 488.323 298.262 488.031 297.97C487.738 297.677 487.264 297.677 486.971 297.97L483.002 301.938L479.035 297.971C478.743 297.678 478.268 297.678 477.976 297.971C477.683 298.264 477.683 298.738 477.976 299.031L481.943 302.998L477.969 306.971C477.677 307.263 477.677 307.738 477.969 308.03C478.262 308.323 478.737 308.323 479.029 308.03L483.002 304.057L486.964 308.02C487.257 308.312 487.731 308.312 488.024 308.02C488.316 307.727 488.316 307.252 488.024 306.96L484.062 302.998H484.062Z" fill="var(--ic-secondary)"/></g><rect x="513" y="288" width="108" height="30" rx="6" fill="var(--bg-tertiary)"/><path d="M525.304 308L530.28 296.72H531.4L536.376 308H535.016L533.768 305.12H527.896L526.664 308H525.304ZM530.824 298.256L528.376 304.016H533.304L530.856 298.256H530.824ZM537.872 308V300.224H539.136V301.616C539.552 300.677 540.406 300.16 541.696 300.064L542.16 300.016L542.256 301.136L541.44 301.232C540.704 301.296 540.144 301.531 539.76 301.936C539.376 302.331 539.184 302.875 539.184 303.568V308H537.872ZM547.149 308.144C546.231 308.144 545.543 307.904 545.085 307.424C544.626 306.933 544.397 306.229 544.397 305.312V301.232H542.877V300.224H544.397V297.84H545.693V300.224H548.157V301.232H545.693V305.184C545.693 305.792 545.821 306.256 546.077 306.576C546.333 306.885 546.749 307.04 547.325 307.04C547.495 307.04 547.666 307.019 547.837 306.976C548.007 306.933 548.162 306.891 548.301 306.848L548.525 307.84C548.386 307.915 548.183 307.984 547.917 308.048C547.65 308.112 547.394 308.144 547.149 308.144ZM549.622 308V296.72H550.918V301.504C551.174 301.035 551.532 300.683 551.99 300.448C552.46 300.203 552.982 300.08 553.558 300.08C555.404 300.08 556.326 301.104 556.326 303.152V308H555.03V303.232C555.03 302.507 554.886 301.979 554.598 301.648C554.321 301.307 553.873 301.136 553.254 301.136C552.54 301.136 551.969 301.36 551.542 301.808C551.126 302.245 550.918 302.832 550.918 303.568V308H549.622ZM561.468 308.144C559.601 308.144 558.668 307.115 558.668 305.056V300.224H559.964V305.04C559.964 305.733 560.103 306.245 560.38 306.576C560.668 306.907 561.116 307.072 561.724 307.072C562.385 307.072 562.924 306.853 563.34 306.416C563.756 305.968 563.964 305.376 563.964 304.64V300.224H565.26V308H563.996V306.688C563.751 307.157 563.404 307.52 562.956 307.776C562.519 308.021 562.023 308.144 561.468 308.144ZM567.685 308V300.224H568.949V301.616C569.365 300.677 570.218 300.16 571.509 300.064L571.973 300.016L572.069 301.136L571.253 301.232C570.517 301.296 569.957 301.531 569.573 301.936C569.189 302.331 568.997 302.875 568.997 303.568V308H567.685Z" fill="var(--tx-primary)"/><g clip-path="url(#clip3_11_857)"><path d="M604.062 302.998L608.031 299.029C608.323 298.736 608.323 298.262 608.031 297.97C607.738 297.677 607.264 297.677 606.971 297.97L603.002 301.938L599.035 297.971C598.743 297.678 598.268 297.678 597.976 297.971C597.683 298.264 597.683 298.738 597.976 299.031L601.943 302.998L597.969 306.971C597.677 307.263 597.677 307.738 597.969 308.03C598.262 308.323 598.737 308.323 599.029 308.03L603.002 304.057L606.964 308.02C607.257 308.312 607.731 308.312 608.024 308.02C608.316 307.727 608.316 307.252 608.024 306.96L604.062 302.998H604.062Z" fill="var(--ic-secondary)"/></g><rect x="194" y="330" width="200" height="30" rx="6" fill="var(--bg-tertiary)"/><path d="M207.392 350V338.72H214.512V339.824H208.672V343.728H214.176V344.832H208.672V348.896H214.512V350H207.392ZM216.544 350V342.224H217.808V343.552C218.064 343.061 218.427 342.693 218.896 342.448C219.365 342.203 219.893 342.08 220.48 342.08C222.325 342.08 223.248 343.104 223.248 345.152V350H221.952V345.232C221.952 344.507 221.808 343.979 221.52 343.648C221.243 343.307 220.795 343.136 220.176 343.136C219.461 343.136 218.891 343.36 218.464 343.808C218.048 344.245 217.84 344.832 217.84 345.568V350H216.544ZM228.758 350.144C227.841 350.144 227.153 349.904 226.694 349.424C226.235 348.933 226.006 348.229 226.006 347.312V343.232H224.486V342.224H226.006V339.84H227.302V342.224H229.766V343.232H227.302V347.184C227.302 347.792 227.43 348.256 227.686 348.576C227.942 348.885 228.358 349.04 228.934 349.04C229.105 349.04 229.275 349.019 229.446 348.976C229.617 348.933 229.771 348.891 229.91 348.848L230.134 349.84C229.995 349.915 229.793 349.984 229.526 350.048C229.259 350.112 229.003 350.144 228.758 350.144ZM234.658 350.144C233.431 350.144 232.46 349.787 231.746 349.072C231.031 348.347 230.674 347.365 230.674 346.128C230.674 345.328 230.834 344.624 231.154 344.016C231.474 343.397 231.911 342.923 232.466 342.592C233.031 342.251 233.682 342.08 234.418 342.08C235.474 342.08 236.3 342.421 236.898 343.104C237.495 343.776 237.794 344.704 237.794 345.888V346.384H231.938C231.98 347.269 232.236 347.947 232.706 348.416C233.175 348.875 233.826 349.104 234.658 349.104C235.127 349.104 235.575 349.035 236.002 348.896C236.428 348.747 236.834 348.507 237.218 348.176L237.666 349.088C237.314 349.419 236.866 349.68 236.322 349.872C235.778 350.053 235.223 350.144 234.658 350.144ZM234.45 343.04C233.714 343.04 233.132 343.269 232.706 343.728C232.279 344.187 232.028 344.789 231.954 345.536H236.674C236.642 344.747 236.434 344.133 236.05 343.696C235.676 343.259 235.143 343.04 234.45 343.04ZM239.669 350V342.224H240.933V343.616C241.349 342.677 242.202 342.16 243.493 342.064L243.957 342.016L244.053 343.136L243.237 343.232C242.501 343.296 241.941 343.531 241.557 343.936C241.173 344.331 240.981 344.875 240.981 345.568V350H239.669ZM252.265 350.144C250.398 350.144 249.465 349.115 249.465 347.056V342.224H250.761V347.04C250.761 347.733 250.9 348.245 251.177 348.576C251.465 348.907 251.913 349.072 252.521 349.072C253.182 349.072 253.721 348.853 254.137 348.416C254.553 347.968 254.761 347.376 254.761 346.64V342.224H256.057V350H254.793V348.688C254.548 349.157 254.201 349.52 253.753 349.776C253.316 350.021 252.82 350.144 252.265 350.144ZM261.106 350.144C260.498 350.144 259.922 350.059 259.378 349.888C258.834 349.717 258.386 349.477 258.034 349.168L258.45 348.256C258.834 348.565 259.255 348.795 259.714 348.944C260.183 349.083 260.658 349.152 261.138 349.152C261.746 349.152 262.204 349.04 262.514 348.816C262.823 348.592 262.978 348.288 262.978 347.904C262.978 347.605 262.876 347.371 262.674 347.2C262.471 347.019 262.151 346.88 261.714 346.784L260.258 346.464C258.935 346.176 258.274 345.493 258.274 344.416C258.274 343.712 258.551 343.147 259.106 342.72C259.671 342.293 260.407 342.08 261.314 342.08C261.847 342.08 262.354 342.165 262.834 342.336C263.324 342.496 263.73 342.736 264.05 343.056L263.618 343.968C263.308 343.68 262.946 343.461 262.53 343.312C262.124 343.152 261.719 343.072 261.314 343.072C260.716 343.072 260.263 343.189 259.954 343.424C259.644 343.659 259.49 343.968 259.49 344.352C259.49 344.949 259.884 345.333 260.674 345.504L262.13 345.808C262.812 345.957 263.33 346.197 263.682 346.528C264.034 346.848 264.21 347.285 264.21 347.84C264.21 348.555 263.927 349.12 263.362 349.536C262.796 349.941 262.044 350.144 261.106 350.144ZM269.689 350.144C268.462 350.144 267.491 349.787 266.777 349.072C266.062 348.347 265.705 347.365 265.705 346.128C265.705 345.328 265.865 344.624 266.185 344.016C266.505 343.397 266.942 342.923 267.497 342.592C268.062 342.251 268.713 342.08 269.449 342.08C270.505 342.08 271.331 342.421 271.929 343.104C272.526 343.776 272.825 344.704 272.825 345.888V346.384H266.969C267.011 347.269 267.267 347.947 267.737 348.416C268.206 348.875 268.857 349.104 269.689 349.104C270.158 349.104 270.606 349.035 271.033 348.896C271.459 348.747 271.865 348.507 272.249 348.176L272.697 349.088C272.345 349.419 271.897 349.68 271.353 349.872C270.809 350.053 270.254 350.144 269.689 350.144ZM269.481 343.04C268.745 343.04 268.163 343.269 267.737 343.728C267.31 344.187 267.059 344.789 266.985 345.536H271.705C271.673 344.747 271.465 344.133 271.081 343.696C270.707 343.259 270.174 343.04 269.481 343.04ZM274.7 350V342.224H275.964V343.616C276.38 342.677 277.234 342.16 278.524 342.064L278.988 342.016L279.084 343.136L278.268 343.232C277.532 343.296 276.972 343.531 276.588 343.936C276.204 344.331 276.012 344.875 276.012 345.568V350H274.7ZM280.435 350V342.224H281.699V343.552C281.955 343.061 282.317 342.693 282.787 342.448C283.256 342.203 283.784 342.08 284.371 342.08C286.216 342.08 287.139 343.104 287.139 345.152V350H285.843V345.232C285.843 344.507 285.699 343.979 285.411 343.648C285.133 343.307 284.685 343.136 284.067 343.136C283.352 343.136 282.781 343.36 282.355 343.808C281.939 344.245 281.731 344.832 281.731 345.568V350H280.435ZM291.977 350.144C291.443 350.144 290.963 350.043 290.537 349.84C290.121 349.627 289.79 349.339 289.545 348.976C289.299 348.613 289.177 348.208 289.177 347.76C289.177 347.195 289.321 346.747 289.609 346.416C289.907 346.085 290.393 345.851 291.065 345.712C291.747 345.563 292.675 345.488 293.849 345.488H294.361V344.992C294.361 344.331 294.222 343.856 293.945 343.568C293.678 343.269 293.246 343.12 292.649 343.12C292.179 343.12 291.726 343.189 291.289 343.328C290.851 343.456 290.403 343.669 289.945 343.968L289.497 343.024C289.902 342.736 290.393 342.507 290.969 342.336C291.555 342.165 292.115 342.08 292.649 342.08C293.651 342.08 294.393 342.325 294.873 342.816C295.363 343.307 295.609 344.069 295.609 345.104V350H294.393V348.656C294.19 349.115 293.875 349.477 293.449 349.744C293.033 350.011 292.542 350.144 291.977 350.144ZM292.185 349.168C292.825 349.168 293.347 348.949 293.753 348.512C294.158 348.064 294.361 347.499 294.361 346.816V346.336H293.865C293.001 346.336 292.318 346.379 291.817 346.464C291.326 346.539 290.979 346.677 290.777 346.88C290.585 347.072 290.489 347.339 290.489 347.68C290.489 348.117 290.638 348.475 290.937 348.752C291.246 349.029 291.662 349.168 292.185 349.168ZM298.045 350V342.224H299.309V343.536C299.544 343.067 299.869 342.709 300.285 342.464C300.701 342.208 301.186 342.08 301.741 342.08C302.957 342.08 303.736 342.608 304.077 343.664C304.312 343.173 304.658 342.789 305.117 342.512C305.576 342.224 306.104 342.08 306.701 342.08C308.429 342.08 309.293 343.104 309.293 345.152V350H307.997V345.216C307.997 344.501 307.869 343.979 307.613 343.648C307.368 343.307 306.957 343.136 306.381 343.136C305.752 343.136 305.25 343.36 304.877 343.808C304.504 344.256 304.317 344.853 304.317 345.6V350H303.021V345.216C303.021 344.501 302.893 343.979 302.637 343.648C302.392 343.307 301.981 343.136 301.405 343.136C300.765 343.136 300.258 343.36 299.885 343.808C299.522 344.256 299.341 344.853 299.341 345.6V350H298.045ZM315.22 350.144C313.993 350.144 313.023 349.787 312.308 349.072C311.593 348.347 311.236 347.365 311.236 346.128C311.236 345.328 311.396 344.624 311.716 344.016C312.036 343.397 312.473 342.923 313.028 342.592C313.593 342.251 314.244 342.08 314.98 342.08C316.036 342.08 316.863 342.421 317.46 343.104C318.057 343.776 318.356 344.704 318.356 345.888V346.384H312.5C312.543 347.269 312.799 347.947 313.268 348.416C313.737 348.875 314.388 349.104 315.22 349.104C315.689 349.104 316.137 349.035 316.564 348.896C316.991 348.747 317.396 348.507 317.78 348.176L318.228 349.088C317.876 349.419 317.428 349.68 316.884 349.872C316.34 350.053 315.785 350.144 315.22 350.144ZM315.012 343.04C314.276 343.04 313.695 343.269 313.268 343.728C312.841 344.187 312.591 344.789 312.516 345.536H317.236C317.204 344.747 316.996 344.133 316.612 343.696C316.239 343.259 315.705 343.04 315.012 343.04ZM327.573 350.144C326.816 350.144 326.16 349.979 325.605 349.648C325.05 349.317 324.618 348.853 324.309 348.256C324.01 347.648 323.861 346.933 323.861 346.112C323.861 345.291 324.01 344.581 324.309 343.984C324.618 343.376 325.05 342.907 325.605 342.576C326.16 342.245 326.816 342.08 327.573 342.08C328.32 342.08 328.97 342.245 329.525 342.576C330.09 342.907 330.522 343.376 330.821 343.984C331.13 344.581 331.285 345.291 331.285 346.112C331.285 346.933 331.13 347.648 330.821 348.256C330.522 348.853 330.09 349.317 329.525 349.648C328.97 349.979 328.32 350.144 327.573 350.144ZM327.573 349.104C328.298 349.104 328.88 348.848 329.317 348.336C329.754 347.813 329.973 347.072 329.973 346.112C329.973 345.141 329.754 344.4 329.317 343.888C328.88 343.376 328.298 343.12 327.573 343.12C326.837 343.12 326.25 343.376 325.813 343.888C325.386 344.4 325.173 345.141 325.173 346.112C325.173 347.072 325.386 347.813 325.813 348.336C326.25 348.848 326.837 349.104 327.573 349.104ZM333.232 350V342.224H334.496V343.616C334.912 342.677 335.765 342.16 337.056 342.064L337.52 342.016L337.616 343.136L336.8 343.232C336.064 343.296 335.504 343.531 335.12 343.936C334.736 344.331 334.544 344.875 334.544 345.568V350H333.232ZM346.579 350.144C345.353 350.144 344.382 349.787 343.667 349.072C342.953 348.347 342.595 347.365 342.595 346.128C342.595 345.328 342.755 344.624 343.075 344.016C343.395 343.397 343.833 342.923 344.387 342.592C344.953 342.251 345.603 342.08 346.339 342.08C347.395 342.08 348.222 342.421 348.819 343.104C349.417 343.776 349.715 344.704 349.715 345.888V346.384H343.859C343.902 347.269 344.158 347.947 344.627 348.416C345.097 348.875 345.747 349.104 346.579 349.104C347.049 349.104 347.497 349.035 347.923 348.896C348.35 348.747 348.755 348.507 349.139 348.176L349.587 349.088C349.235 349.419 348.787 349.68 348.243 349.872C347.699 350.053 347.145 350.144 346.579 350.144ZM346.371 343.04C345.635 343.04 345.054 343.269 344.627 343.728C344.201 344.187 343.95 344.789 343.875 345.536H348.595C348.563 344.747 348.355 344.133 347.971 343.696C347.598 343.259 347.065 343.04 346.371 343.04ZM351.623 350V342.224H352.887V343.536C353.122 343.067 353.447 342.709 353.863 342.464C354.279 342.208 354.764 342.08 355.319 342.08C356.535 342.08 357.314 342.608 357.655 343.664C357.89 343.173 358.236 342.789 358.695 342.512C359.154 342.224 359.682 342.08 360.279 342.08C362.007 342.08 362.871 343.104 362.871 345.152V350H361.575V345.216C361.575 344.501 361.447 343.979 361.191 343.648C360.946 343.307 360.535 343.136 359.959 343.136C359.33 343.136 358.828 343.36 358.455 343.808C358.082 344.256 357.895 344.853 357.895 345.6V350H356.599V345.216C356.599 344.501 356.471 343.979 356.215 343.648C355.97 343.307 355.559 343.136 354.983 343.136C354.343 343.136 353.836 343.36 353.463 343.808C353.1 344.256 352.919 344.853 352.919 345.6V350H351.623ZM367.742 350.144C367.209 350.144 366.729 350.043 366.302 349.84C365.886 349.627 365.555 349.339 365.31 348.976C365.065 348.613 364.942 348.208 364.942 347.76C364.942 347.195 365.086 346.747 365.374 346.416C365.673 346.085 366.158 345.851 366.83 345.712C367.513 345.563 368.441 345.488 369.614 345.488H370.126V344.992C370.126 344.331 369.987 343.856 369.71 343.568C369.443 343.269 369.011 343.12 368.414 343.12C367.945 343.12 367.491 343.189 367.054 343.328C366.617 343.456 366.169 343.669 365.71 343.968L365.262 343.024C365.667 342.736 366.158 342.507 366.734 342.336C367.321 342.165 367.881 342.08 368.414 342.08C369.417 342.08 370.158 342.325 370.638 342.816C371.129 343.307 371.374 344.069 371.374 345.104V350H370.158V348.656C369.955 349.115 369.641 349.477 369.214 349.744C368.798 350.011 368.307 350.144 367.742 350.144ZM367.95 349.168C368.59 349.168 369.113 348.949 369.518 348.512C369.923 348.064 370.126 347.499 370.126 346.816V346.336H369.63C368.766 346.336 368.083 346.379 367.582 346.464C367.091 346.539 366.745 346.677 366.542 346.88C366.35 347.072 366.254 347.339 366.254 347.68C366.254 348.117 366.403 348.475 366.702 348.752C367.011 349.029 367.427 349.168 367.95 349.168ZM373.618 340.288V338.832H375.219V340.288H373.618ZM373.779 350V342.224H375.075V350H373.779ZM379.881 350.144C379.092 350.144 378.495 349.915 378.089 349.456C377.695 348.987 377.497 348.309 377.497 347.424V338.72H378.793V347.328C378.793 348.469 379.247 349.04 380.153 349.04C380.42 349.04 380.66 349.008 380.873 348.944L380.841 350.032C380.511 350.107 380.191 350.144 379.881 350.144Z" fill="var(--tx-primary)"/><rect x="147" y="392" width="475" height="38" rx="4" fill="var(--ac-primary-500)"/><path d="M367.62 416.16C366.735 416.16 365.913 416.048 365.156 415.824C364.399 415.589 363.759 415.275 363.236 414.88L363.86 413.264C364.383 413.637 364.953 413.925 365.572 414.128C366.201 414.331 366.884 414.432 367.62 414.432C368.463 414.432 369.076 414.293 369.46 414.016C369.844 413.728 370.036 413.36 370.036 412.912C370.036 412.539 369.897 412.245 369.62 412.032C369.353 411.819 368.889 411.643 368.228 411.504L366.468 411.136C364.463 410.709 363.46 409.68 363.46 408.048C363.46 407.344 363.647 406.731 364.02 406.208C364.393 405.685 364.911 405.28 365.572 404.992C366.233 404.704 366.996 404.56 367.86 404.56C368.628 404.56 369.348 404.677 370.02 404.912C370.692 405.136 371.252 405.456 371.7 405.872L371.076 407.408C370.191 406.661 369.113 406.288 367.844 406.288C367.108 406.288 366.532 406.443 366.116 406.752C365.7 407.061 365.492 407.467 365.492 407.968C365.492 408.352 365.62 408.661 365.876 408.896C366.132 409.12 366.569 409.296 367.188 409.424L368.932 409.792C369.988 410.016 370.772 410.368 371.284 410.848C371.807 411.328 372.068 411.968 372.068 412.768C372.068 413.44 371.887 414.032 371.524 414.544C371.161 415.056 370.644 415.456 369.972 415.744C369.311 416.021 368.527 416.16 367.62 416.16ZM373.634 416V404.72H375.634V409.312C375.9 408.885 376.258 408.565 376.706 408.352C377.154 408.128 377.65 408.016 378.194 408.016C380.039 408.016 380.962 409.088 380.962 411.232V416H378.962V411.328C378.962 410.72 378.844 410.277 378.61 410C378.386 409.723 378.034 409.584 377.554 409.584C376.967 409.584 376.498 409.771 376.146 410.144C375.804 410.507 375.634 410.992 375.634 411.6V416H373.634ZM385.569 416.16C385.004 416.16 384.497 416.053 384.049 415.84C383.612 415.616 383.265 415.317 383.009 414.944C382.764 414.571 382.641 414.149 382.641 413.68C382.641 413.104 382.79 412.651 383.089 412.32C383.388 411.979 383.873 411.733 384.545 411.584C385.217 411.435 386.118 411.36 387.249 411.36H387.809V411.024C387.809 410.491 387.692 410.107 387.457 409.872C387.222 409.637 386.828 409.52 386.273 409.52C385.836 409.52 385.388 409.589 384.929 409.728C384.47 409.856 384.006 410.059 383.537 410.336L382.961 408.976C383.238 408.784 383.564 408.619 383.937 408.48C384.321 408.331 384.721 408.219 385.137 408.144C385.564 408.059 385.964 408.016 386.337 408.016C387.478 408.016 388.326 408.283 388.881 408.816C389.436 409.339 389.713 410.155 389.713 411.264V416H387.841V414.752C387.66 415.189 387.372 415.536 386.977 415.792C386.582 416.037 386.113 416.16 385.569 416.16ZM385.985 414.784C386.508 414.784 386.94 414.603 387.281 414.24C387.633 413.877 387.809 413.419 387.809 412.864V412.512H387.265C386.262 412.512 385.564 412.592 385.169 412.752C384.785 412.901 384.593 413.179 384.593 413.584C384.593 413.936 384.716 414.224 384.961 414.448C385.206 414.672 385.548 414.784 385.985 414.784ZM391.743 416V408.176H393.695V409.552C394.079 408.624 394.9 408.112 396.159 408.016L396.767 407.968L396.895 409.664L395.743 409.776C394.431 409.904 393.775 410.576 393.775 411.792V416H391.743ZM401.74 416.16C400.854 416.16 400.092 415.995 399.452 415.664C398.812 415.333 398.316 414.864 397.964 414.256C397.622 413.648 397.452 412.928 397.452 412.096C397.452 411.285 397.617 410.576 397.948 409.968C398.289 409.36 398.753 408.885 399.34 408.544C399.937 408.192 400.614 408.016 401.372 408.016C402.481 408.016 403.356 408.368 403.996 409.072C404.646 409.776 404.972 410.736 404.972 411.952V412.544H399.372C399.521 413.941 400.321 414.64 401.772 414.64C402.209 414.64 402.646 414.576 403.084 414.448C403.521 414.309 403.921 414.096 404.284 413.808L404.844 415.152C404.47 415.461 404.001 415.707 403.436 415.888C402.87 416.069 402.305 416.16 401.74 416.16ZM401.452 409.376C400.865 409.376 400.39 409.557 400.028 409.92C399.665 410.283 399.446 410.773 399.372 411.392H403.308C403.265 410.741 403.084 410.245 402.764 409.904C402.454 409.552 402.017 409.376 401.452 409.376Z" fill="var(--white)"/></g><defs><filter id="filter0_d_11_857" x="105" y="130" width="555" height="342" filterUnits="userSpaceOnUse" color-interpolation-filters="sRGB"><feFlood flood-opacity="0" result="BackgroundImageFix"/><feColorMatrix in="SourceAlpha" type="matrix" values="0 0 0 0 0 0 0 0 0 0 0 0 0 0 0 0 0 0 127 0" result="hardAlpha"/><feOffset dx="-2" dy="2"/><feGaussianBlur stdDeviation="8"/><feComposite in2="hardAlpha" operator="out"/><feColorMatrix type="matrix" values="0 0 0 0 0 0 0 0 0 0 0 0 0 0 0 0 0 0 0.5 0"/><feBlend mode="normal" in2="BackgroundImageFix" result="effect1_dropShadow_11_857"/><feBlend mode="normal" in="SourceGraphic" in2="effect1_dropShadow_11_857" result="shape"/></filter><radialGradient id="paint0_radial_11_857" cx="0" cy="0" r="1" gradientUnits="userSpaceOnUse" gradientTransform="translate(173.555 195.761) rotate(-19.1) scale(5.04487 192.265)"><stop/><stop offset="1" stop-opacity="0"/></radialGradient><clipPath id="clip0_11_857"><rect width="99" height="10" fill="white" transform="translate(8 71)"/></clipPath><clipPath id="clip1_11_857"><rect width="12" height="12" fill="white" transform="translate(287 297)"/></clipPath><clipPath id="clip2_11_857"><rect width="12" height="12" fill="white" transform="translate(477 297)"/></clipPath><clipPath id="clip3_11_857"><rect width="12" height="12" fill="white" transform="translate(597 297)"/></clipPath></defs></svg>