<svg xmlns="http://www.w3.org/2000/svg" viewBox="0 0 857 784" fill="none"><g filter="url(#filter0_d_218_155)"><circle cx="228" cy="58" r="26" fill="var(--bg-tertiary)"/></g><g filter="url(#filter1_d_218_155)"><circle cx="222" cy="568" r="12" fill="var(--bg-tertiary)"/></g><g filter="url(#filter2_d_218_155)"><circle cx="306" cy="697" r="8" fill="var(--bg-tertiary)"/></g><g filter="url(#filter3_d_218_155)"><circle cx="67.5" cy="712.5" r="31.5" fill="var(--bg-tertiary)"/></g><g filter="url(#filter4_d_218_155)"><circle cx="565" cy="154" r="8" fill="var(--bg-tertiary)"/></g><g filter="url(#filter5_d_218_155)"><circle cx="386" cy="600" r="12" fill="var(--bg-tertiary)"/></g><g filter="url(#filter6_d_218_155)"><circle cx="666" cy="146" r="23" fill="var(--bg-tertiary)"/></g><g filter="url(#filter7_d_218_155)"><circle cx="773" cy="322" r="48" fill="var(--bg-secondary)"/></g><g filter="url(#filter8_d_218_155)"><g clip-path="url(#clip0_218_155)"><path d="M763.08 329.68V333.52C763.08 338.64 755.72 340.88 755.72 340.88C755.72 340.88 764.2 347.28 773 347.28C781.8 347.28 790.28 340.88 790.28 340.88C790.28 340.88 782.862 338.64 782.92 333.52C782.978 328.4 782.939 325.392 782.978 316.62C787.564 310.675 787.27 306.686 784.762 303.88C776.36 294.48 753.48 297.68 753.48 297.68C753.48 297.68 751.345 320.718 756.2 327.44C758.28 330.32 763.08 329.68 763.08 329.68Z" fill="url(#paint0_linear_218_155)"/><g style="mix-blend-mode:multiply"><path d="M763.08 329.68C770.12 328.88 774.28 325.84 774.28 325.84C771.653 329.726 767.651 332.47 763.08 333.52V329.68Z" fill="#FFDBC9"/></g><path d="M739.4 350.578C736.353 356.773 734.6 371.058 734.6 371.058H811.4C811.4 371.058 809.646 356.771 806.6 350.578C803.554 344.386 785.768 338.642 785.768 338.642C782.34 345.68 763.525 345.68 760.241 338.64C760.241 338.64 742.446 344.384 739.4 350.578Z" fill="url(#paint1_linear_218_155)"/><path d="M774.28 362.96C774.28 362.707 774.205 362.459 774.064 362.249C773.923 362.038 773.724 361.874 773.49 361.777C773.256 361.681 772.998 361.655 772.75 361.705C772.502 361.754 772.274 361.876 772.095 362.055C771.916 362.234 771.794 362.462 771.744 362.71C771.695 362.959 771.72 363.216 771.817 363.45C771.914 363.684 772.078 363.884 772.289 364.024C772.499 364.165 772.747 364.24 773 364.24C773.339 364.24 773.665 364.105 773.905 363.865C774.145 363.625 774.28 363.299 774.28 362.96ZM774.28 356.56C774.28 356.307 774.205 356.059 774.064 355.849C773.923 355.638 773.724 355.474 773.49 355.377C773.256 355.281 772.998 355.255 772.75 355.305C772.502 355.354 772.274 355.476 772.095 355.655C771.916 355.834 771.794 356.062 771.744 356.31C771.695 356.559 771.72 356.816 771.817 357.05C771.914 357.284 772.078 357.484 772.289 357.624C772.499 357.765 772.747 357.84 773 357.84C773.339 357.84 773.665 357.705 773.905 357.465C774.145 357.225 774.28 356.899 774.28 356.56ZM774.28 350.16C774.28 349.907 774.205 349.659 774.064 349.449C773.923 349.238 773.724 349.074 773.49 348.977C773.256 348.881 772.998 348.855 772.75 348.905C772.502 348.954 772.274 349.076 772.095 349.255C771.916 349.434 771.794 349.662 771.744 349.91C771.695 350.159 771.72 350.416 771.817 350.65C771.914 350.884 772.078 351.084 772.289 351.224C772.499 351.365 772.747 351.44 773 351.44C773.339 351.44 773.665 351.305 773.905 351.065C774.145 350.825 774.28 350.499 774.28 350.16V350.16Z" fill="white"/><path d="M779.03 307.027C780.048 306.153 781.284 305.564 783.032 306.473C787.176 308.624 784.04 316.88 780.36 316.88C779.4 316.88 778.923 319.895 783.197 322C783.197 318.64 788.317 310.32 788.765 302.745C793.917 300.826 792.637 293.151 789.1 293.151C789.664 286.114 778.397 282.48 774.034 286.518C769.597 281.2 758.397 283.92 757.721 288.534C750.019 284.423 744.957 296.24 752.168 300.827C755.135 302.715 762.077 303.434 772.097 303.434C773.61 303.434 774.457 303.81 774.034 305.68C773.215 309.304 775.116 311.587 779.03 307.027Z" fill="url(#paint2_linear_218_155)"/></g></g><g filter="url(#filter9_d_218_155)"><circle cx="610" cy="612" r="126" fill="var(--bg-secondary)"/></g><g filter="url(#filter10_d_218_155)"><g clip-path="url(#clip1_218_155)"><path d="M640.621 532.981C641.18 517.912 659.489 511.139 673.333 522.866C705.937 550.482 677.213 571.048 664.586 564.621C651.959 558.194 640.062 548.049 640.621 532.981Z" fill="url(#paint3_linear_218_155)"/><path d="M625.676 624.896C606.001 628.6 603.579 627.47 573.562 585.713C528.267 522.703 594.666 493.969 647.295 532.856C703.487 577.915 670.277 616.504 625.676 624.896Z" fill="url(#paint4_linear_218_155)"/><path d="M618.386 658.598C608.958 669.986 599.645 674.448 593.695 672.853C587.745 671.259 581.911 662.739 579.44 648.163L583.788 631.935C583.788 631.935 581.119 631.307 579.325 630.739C560.564 624.842 562.403 592.614 573.563 562.875C581.736 541.097 592.457 576.862 629.051 563.622C621.529 586.826 632.323 587.11 637.547 585.465C660.332 581.57 650.519 619.813 631.263 611.486C631.159 611.893 626.867 627.597 618.386 658.598Z" fill="url(#paint5_linear_218_155)"/><path d="M583.787 631.934C591.235 633.35 601.426 631.703 614.36 626.994C607.943 637.593 597.028 641.944 581.613 640.048L583.787 631.934Z" fill="#FF9768"/><path d="M571.466 651.085C571.466 651.085 574.955 642.96 578.02 643.006C581.084 643.051 597.885 647.459 597.03 650.709C596.871 651.304 595.738 657.841 597.652 658.354C599.565 658.867 601.767 652.613 601.929 652.021C602.814 648.78 619.461 653.374 622.245 654.856C625.028 656.337 623.866 665.136 623.866 665.136C623.866 665.136 662.152 697.507 664.404 707.55C666.341 716.185 664.606 734.562 659.197 762.681L492.053 717.895C501.429 690.839 509.114 674.056 515.11 667.546C522.08 659.979 571.466 651.085 571.466 651.085Z" fill="url(#paint6_linear_218_155)"/><path d="M579.578 712.552C579.75 711.911 580.109 711.334 580.608 710.896C581.108 710.458 581.726 710.178 582.385 710.091C583.044 710.004 583.714 710.115 584.31 710.409C584.906 710.702 585.401 711.167 585.733 711.742C586.066 712.318 586.22 712.979 586.176 713.642C586.133 714.305 585.894 714.94 585.489 715.467C585.085 715.995 584.533 716.39 583.904 716.604C583.274 716.817 582.596 716.84 581.954 716.668C581.093 716.437 580.359 715.874 579.914 715.102C579.468 714.33 579.347 713.413 579.578 712.552ZM583.926 696.325C584.098 695.683 584.457 695.106 584.956 694.668C585.456 694.23 586.074 693.95 586.733 693.863C587.392 693.777 588.062 693.887 588.658 694.181C589.254 694.475 589.749 694.939 590.082 695.515C590.414 696.09 590.568 696.751 590.525 697.414C590.481 698.077 590.242 698.713 589.837 699.24C589.433 699.767 588.881 700.163 588.252 700.376C587.623 700.59 586.944 700.612 586.302 700.44C585.441 700.209 584.707 699.646 584.262 698.875C583.816 698.103 583.696 697.186 583.926 696.325ZM588.274 680.097C588.446 679.455 588.805 678.879 589.305 678.441C589.804 678.003 590.422 677.722 591.081 677.636C591.74 677.549 592.41 677.66 593.006 677.953C593.602 678.247 594.097 678.711 594.43 679.287C594.762 679.862 594.916 680.524 594.873 681.187C594.829 681.85 594.59 682.485 594.186 683.012C593.781 683.54 593.229 683.935 592.6 684.149C591.971 684.362 591.292 684.384 590.65 684.212C589.79 683.982 589.056 683.419 588.61 682.647C588.165 681.875 588.044 680.958 588.274 680.097V680.097Z" fill="#664F4D"/><path d="M633.935 557.042C612.257 586.018 615.32 603.797 620.353 625.582C625.386 647.367 608.027 661.847 608.027 661.847C608.027 661.847 625.132 656.43 630.676 635.74C636.219 615.049 625.093 598.154 641.829 584.376C658.566 570.598 655.613 528.065 633.935 557.042Z" fill="url(#paint7_linear_218_155)"/></g></g><g filter="url(#filter11_d_218_155)"><circle cx="106" cy="441" r="54" fill="var(--bg-secondary)"/></g><g filter="url(#filter12_d_218_155)"><g clip-path="url(#clip2_218_155)"><path d="M114.705 453.023L112.655 460.673C112.452 461.43 100.71 460.741 100.71 460.741C100.71 460.741 90.1106 455.79 90.4001 454.71C90.948 452.665 93.7402 442.411 96.2526 432.868C92.9998 425.072 94.0816 421.035 99.1403 417.918C104.199 414.801 132.809 420.231 132.809 420.231C132.809 420.231 129.49 441.036 128.348 446.615C127.889 448.859 127.397 456.423 121.833 454.933L114.705 453.023Z" fill="url(#paint8_linear_218_155)"/><path d="M114.88 452.37L113.758 456.556C106.661 453.231 103.123 449.282 103.143 444.707C105.798 447.779 109.599 450.288 114.543 452.234C114.656 452.278 114.768 452.324 114.88 452.37Z" fill="#DE6530"/><path d="M133.818 483.23C134.822 488.308 134.573 496.193 133.071 506.882L49.6147 484.52C53.6589 474.51 57.3853 467.558 60.7939 463.663C64.1911 459.781 86.9008 456.641 86.9008 456.641L114.72 464.093C114.72 464.093 132.819 478.179 133.818 483.23Z" fill="url(#paint9_linear_218_155)"/><path d="M102.657 463.212L95.8238 495.669L87.4782 493.433L97.7889 461.907C97.7889 461.907 99.8777 460.603 100.689 460.821C101.5 461.038 102.657 463.212 102.657 463.212Z" fill="url(#paint10_linear_218_155)"/><path d="M101.274 469.78L96.7082 465.211L97.7888 461.907C99.1813 461.038 100.148 460.676 100.689 460.821C101.23 460.966 101.886 461.763 102.657 463.212L101.274 469.78Z" fill="#D24B24"/><path d="M100.69 460.818L95.5345 466.148L86.5251 456.653L90.8659 452.971L100.892 460.063L113.121 458.934L115.039 464.293L102.489 468.012L100.69 460.818Z" fill="white"/><path d="M103.574 423.655C102.722 422.409 101.55 421.41 99.3864 421.888C94.2571 423.019 94.8288 432.839 99.9149 434.013C101.67 434.419 99.9444 437.67 94.6862 438.714C95.6646 435.063 92.5234 424.531 94.2422 416.169C89.2022 412.584 92.8282 404.616 96.6717 405.646C98.1073 397.834 111.41 397.165 114.975 402.824C121.345 398.337 132.724 404.554 132.115 409.764C141.681 407.539 143.741 421.855 134.569 424.74C130.795 425.928 123.043 424.687 112.154 421.77C106.929 420.37 106.657 433.405 107.233 437.79C107.968 443.391 119.431 447.208 123.222 447.664C126.182 448.021 127.988 447.264 128.348 446.615C129.093 454.269 124.671 457.557 119.455 456.159C110.588 453.783 102.419 448.799 102.752 441.993C103.017 436.577 105.292 428.331 103.574 423.655Z" fill="url(#paint11_linear_218_155)"/></g></g><g filter="url(#filter13_d_218_155)"><circle cx="387" cy="358" r="166" fill="var(--bg-secondary)"/></g><g filter="url(#filter14_d_218_155)"><g clip-path="url(#clip3_218_155)"><path d="M357.444 423.154C367.029 407.218 389.033 376.672 441.426 333.751C520.486 268.983 445.869 209.742 365.709 241.294C357.134 244.669 333.371 231.156 311.359 245.392C297.16 254.576 302.686 261.773 297.157 268.97C291.629 276.168 270.313 275.744 265.644 294.432C262.878 305.504 270.531 317.102 269.507 325.435C268.484 333.769 260.405 341.281 260.019 352.282C259.852 356.929 260.603 361.563 262.227 365.919C263.851 370.276 266.318 374.27 269.486 377.673C272.654 381.076 276.462 383.822 280.691 385.753C284.921 387.685 289.489 388.764 294.136 388.93C294.174 398.116 297.76 406.931 304.146 413.535C310.532 420.138 319.223 424.018 328.403 424.363C334.289 424.578 340.135 423.312 345.405 420.68C350.633 425.499 355.122 427.014 357.444 423.154Z" fill="url(#paint12_linear_218_155)"/><path d="M377.04 237.373C363.41 246.116 346.548 274.79 353.95 313.281C355.564 321.679 350.519 324.194 346.203 313.834C333.181 282.581 331.671 254.395 353.95 240.913C357.823 238.581 360.036 240.47 362.803 240.241C368.065 239.805 375.15 236.076 377.04 237.373Z" fill="url(#paint13_linear_218_155)"/><path d="M359.333 406.693C359.333 396.733 358.995 347.606 359.011 346.776C331.667 350.807 332.22 298.793 359.887 311.52C365.973 315.393 383.127 311.52 381.467 279.427C411.347 311.52 446.037 274.088 449.012 304.59C453.075 346.24 448.988 389.827 423.104 389.83C420.272 389.796 417.449 389.514 414.667 388.987V406.693C414.667 417.76 434.587 423.293 434.587 423.293C434.587 423.293 400.178 455.719 385.893 455.539C371.609 455.36 339.413 423.293 339.413 423.293C339.413 423.293 359.333 417.76 359.333 406.693Z" fill="url(#paint14_linear_218_155)"/><g style="mix-blend-mode:multiply"><path d="M414.666 388.981C400.937 385.936 387.927 380.262 376.354 372.272C376.354 372.272 385.903 395.615 414.631 400.044L414.666 388.981Z" fill="#FFDBC9"/></g><path d="M488.813 456.493C496.842 474.335 500.987 528.427 500.987 528.427H273.013C273.013 528.427 277.158 474.335 285.187 456.493C292.221 440.864 338.571 422.918 352.154 417.76C359.997 426.534 371.237 432.147 387 432.147C402.763 432.147 414.003 426.534 421.846 417.76C435.429 422.918 481.779 440.864 488.813 456.493Z" fill="url(#paint15_linear_218_155)"/></g></g><g filter="url(#filter15_d_218_155)"><circle cx="429" cy="98" r="54" fill="var(--bg-secondary)"/></g><g filter="url(#filter16_d_218_155)"><g clip-path="url(#clip4_218_155)"><path d="M415.581 124.097C423.199 127.025 430.568 129.026 436.943 127.318C443.318 125.61 448.699 120.193 453.832 113.848C448.149 113.656 444.843 111.983 443.915 108.828C443.763 108.262 443.552 107.457 443.151 105.946C443.087 105.706 443.022 105.461 442.955 105.209C441.881 101.159 440.467 95.8129 439.038 90.3819C442.291 82.5867 438.43 75.5039 436.919 76.1112C435.067 76.8572 414.261 65.5607 410.863 65.6062C407.465 65.6517 400.081 70.4229 400.635 78.0545C401.189 85.6861 405.511 104.139 412.744 110.03C414.802 111.707 417.384 111.886 420.491 110.569C420.903 112.087 421.14 112.937 421.622 114.652C422.471 117.983 420.444 121.082 415.581 124.097Z" fill="url(#paint16_linear_218_155)"/><path d="M420.524 110.554C427.942 107.635 431.925 103.027 431.925 103.027C431.925 103.027 428.224 111.473 421.642 114.727L420.524 110.554Z" fill="#FC9F6A"/><path d="M441.614 89.809C442.466 83.4051 448.923 69.0976 438.69 64.0127C432.274 51.1965 417.307 56.816 407.887 62.6943C401.556 66.6451 397.463 72.196 395.512 69.3645C390.111 77.0293 395.115 81.77 400.136 82.17C404.692 82.5329 412.125 82.1255 423.716 77.5288C425.786 76.7075 427.093 83.3728 428.424 83.7745C430.422 84.377 429.963 77.3456 435.197 78.0914C440.432 78.8371 440.134 88.8775 435.092 90.2285C433.354 90.6944 433.765 95.7076 439.065 96.71C442.922 97.4716 441.06 93.9702 441.614 89.809Z" fill="url(#paint17_linear_218_155)"/><path d="M474.063 119.804C479.177 125.648 485.242 140.661 485.242 140.661L401.786 163.023C401.786 163.023 399.532 146.986 401.039 139.37C402.545 131.754 420.201 120.334 420.201 120.334C431.998 121.642 438.534 119.891 447.939 112.899C447.939 112.899 468.949 113.96 474.063 119.804Z" fill="url(#paint18_linear_218_155)"/><path d="M437.161 118.396L447.472 149.921L439.126 152.157L432.293 119.7C432.293 119.7 433.45 117.527 434.261 117.309C435.072 117.092 437.161 118.396 437.161 118.396Z" fill="url(#paint19_linear_218_155)"/><path d="M439.299 124.789L432.984 123.095L432.293 119.7C433.064 118.251 433.72 117.454 434.261 117.309C434.802 117.164 435.768 117.526 437.161 118.396L439.299 124.789L439.299 124.789Z" fill="#645050"/><path d="M434.26 117.306L432.461 124.5L419.91 120.782L421.829 115.422L434.058 116.551L444.084 109.459L448.425 113.141L439.415 122.637L434.26 117.306Z" fill="white"/></g></g><g filter="url(#filter17_d_218_155)"><circle cx="136" cy="180" r="54" fill="var(--bg-secondary)"/></g><g filter="url(#filter18_d_218_155)"><g clip-path="url(#clip5_218_155)"><path d="M111.674 190.059C106.343 181.446 100.313 165.896 109.24 151.764C116.062 140.963 140.327 133.557 153.738 149.531C155.977 152.197 155.313 157.494 151.442 158.346C149.92 158.679 150.265 163.692 150.188 166.881C154.62 178.551 165.522 175.868 173.479 183.561C183.288 193.045 179.415 211.973 159.42 217.33C139.425 222.688 123.529 209.209 111.674 190.059Z" fill="url(#paint20_linear_218_155)"/><path d="M112.208 219.173C110.962 224.724 114.439 242.8 114.439 242.8L186.072 223.606C186.072 223.606 180.045 206.213 176.191 202.028C170.409 195.751 139.727 193.909 139.727 193.909C139.727 193.909 114.076 210.845 112.208 219.173Z" fill="url(#paint21_linear_218_155)"/><path d="M132.5 200.318C132.5 200.318 137.591 201.563 141.675 200.469C145.758 199.374 149.191 195.846 149.191 195.846L147.141 188.196C148.057 188.099 148.961 187.914 149.841 187.642C158.182 185.406 158.071 172.413 152.485 158.066C151.442 158.345 149.007 158.998 144.226 155.061C146.912 161.609 136.548 163.268 131.279 158.903C134.915 164.824 131.038 170.521 125.992 169.078C116.099 166.248 118.36 182.351 127.095 180.15L132.5 200.318Z" fill="url(#paint22_linear_218_155)"/><path d="M147.141 188.196C142.615 188.557 138.06 188.071 133.712 186.762C133.712 186.762 140.062 193.074 147.886 190.978L147.141 188.196Z" fill="#FFB597"/><path d="M141.39 200.163C138.847 200.723 132.696 201.051 131.983 198.392L131.382 196.145C130.744 196.316 129.321 198.312 128.724 199.839C126.363 205.876 131.692 209.293 135.05 208.393C139.288 207.258 141.147 202.965 141.63 201.01C143.025 202.462 146.782 205.25 151.019 204.114C154.378 203.214 157.284 197.591 152.221 193.543C150.94 192.519 148.71 191.502 148.073 191.673L148.675 193.919C149.387 196.579 143.739 199.412 141.39 200.163Z" fill="white"/></g></g><defs><filter id="filter0_d_218_155" x="166" y="0" width="124" height="124" filterUnits="userSpaceOnUse" color-interpolation-filters="sRGB"><feFlood flood-opacity="0" result="BackgroundImageFix"/><feColorMatrix in="SourceAlpha" type="matrix" values="0 0 0 0 0 0 0 0 0 0 0 0 0 0 0 0 0 0 127 0" result="hardAlpha"/><feOffset dy="4"/><feGaussianBlur stdDeviation="18"/><feComposite in2="hardAlpha" operator="out"/><feColorMatrix type="matrix" values="0 0 0 0 0 0 0 0 0 0 0 0 0 0 0 0 0 0 0.2 0"/><feBlend mode="normal" in2="BackgroundImageFix" result="effect1_dropShadow_218_155"/><feBlend mode="normal" in="SourceGraphic" in2="effect1_dropShadow_218_155" result="shape"/></filter><filter id="filter1_d_218_155" x="174" y="524" width="96" height="96" filterUnits="userSpaceOnUse" color-interpolation-filters="sRGB"><feFlood flood-opacity="0" result="BackgroundImageFix"/><feColorMatrix in="SourceAlpha" type="matrix" values="0 0 0 0 0 0 0 0 0 0 0 0 0 0 0 0 0 0 127 0" result="hardAlpha"/><feOffset dy="4"/><feGaussianBlur stdDeviation="18"/><feComposite in2="hardAlpha" operator="out"/><feColorMatrix type="matrix" values="0 0 0 0 0 0 0 0 0 0 0 0 0 0 0 0 0 0 0.2 0"/><feBlend mode="normal" in2="BackgroundImageFix" result="effect1_dropShadow_218_155"/><feBlend mode="normal" in="SourceGraphic" in2="effect1_dropShadow_218_155" result="shape"/></filter><filter id="filter2_d_218_155" x="262" y="657" width="88" height="88" filterUnits="userSpaceOnUse" color-interpolation-filters="sRGB"><feFlood flood-opacity="0" result="BackgroundImageFix"/><feColorMatrix in="SourceAlpha" type="matrix" values="0 0 0 0 0 0 0 0 0 0 0 0 0 0 0 0 0 0 127 0" result="hardAlpha"/><feOffset dy="4"/><feGaussianBlur stdDeviation="18"/><feComposite in2="hardAlpha" operator="out"/><feColorMatrix type="matrix" values="0 0 0 0 0 0 0 0 0 0 0 0 0 0 0 0 0 0 0.2 0"/><feBlend mode="normal" in2="BackgroundImageFix" result="effect1_dropShadow_218_155"/><feBlend mode="normal" in="SourceGraphic" in2="effect1_dropShadow_218_155" result="shape"/></filter><filter id="filter3_d_218_155" x="0" y="649" width="135" height="135" filterUnits="userSpaceOnUse" color-interpolation-filters="sRGB"><feFlood flood-opacity="0" result="BackgroundImageFix"/><feColorMatrix in="SourceAlpha" type="matrix" values="0 0 0 0 0 0 0 0 0 0 0 0 0 0 0 0 0 0 127 0" result="hardAlpha"/><feOffset dy="4"/><feGaussianBlur stdDeviation="18"/><feComposite in2="hardAlpha" operator="out"/><feColorMatrix type="matrix" values="0 0 0 0 0 0 0 0 0 0 0 0 0 0 0 0 0 0 0.2 0"/><feBlend mode="normal" in2="BackgroundImageFix" result="effect1_dropShadow_218_155"/><feBlend mode="normal" in="SourceGraphic" in2="effect1_dropShadow_218_155" result="shape"/></filter><filter id="filter4_d_218_155" x="521" y="114" width="88" height="88" filterUnits="userSpaceOnUse" color-interpolation-filters="sRGB"><feFlood flood-opacity="0" result="BackgroundImageFix"/><feColorMatrix in="SourceAlpha" type="matrix" values="0 0 0 0 0 0 0 0 0 0 0 0 0 0 0 0 0 0 127 0" result="hardAlpha"/><feOffset dy="4"/><feGaussianBlur stdDeviation="18"/><feComposite in2="hardAlpha" operator="out"/><feColorMatrix type="matrix" values="0 0 0 0 0 0 0 0 0 0 0 0 0 0 0 0 0 0 0.2 0"/><feBlend mode="normal" in2="BackgroundImageFix" result="effect1_dropShadow_218_155"/><feBlend mode="normal" in="SourceGraphic" in2="effect1_dropShadow_218_155" result="shape"/></filter><filter id="filter5_d_218_155" x="338" y="556" width="96" height="96" filterUnits="userSpaceOnUse" color-interpolation-filters="sRGB"><feFlood flood-opacity="0" result="BackgroundImageFix"/><feColorMatrix in="SourceAlpha" type="matrix" values="0 0 0 0 0 0 0 0 0 0 0 0 0 0 0 0 0 0 127 0" result="hardAlpha"/><feOffset dy="4"/><feGaussianBlur stdDeviation="18"/><feComposite in2="hardAlpha" operator="out"/><feColorMatrix type="matrix" values="0 0 0 0 0 0 0 0 0 0 0 0 0 0 0 0 0 0 0.2 0"/><feBlend mode="normal" in2="BackgroundImageFix" result="effect1_dropShadow_218_155"/><feBlend mode="normal" in="SourceGraphic" in2="effect1_dropShadow_218_155" result="shape"/></filter><filter id="filter6_d_218_155" x="607" y="91" width="118" height="118" filterUnits="userSpaceOnUse" color-interpolation-filters="sRGB"><feFlood flood-opacity="0" result="BackgroundImageFix"/><feColorMatrix in="SourceAlpha" type="matrix" values="0 0 0 0 0 0 0 0 0 0 0 0 0 0 0 0 0 0 127 0" result="hardAlpha"/><feOffset dy="4"/><feGaussianBlur stdDeviation="18"/><feComposite in2="hardAlpha" operator="out"/><feColorMatrix type="matrix" values="0 0 0 0 0 0 0 0 0 0 0 0 0 0 0 0 0 0 0.2 0"/><feBlend mode="normal" in2="BackgroundImageFix" result="effect1_dropShadow_218_155"/><feBlend mode="normal" in="SourceGraphic" in2="effect1_dropShadow_218_155" result="shape"/></filter><filter id="filter7_d_218_155" x="689" y="242" width="168" height="168" filterUnits="userSpaceOnUse" color-interpolation-filters="sRGB"><feFlood flood-opacity="0" result="BackgroundImageFix"/><feColorMatrix in="SourceAlpha" type="matrix" values="0 0 0 0 0 0 0 0 0 0 0 0 0 0 0 0 0 0 127 0" result="hardAlpha"/><feOffset dy="4"/><feGaussianBlur stdDeviation="18"/><feComposite in2="hardAlpha" operator="out"/><feColorMatrix type="matrix" values="0 0 0 0 0 0 0 0 0 0 0 0 0 0 0 0 0 0 0.2 0"/><feBlend mode="normal" in2="BackgroundImageFix" result="effect1_dropShadow_218_155"/><feBlend mode="normal" in="SourceGraphic" in2="effect1_dropShadow_218_155" result="shape"/></filter><filter id="filter8_d_218_155" x="715" y="264" width="116" height="116" filterUnits="userSpaceOnUse" color-interpolation-filters="sRGB"><feFlood flood-opacity="0" result="BackgroundImageFix"/><feColorMatrix in="SourceAlpha" type="matrix" values="0 0 0 0 0 0 0 0 0 0 0 0 0 0 0 0 0 0 127 0" result="hardAlpha"/><feOffset/><feGaussianBlur stdDeviation="5"/><feColorMatrix type="matrix" values="0 0 0 0 0 0 0 0 0 0 0 0 0 0 0 0 0 0 0.25 0"/><feBlend mode="normal" in2="BackgroundImageFix" result="effect1_dropShadow_218_155"/><feBlend mode="normal" in="SourceGraphic" in2="effect1_dropShadow_218_155" result="shape"/></filter><filter id="filter9_d_218_155" x="448" y="454" width="324" height="324" filterUnits="userSpaceOnUse" color-interpolation-filters="sRGB"><feFlood flood-opacity="0" result="BackgroundImageFix"/><feColorMatrix in="SourceAlpha" type="matrix" values="0 0 0 0 0 0 0 0 0 0 0 0 0 0 0 0 0 0 127 0" result="hardAlpha"/><feOffset dy="4"/><feGaussianBlur stdDeviation="18"/><feComposite in2="hardAlpha" operator="out"/><feColorMatrix type="matrix" values="0 0 0 0 0 0 0 0 0 0 0 0 0 0 0 0 0 0 0.2 0"/><feBlend mode="normal" in2="BackgroundImageFix" result="effect1_dropShadow_218_155"/><feBlend mode="normal" in="SourceGraphic" in2="effect1_dropShadow_218_155" result="shape"/></filter><filter id="filter10_d_218_155" x="445.682" y="447.682" width="328.635" height="328.636" filterUnits="userSpaceOnUse" color-interpolation-filters="sRGB"><feFlood flood-opacity="0" result="BackgroundImageFix"/><feColorMatrix in="SourceAlpha" type="matrix" values="0 0 0 0 0 0 0 0 0 0 0 0 0 0 0 0 0 0 127 0" result="hardAlpha"/><feOffset/><feGaussianBlur stdDeviation="5"/><feColorMatrix type="matrix" values="0 0 0 0 0 0 0 0 0 0 0 0 0 0 0 0 0 0 0.25 0"/><feBlend mode="normal" in2="BackgroundImageFix" result="effect1_dropShadow_218_155"/><feBlend mode="normal" in="SourceGraphic" in2="effect1_dropShadow_218_155" result="shape"/></filter><filter id="filter11_d_218_155" x="16" y="355" width="180" height="180" filterUnits="userSpaceOnUse" color-interpolation-filters="sRGB"><feFlood flood-opacity="0" result="BackgroundImageFix"/><feColorMatrix in="SourceAlpha" type="matrix" values="0 0 0 0 0 0 0 0 0 0 0 0 0 0 0 0 0 0 127 0" result="hardAlpha"/><feOffset dy="4"/><feGaussianBlur stdDeviation="18"/><feComposite in2="hardAlpha" operator="out"/><feColorMatrix type="matrix" values="0 0 0 0 0 0 0 0 0 0 0 0 0 0 0 0 0 0 0.2 0"/><feBlend mode="normal" in2="BackgroundImageFix" result="effect1_dropShadow_218_155"/><feBlend mode="normal" in="SourceGraphic" in2="effect1_dropShadow_218_155" result="shape"/></filter><filter id="filter12_d_218_155" x="29.8638" y="364.864" width="152.272" height="152.272" filterUnits="userSpaceOnUse" color-interpolation-filters="sRGB"><feFlood flood-opacity="0" result="BackgroundImageFix"/><feColorMatrix in="SourceAlpha" type="matrix" values="0 0 0 0 0 0 0 0 0 0 0 0 0 0 0 0 0 0 127 0" result="hardAlpha"/><feOffset/><feGaussianBlur stdDeviation="5"/><feColorMatrix type="matrix" values="0 0 0 0 0 0 0 0 0 0 0 0 0 0 0 0 0 0 0.25 0"/><feBlend mode="normal" in2="BackgroundImageFix" result="effect1_dropShadow_218_155"/><feBlend mode="normal" in="SourceGraphic" in2="effect1_dropShadow_218_155" result="shape"/></filter><filter id="filter13_d_218_155" x="185" y="160" width="404" height="404" filterUnits="userSpaceOnUse" color-interpolation-filters="sRGB"><feFlood flood-opacity="0" result="BackgroundImageFix"/><feColorMatrix in="SourceAlpha" type="matrix" values="0 0 0 0 0 0 0 0 0 0 0 0 0 0 0 0 0 0 127 0" result="hardAlpha"/><feOffset dy="4"/><feGaussianBlur stdDeviation="18"/><feComposite in2="hardAlpha" operator="out"/><feColorMatrix type="matrix" values="0 0 0 0 0 0 0 0 0 0 0 0 0 0 0 0 0 0 0.2 0"/><feBlend mode="normal" in2="BackgroundImageFix" result="effect1_dropShadow_218_155"/><feBlend mode="normal" in="SourceGraphic" in2="effect1_dropShadow_218_155" result="shape"/></filter><filter id="filter14_d_218_155" x="211" y="182" width="352" height="352" filterUnits="userSpaceOnUse" color-interpolation-filters="sRGB"><feFlood flood-opacity="0" result="BackgroundImageFix"/><feColorMatrix in="SourceAlpha" type="matrix" values="0 0 0 0 0 0 0 0 0 0 0 0 0 0 0 0 0 0 127 0" result="hardAlpha"/><feOffset/><feGaussianBlur stdDeviation="5"/><feColorMatrix type="matrix" values="0 0 0 0 0 0 0 0 0 0 0 0 0 0 0 0 0 0 0.25 0"/><feBlend mode="normal" in2="BackgroundImageFix" result="effect1_dropShadow_218_155"/><feBlend mode="normal" in="SourceGraphic" in2="effect1_dropShadow_218_155" result="shape"/></filter><filter id="filter15_d_218_155" x="339" y="12" width="180" height="180" filterUnits="userSpaceOnUse" color-interpolation-filters="sRGB"><feFlood flood-opacity="0" result="BackgroundImageFix"/><feColorMatrix in="SourceAlpha" type="matrix" values="0 0 0 0 0 0 0 0 0 0 0 0 0 0 0 0 0 0 127 0" result="hardAlpha"/><feOffset dy="4"/><feGaussianBlur stdDeviation="18"/><feComposite in2="hardAlpha" operator="out"/><feColorMatrix type="matrix" values="0 0 0 0 0 0 0 0 0 0 0 0 0 0 0 0 0 0 0.2 0"/><feBlend mode="normal" in2="BackgroundImageFix" result="effect1_dropShadow_218_155"/><feBlend mode="normal" in="SourceGraphic" in2="effect1_dropShadow_218_155" result="shape"/></filter><filter id="filter16_d_218_155" x="353" y="22.0475" width="152.272" height="152.272" filterUnits="userSpaceOnUse" color-interpolation-filters="sRGB"><feFlood flood-opacity="0" result="BackgroundImageFix"/><feColorMatrix in="SourceAlpha" type="matrix" values="0 0 0 0 0 0 0 0 0 0 0 0 0 0 0 0 0 0 127 0" result="hardAlpha"/><feOffset/><feGaussianBlur stdDeviation="5"/><feColorMatrix type="matrix" values="0 0 0 0 0 0 0 0 0 0 0 0 0 0 0 0 0 0 0.25 0"/><feBlend mode="normal" in2="BackgroundImageFix" result="effect1_dropShadow_218_155"/><feBlend mode="normal" in="SourceGraphic" in2="effect1_dropShadow_218_155" result="shape"/></filter><filter id="filter17_d_218_155" x="46" y="94" width="180" height="180" filterUnits="userSpaceOnUse" color-interpolation-filters="sRGB"><feFlood flood-opacity="0" result="BackgroundImageFix"/><feColorMatrix in="SourceAlpha" type="matrix" values="0 0 0 0 0 0 0 0 0 0 0 0 0 0 0 0 0 0 127 0" result="hardAlpha"/><feOffset dy="4"/><feGaussianBlur stdDeviation="18"/><feComposite in2="hardAlpha" operator="out"/><feColorMatrix type="matrix" values="0 0 0 0 0 0 0 0 0 0 0 0 0 0 0 0 0 0 0.2 0"/><feBlend mode="normal" in2="BackgroundImageFix" result="effect1_dropShadow_218_155"/><feBlend mode="normal" in="SourceGraphic" in2="effect1_dropShadow_218_155" result="shape"/></filter><filter id="filter18_d_218_155" x="59.8638" y="103.864" width="152.272" height="152.272" filterUnits="userSpaceOnUse" color-interpolation-filters="sRGB"><feFlood flood-opacity="0" result="BackgroundImageFix"/><feColorMatrix in="SourceAlpha" type="matrix" values="0 0 0 0 0 0 0 0 0 0 0 0 0 0 0 0 0 0 127 0" result="hardAlpha"/><feOffset/><feGaussianBlur stdDeviation="5"/><feColorMatrix type="matrix" values="0 0 0 0 0 0 0 0 0 0 0 0 0 0 0 0 0 0 0.25 0"/><feBlend mode="normal" in2="BackgroundImageFix" result="effect1_dropShadow_218_155"/><feBlend mode="normal" in="SourceGraphic" in2="effect1_dropShadow_218_155" result="shape"/></filter><linearGradient id="paint0_linear_218_155" x1="771.646" y1="297.155" x2="771.646" y2="347.28" gradientUnits="userSpaceOnUse"><stop stop-color="#FFD4B3"/><stop offset="1" stop-color="#FFDCC2"/></linearGradient><linearGradient id="paint1_linear_218_155" x1="773" y1="338.64" x2="773" y2="371.058" gradientUnits="userSpaceOnUse"><stop stop-color="#806A6A"/><stop offset="1" stop-color="#665654"/></linearGradient><linearGradient id="paint2_linear_218_155" x1="770.445" y1="322" x2="770.445" y2="283.599" gradientUnits="userSpaceOnUse"><stop stop-color="#E6864E"/><stop offset="1" stop-color="#E67240"/></linearGradient><linearGradient id="paint3_linear_218_155" x1="670.17" y1="519.414" x2="658.437" y2="563.201" gradientUnits="userSpaceOnUse"><stop stop-color="#1D0024"/><stop offset="1" stop-color="#100014"/></linearGradient><linearGradient id="paint4_linear_218_155" x1="629.087" y1="521.113" x2="601.676" y2="623.409" gradientUnits="userSpaceOnUse"><stop stop-color="#1D0024"/><stop offset="1" stop-color="#100014"/></linearGradient><linearGradient id="paint5_linear_218_155" x1="617.14" y1="560.431" x2="587.464" y2="671.184" gradientUnits="userSpaceOnUse"><stop stop-color="#F7B186"/><stop offset="1" stop-color="#FFC299"/></linearGradient><linearGradient id="paint6_linear_218_155" x1="575.625" y1="740.288" x2="600.216" y2="648.512" gradientUnits="userSpaceOnUse"><stop stop-color="#FCF2EB"/><stop offset="1" stop-color="#FFF9F5"/></linearGradient><linearGradient id="paint7_linear_218_155" x1="643.295" y1="546.133" x2="612.004" y2="662.913" gradientUnits="userSpaceOnUse"><stop stop-color="#1D0024"/><stop offset="1" stop-color="#100014"/></linearGradient><linearGradient id="paint8_linear_218_155" x1="116.743" y1="415.926" x2="104.465" y2="461.747" gradientUnits="userSpaceOnUse"><stop stop-color="#E6864E"/><stop offset="1" stop-color="#EB965E"/></linearGradient><linearGradient id="paint9_linear_218_155" x1="100.811" y1="460.366" x2="91.3427" y2="495.701" gradientUnits="userSpaceOnUse"><stop stop-color="#130027"/><stop offset="1" stop-color="#130017"/></linearGradient><linearGradient id="paint10_linear_218_155" x1="91.651" y1="494.551" x2="100.689" y2="460.821" gradientUnits="userSpaceOnUse"><stop stop-color="#E6864E"/><stop offset="1" stop-color="#E67240"/></linearGradient><linearGradient id="paint11_linear_218_155" x1="119.724" y1="400.697" x2="105.841" y2="452.511" gradientUnits="userSpaceOnUse"><stop stop-color="#130027"/><stop offset="1" stop-color="#130017"/></linearGradient><linearGradient id="paint12_linear_218_155" x1="363.712" y1="425.689" x2="370.529" y2="231.111" gradientUnits="userSpaceOnUse"><stop stop-color="#E6864E"/><stop offset="1" stop-color="#E67240"/></linearGradient><linearGradient id="paint13_linear_218_155" x1="356.887" y1="237.101" x2="356.887" y2="320.638" gradientUnits="userSpaceOnUse"><stop stop-color="#1D0024"/><stop offset="1" stop-color="#100014"/></linearGradient><linearGradient id="paint14_linear_218_155" x1="394.592" y1="279.427" x2="394.592" y2="455.54" gradientUnits="userSpaceOnUse"><stop stop-color="#FFE0CC"/><stop offset="1" stop-color="#FFEADB"/></linearGradient><linearGradient id="paint15_linear_218_155" x1="387" y1="417.76" x2="387" y2="528.427" gradientUnits="userSpaceOnUse"><stop stop-color="#130027"/><stop offset="1" stop-color="#130017"/></linearGradient><linearGradient id="paint16_linear_218_155" x1="418.034" y1="63.5336" x2="435.246" y2="127.773" gradientUnits="userSpaceOnUse"><stop stop-color="#F7B186"/><stop offset="1" stop-color="#FFC299"/></linearGradient><linearGradient id="paint17_linear_218_155" x1="414.599" y1="58.6178" x2="425.871" y2="100.687" gradientUnits="userSpaceOnUse"><stop stop-color="#1D0024"/><stop offset="1" stop-color="#100014"/></linearGradient><linearGradient id="paint18_linear_218_155" x1="434.075" y1="116.614" x2="443.514" y2="151.842" gradientUnits="userSpaceOnUse"><stop stop-color="#1D0024"/><stop offset="1" stop-color="#100014"/></linearGradient><linearGradient id="paint19_linear_218_155" x1="434.261" y1="117.309" x2="443.299" y2="151.039" gradientUnits="userSpaceOnUse"><stop stop-color="#806A6A"/><stop offset="1" stop-color="#665654"/></linearGradient><linearGradient id="paint20_linear_218_155" x1="151.463" y1="219.462" x2="130.181" y2="140.036" gradientUnits="userSpaceOnUse"><stop stop-color="#E6864E"/><stop offset="1" stop-color="#E67240"/></linearGradient><linearGradient id="paint21_linear_218_155" x1="150.256" y1="233.203" x2="139.727" y2="193.909" gradientUnits="userSpaceOnUse"><stop stop-color="#FFC9B3"/><stop offset="1" stop-color="#FFD2C2"/></linearGradient><linearGradient id="paint22_linear_218_155" x1="133.951" y1="157.814" x2="145.132" y2="199.542" gradientUnits="userSpaceOnUse"><stop stop-color="#FFD4B3"/><stop offset="1" stop-color="#FFDCC2"/></linearGradient><clipPath id="clip0_218_155"><rect width="96" height="96" rx="48" transform="matrix(-1 0 0 1 821 274)" fill="white"/></clipPath><clipPath id="clip1_218_155"><rect x="520.904" y="457.682" width="252" height="252" rx="126" transform="rotate(15 520.904 457.682)" fill="white"/></clipPath><clipPath id="clip2_218_155"><rect x="67.8162" y="374.864" width="108" height="108" rx="54" transform="rotate(15 67.8162 374.864)" fill="white"/></clipPath><clipPath id="clip3_218_155"><rect x="221" y="192" width="332" height="332" rx="166" fill="white"/></clipPath><clipPath id="clip4_218_155"><rect x="363" y="60" width="108" height="108" rx="54" transform="rotate(-15 363 60)" fill="white"/></clipPath><clipPath id="clip5_218_155"><rect width="108" height="108" rx="54" transform="matrix(-0.965926 0.258819 0.258819 0.965926 174.184 113.864)" fill="white"/></clipPath></defs></svg>
