<svg xmlns="http://www.w3.org/2000/svg" viewBox="0 0 358 206" fill="none"><path d="M0 0h358v206H0z" fill="var(--bg-secondary)"/><rect x="95.051" y="104.883" width="61.888" height="61.888" rx="8" transform="rotate(-30 95.05 104.883)" fill="var(--bg-max)"/><rect x="95.051" y="102.881" width="61.888" height="61.888" rx="8" transform="rotate(-30 95.05 102.881)" fill="var(--bg-primary)"/><path d="M118.299 119.568c.57-.089 1.043-.646.91-1.398-1.661-8.861 2.421-16.105 8.715-19.74 2.865-1.654 5.459-2.366 8.017-2.359.737.012 1.348-.342 1.278-1.021-.073-.721-.571-.914-1.124-.944-3.345-.142-6.155.717-9.229 2.492-7.277 4.201-11.6 11.956-9.932 21.685.167.995.803 1.391 1.365 1.285zm36.913-13.391c.516-.297.64-.937.261-1.482-4.57-6.242-9.155-9.203-14.783-10.362-.712-.156-1.2.3-1.285.786-.107.52.172 1.079.911 1.242 4.909 1.18 9.46 3.746 13.437 9.371.377.503.944.742 1.459.445zm-25.966 26.404c.551.249 1.229.01 1.453-.643.583-1.667.236-3.606-.727-5.275-1.304-2.258-2.932-2.846-4.557-5.661-3.704-6.416-1.536-14.781 4.775-18.424 7.614-4.396 16.18-.897 21.592 8.438 2.107 3.65 3.004 6.579 3.268 8.413.084.628.589 1.056 1.14 1.044.564-.064 1.097-.59.979-1.242-.374-2.097-1.326-5.344-3.594-9.272-6.019-10.425-15.751-14.233-24.444-9.214-7.308 4.22-9.799 13.884-5.519 21.298 1.55 2.684 3.597 3.924 4.596 5.617.642 1.113.854 2.409.485 3.517-.198.55.078 1.176.553 1.404zm3.88-10.008c-1.045-.881-2.517-1.907-3.613-3.806-2.514-4.353-1.137-9.665 3.145-12.137 1.642-.948 2.261-1.065 4.1-1.189.631-.059.997-.466.966-.929-.023-.597-.473-1.079-1.209-1.091-1.431-.025-3.331.44-4.925 1.36-5.28 3.048-6.996 9.668-3.896 15.036 1.19 2.063 2.701 3.416 4.068 4.482.537.41 1.171.393 1.609-.188.369-.475.244-1.101-.245-1.538zm7.425-16.398c2.894 1.406 5.509 4.151 7.739 8.014 2.381 4.124 3.503 8.669 3.034 11.908-.063.56.226 1.135.788 1.291.594.137 1.244-.261 1.311-.888.405-3.835-.782-8.866-3.4-13.399-2.863-4.959-5.61-7.301-8.445-8.828-.64-.329-1.298-.167-1.607.339-.316.531-.111 1.22.58 1.563zm-1.121 27.465c1.393-3.684.858-7.958-1.36-11.762-1.679-2.871-3.723-4.069-4.63-5.64-1.191-2.062-.552-4.264 1.541-5.472 3.22-1.859 6.42 1.268 9.068 5.631 3.093 5.023 3.768 10.393 2.614 13.896-.197.551.015 1.105.509 1.365a1.026 1.026 0 001.428-.65c1.169-3.774.346-10.106-2.936-15.718-3.191-5.489-7.234-8.96-11.741-6.357-2.994 1.728-4.125 5.087-2.348 8.164 1.067 1.849 3.347 3.566 4.676 5.832 1.887 3.231 2.378 6.832 1.221 9.922-.227.611.011 1.171.521 1.423.612.279 1.22-.006 1.437-.634zm-14.792-4.727c.382-.417.324-1.038-.126-1.52-1.357-1.42-2.609-3.032-3.852-5.37-.333-.615-.844-.756-1.346-.51-.656.313-.767.901-.523 1.437.923 1.933 2.344 4.058 4.285 5.971.482.463 1.158.444 1.562-.008zm18.506-7.651c-.824-2.47-2.636-5.199-4.842-7.198-.559-.485-1.177-.477-1.582-.026-.372.434-.407 1.043.101 1.513 2.111 1.946 3.591 4.212 4.411 6.488.187.546.654.909 1.265.666.571-.199.875-.789.647-1.443zm-8.342 12.17c.833-1.31 1.23-4.376.708-6.322-.136-.533-.667-.968-1.26-.844-.545.097-.868.654-.742 1.28.397 1.691.264 3.208-.455 4.714-.344.744-.131 1.297.263 1.572.43.297 1.077.229 1.486-.4zm9.151-.657c.733-1.668 1.073-4.722.475-7.17-.095-.425-.525-.984-1.144-.867-.661.12-.967.667-.866 1.177.445 2.667.177 4.545-.41 6.019-.213.559-.014 1.164.505 1.432.522.309 1.188.012 1.44-.591z" fill="var(--red-500)"/><rect x="187.001" y="50.414" width="80.693" height="80.693" rx="8" transform="rotate(21.613 187.001 50.414)" fill="var(--bg-max)"/><rect x="186.063" y="48.383" width="80.693" height="80.693" rx="8" transform="rotate(21.613 186.063 48.383)" fill="var(--bg-primary)"/><path d="M233.038 100.98c.943.374 1.677.037 2.051-.906l2.401-6.06c1.794-4.528.37-7.821-4.229-9.643L227.2 81.97c-.943-.374-1.691-.07-2.065.873-.364.92-.036 1.677.907 2.051l5.99 2.373c2.617 1.037 3.552 3.017 2.468 5.753l-2.336 5.895c-.373.944-.069 1.692.874 2.065zm-42.213-16.724c.944.374 1.677.037 2.051-.906l2.336-5.896c1.084-2.735 3.073-3.557 5.715-2.51l5.99 2.373c.966.383 1.7.046 2.065-.874.373-.943.06-1.667-.907-2.05L202.038 72c-4.598-1.822-7.882-.422-9.685 4.13l-2.401 6.06c-.374.944-.07 1.692.873 2.065zm14.534 19.373l.213.084c2.169.86 3.782.162 4.642-2.008l2.915-7.357c.299-.755.028-1.38-.726-1.68-.778-.308-1.404-.037-1.703.717l-2.99 7.547c-.168.424-.568.539-.922.398l-.801-.317c-.684-.271-1.409.042-1.67.702-.327.826.028 1.512 1.042 1.914zm-4.685-8.213c.943.373 1.832-.011 2.215-.978l1.261-3.184c.374-.943-.01-1.832-.954-2.206-.919-.364-1.818.044-2.182.964l-1.261 3.183c-.383.967.001 1.856.921 2.22zm17.403 6.895c.897.355 1.809-.02 2.192-.987l1.262-3.184c.364-.92-.035-1.841-.931-2.197-.943-.373-1.856.002-2.229.945l-1.262 3.184c-.383.967.025 1.865.968 2.239zm-13.99 9.627c2.735 1.083 5.952 1.021 8.727-.199a1.37 1.37 0 00.742-.77c.28-.707-.066-1.418-.75-1.688-.354-.141-.683-.135-1.252.131-1.863.844-4.359.947-6.505.097-2.099-.832-3.833-2.583-4.697-4.535-.199-.461-.375-.776-.823-.954-.684-.271-1.422.01-1.703.717-.14.354-.096.726.037 1.079 1.074 2.799 3.464 5.028 6.224 6.122zm-19.932 5.199l6.038 2.392c.966.383 1.7.046 2.064-.873.374-.944.061-1.668-.906-2.051l-5.99-2.373c-2.641-1.047-3.519-3.031-2.445-5.743l2.336-5.896c.374-.943.07-1.691-.873-2.065-.967-.383-1.677-.037-2.051.906l-2.392 6.038c-1.812 4.575-.379 7.843 4.219 9.665zm25.163 9.969l6.06 2.402c4.599 1.821 7.892.398 9.695-4.154l2.392-6.037c.373-.943.046-1.7-.874-2.065-.967-.383-1.677-.037-2.051.907l-2.335 5.895c-1.075 2.712-3.121 3.538-5.739 2.501l-5.99-2.373c-.943-.374-1.691-.07-2.065.874-.364.919-.036 1.677.907 2.05z" fill="var(--blue-600)"/></svg>