<svg xmlns="http://www.w3.org/2000/svg" viewBox="0 0 358 206" fill="none" ><rect width="358" height="206" fill="var(--bg-secondary)"/><rect x="66" y="104" width="226" height="62" rx="8" fill="var(--bg-primary)"/><text xml:space="preserve" style="white-space: pre" font-family="Nunito Sans" font-size="10" font-weight="600" letter-spacing="0em"><tspan fill="var(--tx-primary)" x="210" y="132.29">4875</tspan></text><circle cx="124.5" cy="128.5" r="1.5" fill="var(--tx-primary)"/><circle cx="130.5" cy="128.5" r="1.5" fill="var(--tx-primary)"/><circle cx="136.5" cy="128.5" r="1.5" fill="var(--tx-primary)"/><circle cx="142.5" cy="128.5" r="1.5" fill="var(--tx-primary)"/><circle cx="153.5" cy="128.5" r="1.5" fill="var(--tx-primary)"/><circle cx="159.5" cy="128.5" r="1.5" fill="var(--tx-primary)"/><circle cx="165.5" cy="128.5" r="1.5" fill="var(--tx-primary)"/><circle cx="171.5" cy="128.5" r="1.5" fill="var(--tx-primary)"/><circle cx="182.5" cy="128.5" r="1.5" fill="var(--tx-primary)"/><circle cx="188.5" cy="128.5" r="1.5" fill="var(--tx-primary)"/><circle cx="194.5" cy="128.5" r="1.5" fill="var(--tx-primary)"/><circle cx="200.5" cy="128.5" r="1.5" fill="var(--tx-primary)"/><text xml:space="preserve" style="white-space: pre" font-family="Nunito Sans" font-size="10" font-weight="600" letter-spacing="0em"><tspan fill="var(--red-500)" x="122" y="146.29">1 breaches found</tspan></text><path d="M272 143C276.418 143 280 139.418 280 135C280 130.582 276.418 127 272 127C267.582 127 264 130.582 264 135C264 139.418 267.582 143 272 143Z" fill="var(--red-500)"/><path d="M271.193 136.38H272.859L273.026 131.328H271.026L271.193 136.38ZM272.026 139.025C272.698 139.025 273.094 138.676 273.094 138.077C273.094 137.473 272.698 137.124 272.026 137.124C271.354 137.124 270.963 137.474 270.963 138.077C270.963 138.677 271.354 139.025 272.026 139.025Z" fill="var(--white)"/><rect x="78" y="123" width="32" height="24" rx="4" fill="var(--bg-tertiary)"/><path d="M96.7042 130.149H91.2961V139.868H96.7042V130.149Z" fill="#FF5F00"/><path d="M91.6395 135.009C91.6386 134.073 91.8507 133.149 92.2597 132.307C92.6687 131.465 93.2638 130.727 94.0001 130.15C93.0884 129.433 91.9933 128.987 90.8402 128.863C89.6871 128.74 88.5225 128.943 87.4794 129.45C86.4363 129.957 85.5568 130.747 84.9416 131.73C84.3263 132.713 84 133.849 84 135.009C84 136.169 84.3263 137.305 84.9416 138.288C85.5568 139.271 86.4363 140.061 87.4794 140.568C88.5225 141.075 89.6871 141.278 90.8402 141.154C91.9933 141.03 93.0884 140.585 94.0001 139.868C93.2639 139.29 92.6687 138.552 92.2597 137.71C91.8507 136.869 91.6386 135.945 91.6395 135.009V135.009Z" fill="#EB001B"/><path d="M104 135.009C104 136.168 103.674 137.305 103.059 138.288C102.443 139.271 101.564 140.061 100.521 140.568C99.4778 141.075 98.3132 141.278 97.1601 141.154C96.007 141.03 94.912 140.585 94.0002 139.868C94.7359 139.29 95.3306 138.552 95.7395 137.71C96.1484 136.868 96.3609 135.945 96.3609 135.009C96.3609 134.073 96.1484 133.149 95.7395 132.308C95.3306 131.466 94.7359 130.728 94.0002 130.15C94.912 129.433 96.007 128.987 97.1601 128.863C98.3132 128.74 99.4778 128.943 100.521 129.45C101.564 129.957 102.443 130.747 103.059 131.73C103.674 132.713 104 133.849 104 135.009V135.009Z" fill="#F79E1B"/><path d="M103.41 138.838V138.64H103.491V138.599H103.286V138.64H103.367V138.838H103.41ZM103.807 138.838V138.599H103.745L103.672 138.764L103.6 138.599H103.538V138.838H103.582V138.658L103.65 138.814H103.695L103.763 138.657V138.838H103.807Z" fill="#F79E1B"/><rect x="53" y="42" width="252" height="72" rx="8" fill="var(--bg-secondary)"/><rect x="53" y="40" width="252" height="72" rx="8" fill="var(--bg-primary)"/><text xml:space="preserve" style="white-space: pre" font-family="Nunito Sans" font-size="12" font-weight="600" letter-spacing="0em"><tspan fill="var(--tx-primary)" x="117" y="70.948">john@psm.com</tspan></text><text xml:space="preserve" style="white-space: pre" font-family="Nunito Sans" font-size="12" font-weight="600" letter-spacing="0em"><tspan fill="var(--red-500)" x="116" y="90.948">3 breaches found</tspan></text><path opacity="0.8" d="M86.867 74.974C86.3078 75.3204 85.6572 75.4905 85 75.462C84.3428 75.4904 83.6923 75.3204 83.133 74.974L69 68.017V84.005C69 84.975 69.421 85.907 70.172 86.594C70.922 87.281 71.939 87.666 73 87.666H97C98.06 87.666 99.078 87.281 99.828 86.594C100.578 85.907 101 84.976 101 84.004V68.018L86.867 74.974Z" fill="var(--blue-500)"/><path d="M86.723 76.676C86.2169 77.0217 85.6123 77.194 85 77.167C84.3877 77.194 83.7831 77.0217 83.277 76.676L69 69.668V83.314C69.0016 84.2923 69.3912 85.2301 70.0834 85.9215C70.7755 86.6129 71.7137 87.0015 72.692 87.002H97.308C98.2863 87.0015 99.2245 86.6129 99.9166 85.9215C100.609 85.2301 100.998 84.2923 101 83.314V69.669L86.723 76.676Z" fill="var(--blue-200)"/><path d="M97.308 66.229H72.692C72.2074 66.2288 71.7274 66.3241 71.2796 66.5094C70.8318 66.6947 70.4248 66.9664 70.082 67.309C69.7395 67.6505 69.4676 68.0561 69.2819 68.5028C69.0962 68.9494 69.0005 69.4283 69 69.912C68.9986 70.1337 69.0544 70.352 69.1622 70.5458C69.2699 70.7396 69.4259 70.9022 69.615 71.018L84.385 78.386C84.574 78.486 84.787 78.528 85 78.509C85.213 78.528 85.426 78.485 85.615 78.386L100.385 71.018C100.574 70.9019 100.73 70.7392 100.837 70.5455C100.945 70.3518 101.001 70.1336 101 69.912C101 69.428 100.904 68.9487 100.719 68.5017C100.533 68.0547 100.261 67.6487 99.918 67.307C99.2252 66.616 98.2866 66.229 97.308 66.229Z" fill="var(--blue-500)"/><path d="M97.308 65H72.692C72.2074 64.9998 71.7274 65.0951 71.2796 65.2804C70.8318 65.4657 70.4248 65.7374 70.082 66.08C69.7395 66.4215 69.4676 66.8271 69.2819 67.2738C69.0962 67.7204 69.0005 68.1993 69 68.683C68.9986 68.9047 69.0544 69.123 69.1622 69.3168C69.2699 69.5106 69.4259 69.6732 69.615 69.789L84.385 77.157C84.574 77.257 84.787 77.299 85 77.28C85.213 77.299 85.426 77.256 85.615 77.157L100.385 69.789C100.574 69.6729 100.73 69.5102 100.837 69.3165C100.945 69.1228 101.001 68.9046 101 68.683C101 68.199 100.904 67.7197 100.719 67.2727C100.533 66.8257 100.261 66.4197 99.918 66.078C99.225 65.3874 98.2864 64.9997 97.308 65Z" fill="var(--blue-200)"/><path d="M281 84C285.418 84 289 80.4183 289 76C289 71.5817 285.418 68 281 68C276.582 68 273 71.5817 273 76C273 80.4183 276.582 84 281 84Z" fill="var(--red-500)"/><path d="M280.193 77.38H281.859L282.026 72.328H280.026L280.193 77.38ZM281.026 80.025C281.698 80.025 282.094 79.676 282.094 79.077C282.094 78.473 281.698 78.124 281.026 78.124C280.354 78.124 279.963 78.474 279.963 79.077C279.963 79.677 280.354 80.025 281.026 80.025Z" fill="var(--white)"/></svg>
