<svg xmlns="http://www.w3.org/2000/svg" viewBox="0 0 358 206" fill="none"><path d="M0 0h358v206H0z" fill="var(--bg-secondary)"/><path d="M125.803 75c0 10.383-8.42 18.802-18.802 18.802-10.383 0-18.803-8.42-18.803-18.802s8.42-18.802 18.803-18.802c10.382 0 18.802 8.42 18.802 18.802z" fill="#4CAF50"/><path d="M107 56.198V75l7.521 3.76-8.314 15.042H107c10.391 0 18.802-8.411 18.802-18.802S117.391 56.198 107 56.198z" fill="#FFC107"/><path d="M125.803 75c0 10.383-8.42 18.802-18.802 18.802-10.383 0-18.803-8.42-18.803-18.802s8.42-18.802 18.803-18.802c10.382 0 18.802 8.42 18.802 18.802z" fill="#4CAF50"/><path d="M107 56.198V75l7.521 3.76-8.314 15.042H107c10.391 0 18.802-8.411 18.802-18.802S117.391 56.198 107 56.198z" fill="#FFC107"/><path d="M123.772 66.539H107V78.76l-2.82-.94-13.011-12.917h-.019c3.328-5.236 9.185-8.705 15.85-8.705 7.333 0 13.679 4.211 16.772 10.34z" fill="#F44336"/><path d="M91.167 64.907L99.48 78.88l4.7-1.058-13.013-12.914z" fill="#DD2C00"/><path d="M106.207 93.802l8.399-15.097-3.846-2.765-4.553 17.862z" fill="#558B2F"/><path d="M123.795 66.54H107l-1.484 4.305 18.279-4.306z" fill="#F9A825"/><path d="M115.461 75c0 4.671-3.79 8.46-8.461 8.46A8.463 8.463 0 0198.54 75a8.462 8.462 0 018.46-8.46 8.463 8.463 0 018.461 8.46z" fill="#fff"/><path d="M113.581 75A6.58 6.58 0 01107 81.581a6.58 6.58 0 01-6.581-6.58A6.58 6.58 0 01107 68.42a6.58 6.58 0 016.581 6.58z" fill="#2196F3"/><g clip-path="url(#clip0)"><path d="M172.746 85.707c-2.1-2.48-3.461-6.145-3.554-10.26v-.894c.093-4.114 1.453-7.78 3.554-10.26 2.726-3.54 6.778-5.784 11.302-5.784 2.784 0 5.388.85 7.615 2.328A18.923 18.923 0 00179.072 56H179c-10.494 0-19 8.507-19 19 0 10.19 8.022 18.506 18.095 18.978a18.929 18.929 0 0013.567-4.814c-2.227 1.478-4.831 2.327-7.614 2.327-4.524 0-8.576-2.244-11.302-5.784z" fill="url(#paint0_linear)"/><path d="M172.746 64.293c1.744-2.058 3.996-3.299 6.456-3.299 5.531 0 10.015 6.27 10.015 14.007 0 7.735-4.484 14.006-10.015 14.006-2.46 0-4.712-1.242-6.455-3.3 2.725 3.54 6.777 5.785 11.302 5.785 2.783 0 5.387-.85 7.613-2.327A18.948 18.948 0 00198 75a18.952 18.952 0 00-6.336-14.163c-2.227-1.478-4.832-2.328-7.615-2.328-4.525 0-8.577 2.245-11.303 5.784" fill="url(#paint1_linear)"/></g><path d="M266.302 65.104l.895-2.19s-1.126-1.21-2.512-2.593c-1.387-1.382-4.303-.576-4.303-.576L257.061 56h-11.695l-3.32 3.774s-2.917-.807-4.303.576c-1.386 1.383-2.512 2.593-2.512 2.593l.895 2.19L235 68.359s3.35 12.619 3.725 14.175c.78 3.025 1.299 4.206 3.494 5.762 2.195 1.555 6.151 4.206 6.815 4.61.635.403 1.472 1.094 2.194 1.094s1.531-.691 2.195-1.095c.635-.403 4.62-3.082 6.815-4.61 2.194-1.526 2.714-2.707 3.494-5.761.404-1.556 3.725-14.175 3.725-14.175l-1.155-3.255z" fill="url(#paint2_linear)"/><path d="M259.457 62.168s4.273 5.157 4.273 6.28c0 1.124-.548 1.383-1.097 1.96-.548.576-2.916 3.082-3.205 3.399-.318.317-.924.806-.578 1.7.376.864.924 1.987.318 3.14-.606 1.123-1.646 1.901-2.31 1.757-.664-.115-2.252-.95-2.83-1.325-.577-.375-2.397-1.873-2.397-2.449 0-.576 1.906-1.613 2.253-1.844.346-.23 1.934-1.152 1.963-1.498.029-.345.029-.46-.462-1.354-.462-.893-1.328-2.074-1.184-2.852.145-.778 1.502-1.181 2.484-1.555.981-.375 2.858-1.067 3.089-1.182.231-.115.174-.201-.548-.288-.722-.057-2.715-.346-3.639-.086-.924.259-2.454.634-2.598.835-.116.202-.231.202-.116.922.116.692.809 4.091.866 4.696.058.605.202 1.008-.462 1.152-.635.144-1.732.404-2.108.404-.375 0-1.472-.26-2.108-.404-.635-.144-.519-.547-.462-1.152.058-.605.722-3.976.867-4.696.115-.691.029-.72-.116-.922-.115-.201-1.675-.576-2.599-.835-.924-.26-2.916 0-3.638.086-.722.058-.78.173-.549.288.231.115 2.108.807 3.09 1.181.982.375 2.339.778 2.483 1.556.145.778-.693 1.96-1.183 2.852-.462.893-.491.98-.462 1.354.028.346 1.617 1.268 1.963 1.498.347.23 2.252 1.268 2.252 1.844 0 .576-1.819 2.074-2.396 2.449-.578.374-2.137 1.181-2.83 1.325-.664.115-1.704-.634-2.31-1.757-.607-1.124-.058-2.247.317-3.14.376-.865-.259-1.355-.577-1.7-.231-.346-2.57-2.852-3.119-3.4-.548-.576-1.068-.864-1.068-1.959 0-1.094 4.274-6.28 4.274-6.28s3.609.691 4.1.691c.491 0 1.53-.403 2.512-.72.982-.317 1.617-.317 1.617-.317s.635 0 1.617.317 2.022.72 2.512.72c.491 0 4.101-.691 4.101-.691z" fill="#fff"/><path d="M256.249 81.903c.26.172.116.49-.144.633-.231.173-3.494 2.68-3.783 2.968-.318.288-.78.72-1.097.72-.318 0-.78-.461-1.097-.72-.318-.288-3.552-2.795-3.783-2.968-.231-.172-.405-.49-.145-.633.26-.173 1.098-.577 2.224-1.182 1.155-.605 2.57-1.094 2.801-1.094.231 0 1.646.49 2.801 1.094 1.126.605 1.934 1.037 2.223 1.182z" fill="#fff"/><path d="M260.383 59.774L257.063 56h-11.695l-3.321 3.774s-2.916-.807-4.302.576c0 0 3.898-.346 5.226 1.815 0 0 3.61.692 4.101.692.49 0 1.53-.404 2.512-.72.982-.318 1.617-.318 1.617-.318s.635 0 1.617.317 2.021.72 2.512.72c.491 0 4.1-.69 4.1-.69 1.329-2.161 5.227-1.816 5.227-1.816-1.357-1.383-4.274-.576-4.274-.576" fill="url(#paint3_linear)"/><path d="M194.277 138.269a13.98 13.98 0 01-1.562.698 15.112 15.112 0 01-5.322.958c-7.014 0-13.125-4.825-13.125-11.017a4.665 4.665 0 012.436-4.049c-6.345.267-7.975 6.879-7.975 10.752 0 10.952 10.093 12.062 12.268 12.062 1.172 0 2.941-.341 4.002-.676l.194-.065a19.028 19.028 0 009.873-7.827.593.593 0 00-.789-.836z" fill="url(#paint4_linear)"/><path opacity=".35" d="M194.277 138.269a13.98 13.98 0 01-1.562.698 15.112 15.112 0 01-5.322.958c-7.014 0-13.125-4.825-13.125-11.017a4.665 4.665 0 012.436-4.049c-6.345.267-7.975 6.879-7.975 10.752 0 10.952 10.093 12.062 12.268 12.062 1.172 0 2.941-.341 4.002-.676l.194-.065a19.028 19.028 0 009.873-7.827.593.593 0 00-.789-.836z" fill="url(#paint5_radial)"/><path d="M175.698 145.81a11.724 11.724 0 01-3.37-3.163 11.947 11.947 0 01-2.075-4.74 11.975 11.975 0 012.414-9.812 11.967 11.967 0 014.038-3.236c.462-.218 1.253-.612 2.304-.593a4.795 4.795 0 013.808 1.927c.598.799.928 1.767.942 2.766 0-.031 3.626-11.8-11.858-11.8-6.508 0-11.859 6.176-11.859 11.594a19.28 19.28 0 001.795 8.301 18.973 18.973 0 0023.181 9.948 11.2 11.2 0 01-9.306-1.186l-.014-.006z" fill="url(#paint6_linear)"/><path opacity=".41" d="M175.698 145.81a11.724 11.724 0 01-3.37-3.163 11.947 11.947 0 01-2.075-4.74 11.975 11.975 0 012.414-9.812 11.967 11.967 0 014.038-3.236c.462-.218 1.253-.612 2.304-.593a4.795 4.795 0 013.808 1.927c.598.799.928 1.767.942 2.766 0-.031 3.626-11.8-11.858-11.8-6.508 0-11.859 6.176-11.859 11.594a19.28 19.28 0 001.795 8.301 18.973 18.973 0 0023.181 9.948 11.2 11.2 0 01-9.306-1.186l-.014-.006z" fill="url(#paint7_radial)"/><path d="M182.605 132.09c-.12.155-.489.37-.489.839 0 .386.252.758.7 1.071 2.131 1.483 6.15 1.287 6.16 1.287a8.825 8.825 0 004.487-1.238 9.098 9.098 0 004.511-7.838c.039-3.322-1.186-5.531-1.681-6.51-3.141-6.144-9.921-9.678-17.294-9.678a18.977 18.977 0 00-18.975 18.708c.072-5.417 5.455-9.791 11.859-9.791.519 0 3.478.05 6.226 1.492 2.422 1.272 3.691 2.808 4.573 4.33.916 1.582 1.079 3.58 1.079 4.376 0 .796-.406 1.976-1.156 2.952z" fill="url(#paint8_radial)"/><path d="M182.605 132.09c-.12.155-.489.37-.489.839 0 .386.252.758.7 1.071 2.131 1.483 6.15 1.287 6.16 1.287a8.825 8.825 0 004.487-1.238 9.098 9.098 0 004.511-7.838c.039-3.322-1.186-5.531-1.681-6.51-3.141-6.144-9.921-9.678-17.294-9.678a18.977 18.977 0 00-18.975 18.708c.072-5.417 5.455-9.791 11.859-9.791.519 0 3.478.05 6.226 1.492 2.422 1.272 3.691 2.808 4.573 4.33.916 1.582 1.079 3.58 1.079 4.376 0 .796-.406 1.976-1.156 2.952z" fill="url(#paint9_radial)"/><g clip-path="url(#clip1)"><path d="M124.458 122.749c-.8-1.925-2.424-4.004-3.695-4.661a19.098 19.098 0 011.865 5.588l.004.03c-2.082-5.188-5.612-7.284-8.496-11.841-.146-.23-.292-.461-.434-.705a5.307 5.307 0 01-.203-.38 3.35 3.35 0 01-.275-.73.045.045 0 00-.012-.031.043.043 0 00-.03-.016.065.065 0 00-.034 0c-.003 0-.007.004-.009.005l-.014.007.007-.012c-4.625 2.708-6.196 7.721-6.338 10.23a9.221 9.221 0 00-5.071 1.954 5.197 5.197 0 00-.475-.36 8.554 8.554 0 01-.052-4.502 13.648 13.648 0 00-4.433 3.426h-.008c-.73-.925-.679-3.975-.637-4.613a3.325 3.325 0 00-.615.327 13.43 13.43 0 00-1.8 1.542c-.63.639-1.206 1.33-1.721 2.065v.003-.003a15.551 15.551 0 00-2.471 5.578l-.025.122c-.035.162-.16.974-.18 1.15 0 .014-.004.027-.005.04a17.552 17.552 0 00-.299 2.539v.095a18.416 18.416 0 0029.667 14.551 18.419 18.419 0 006.898-11.436c.031-.238.056-.473.084-.713a18.95 18.95 0 00-1.195-9.252l.002.003zm-21.226 14.417c.086.041.166.086.255.125l.013.008a7.41 7.41 0 01-.268-.133zm19.4-13.454v-.018l.004.02-.004-.002z" fill="url(#paint10_linear)"/><path d="M124.458 122.749c-.8-1.925-2.424-4.004-3.695-4.661a19.098 19.098 0 011.865 5.588v.017l.004.02a16.683 16.683 0 01-.573 12.43c-2.111 4.529-7.218 9.171-15.216 8.943-8.638-.245-16.25-6.657-17.672-15.053-.259-1.325 0-1.996.13-3.072a13.712 13.712 0 00-.295 2.541v.095a18.42 18.42 0 0016.854 18.319 18.42 18.42 0 0019.711-15.205c.03-.237.056-.473.083-.713a18.933 18.933 0 00-1.194-9.251l-.002.002z" fill="url(#paint11_radial)"/><path d="M124.458 122.749c-.8-1.925-2.424-4.004-3.695-4.661a19.098 19.098 0 011.865 5.588v.017l.004.02a16.683 16.683 0 01-.573 12.43c-2.111 4.529-7.218 9.171-15.216 8.943-8.638-.245-16.25-6.657-17.672-15.053-.259-1.325 0-1.996.13-3.072a13.712 13.712 0 00-.295 2.541v.095a18.42 18.42 0 0016.854 18.319 18.42 18.42 0 0019.711-15.205c.03-.237.056-.473.083-.713a18.933 18.933 0 00-1.194-9.251l-.002.002z" fill="url(#paint12_radial)"/><path d="M115.506 124.911l.114.084a10.03 10.03 0 00-1.711-2.231c-5.726-5.726-1.5-12.411-.787-12.754l.007-.01c-4.626 2.709-6.197 7.722-6.339 10.231.215-.015.427-.033.647-.033a9.298 9.298 0 018.069 4.712v.001z" fill="url(#paint13_radial)"/><path d="M107.446 126.056c-.03.458-1.648 2.038-2.214 2.038-5.237 0-6.088 3.168-6.088 3.168.232 2.668 2.091 4.866 4.338 6.026.103.053.207.101.311.148.18.08.361.154.541.221a8.202 8.202 0 002.396.463c9.181.43 10.958-10.977 4.333-14.289a6.361 6.361 0 014.441 1.078 9.297 9.297 0 00-8.069-4.712c-.218 0-.432.018-.647.033a9.207 9.207 0 00-5.07 1.953c.281.238.598.555 1.265 1.213 1.25 1.231 4.455 2.507 4.462 2.657l.001.003z" fill="url(#paint14_radial)"/><path d="M107.446 126.056c-.03.458-1.648 2.038-2.214 2.038-5.237 0-6.088 3.168-6.088 3.168.232 2.668 2.091 4.866 4.338 6.026.103.053.207.101.311.148.18.08.361.154.541.221a8.202 8.202 0 002.396.463c9.181.43 10.958-10.977 4.333-14.289a6.361 6.361 0 014.441 1.078 9.297 9.297 0 00-8.069-4.712c-.218 0-.432.018-.647.033a9.207 9.207 0 00-5.07 1.953c.281.238.598.555 1.265 1.213 1.25 1.231 4.455 2.507 4.462 2.657l.001.003z" fill="url(#paint15_radial)"/><path d="M100.86 121.575c.15.095.273.178.381.253a8.534 8.534 0 01-.052-4.502 13.644 13.644 0 00-4.433 3.426c.09-.002 2.761-.05 4.104.823z" fill="url(#paint16_radial)"/><path d="M89.168 130.034c1.421 8.396 9.033 14.811 17.672 15.053 7.997.226 13.105-4.416 15.215-8.943a16.673 16.673 0 00.573-12.43v-.018c0-.014-.003-.022 0-.017l.004.03c.653 4.266-1.517 8.397-4.909 11.196l-.01.023c-6.61 5.384-12.935 3.248-14.213 2.376a11.104 11.104 0 01-.268-.133c-3.853-1.842-5.446-5.351-5.103-8.363a4.734 4.734 0 01-4.363-2.745 6.948 6.948 0 016.771-.271 9.173 9.173 0 006.914.271c-.007-.149-3.212-1.425-4.462-2.656-.667-.658-.984-.975-1.265-1.213a5.488 5.488 0 00-.475-.36c-.11-.075-.233-.156-.381-.252-1.343-.874-4.014-.826-4.103-.823h-.008c-.73-.926-.679-3.976-.637-4.613a3.255 3.255 0 00-.615.326 13.43 13.43 0 00-1.8 1.542 16.053 16.053 0 00-1.729 2.061v.003-.004a15.548 15.548 0 00-2.47 5.579c-.01.037-.664 2.898-.341 4.381h.003z" fill="url(#paint17_radial)"/><path d="M113.909 122.763a10.054 10.054 0 011.711 2.234c.101.076.195.152.276.226 4.175 3.849 1.987 9.29 1.824 9.674 3.392-2.794 5.56-6.928 4.909-11.195-2.083-5.193-5.617-7.289-8.496-11.846-.146-.23-.292-.461-.434-.705a6.257 6.257 0 01-.203-.38 3.35 3.35 0 01-.275-.73.045.045 0 00-.012-.031.043.043 0 00-.029-.016.07.07 0 00-.035 0c-.003 0-.006.004-.009.005l-.013.007c-.713.338-4.938 7.028.788 12.749l-.002.008z" fill="url(#paint18_radial)"/><path d="M115.895 125.225a3.605 3.605 0 00-.276-.226 3.42 3.42 0 00-.115-.085 6.358 6.358 0 00-4.44-1.078c6.624 3.312 4.847 14.717-4.333 14.289a8.24 8.24 0 01-2.397-.462 10.24 10.24 0 01-.54-.222 6.763 6.763 0 01-.311-.148l.013.008c1.28.874 7.603 3.009 14.212-2.376l.011-.024c.165-.385 2.352-5.825-1.825-9.674l.001-.002z" fill="url(#paint19_radial)"/><path d="M99.145 131.259s.85-3.168 6.087-3.168c.566 0 2.186-1.58 2.215-2.038a9.173 9.173 0 01-6.914-.271 6.948 6.948 0 00-6.771.271 4.727 4.727 0 004.362 2.745c-.34 3.011 1.251 6.519 5.104 8.363.086.041.167.086.255.125-2.249-1.162-4.106-3.359-4.338-6.025v-.002z" fill="url(#paint20_radial)"/><path d="M124.458 122.749c-.8-1.925-2.424-4.004-3.695-4.661a19.098 19.098 0 011.865 5.588l.004.03c-2.082-5.188-5.612-7.284-8.496-11.841-.146-.23-.292-.461-.434-.705a5.307 5.307 0 01-.203-.38 3.35 3.35 0 01-.275-.73.045.045 0 00-.012-.031.043.043 0 00-.03-.016.065.065 0 00-.034 0c-.003 0-.006.004-.009.005l-.014.007.007-.012c-4.625 2.708-6.196 7.721-6.338 10.23.214-.014.427-.032.647-.032a9.287 9.287 0 018.068 4.712 6.355 6.355 0 00-4.44-1.078c6.624 3.312 4.847 14.716-4.333 14.288a8.174 8.174 0 01-2.397-.462 9.434 9.434 0 01-.54-.221c-.105-.048-.209-.095-.311-.149l.013.008a7.41 7.41 0 01-.268-.133c.086.041.166.086.255.125-2.249-1.162-4.106-3.359-4.338-6.025 0 0 .85-3.168 6.087-3.168.566 0 2.186-1.58 2.215-2.038-.007-.15-3.212-1.425-4.462-2.656-.668-.658-.985-.975-1.266-1.213a5.396 5.396 0 00-.475-.361 8.55 8.55 0 01-.052-4.501 13.648 13.648 0 00-4.433 3.426h-.008c-.73-.925-.679-3.976-.637-4.613a3.266 3.266 0 00-.615.327c-.644.459-1.246.975-1.8 1.542-.63.639-1.206 1.33-1.721 2.065v.003-.003a15.553 15.553 0 00-2.471 5.578l-.025.122c-.035.162-.19.985-.212 1.162a21.42 21.42 0 00-.272 2.567v.095a18.416 18.416 0 0029.667 14.551 18.423 18.423 0 006.898-11.437c.031-.237.056-.472.084-.712a18.948 18.948 0 00-1.195-9.252l.001-.001zm-1.827.946l.003.02-.003-.02z" fill="url(#paint21_linear)"/></g><path opacity=".53" d="M268.34 130.382c0 4.407-1.826 8.634-5.078 11.751-3.252 3.116-7.663 4.867-12.261 4.867-4.599 0-9.01-1.751-12.262-4.867-3.251-3.117-5.078-7.344-5.078-11.751 0-4.408 1.827-8.634 5.078-11.751 3.252-3.116 7.663-4.867 12.262-4.867 4.598 0 9.009 1.751 12.261 4.867 3.252 3.117 5.078 7.343 5.078 11.751z" fill="#000"/><path d="M269 128.915c0 4.751-1.896 9.308-5.272 12.667A18.044 18.044 0 01251 146.83a18.048 18.048 0 01-12.728-5.248A17.868 17.868 0 01233 128.915a17.87 17.87 0 015.272-12.668A18.043 18.043 0 01251 111c4.774 0 9.352 1.887 12.728 5.247A17.87 17.87 0 01269 128.915v0z" fill="url(#paint22_linear)" stroke="#CDCDCD" stroke-width=".896" stroke-linecap="round" stroke-linejoin="round"/><path d="M267.589 128.915c0 4.379-1.748 8.579-4.859 11.675a16.628 16.628 0 01-11.731 4.836c-4.4 0-8.619-1.739-11.73-4.836a16.471 16.471 0 01-4.859-11.675c0-4.379 1.748-8.578 4.859-11.675a16.63 16.63 0 0111.73-4.836c4.4 0 8.62 1.74 11.731 4.836a16.473 16.473 0 014.859 11.675z" fill="url(#paint23_radial)"/><path d="M251 113.265a.242.242 0 00-.242.241v2.776c0 .032.006.063.018.093a.242.242 0 00.466-.093v-2.776a.24.24 0 00-.242-.241zm-1.582.1a.24.24 0 00-.212.087.242.242 0 00-.053.177l.122 1.162a.242.242 0 00.172.206c.03.009.062.012.094.008a.24.24 0 00.207-.171.225.225 0 00.008-.093l-.122-1.162a.24.24 0 00-.069-.146.242.242 0 00-.147-.068zm3.175.001a.237.237 0 00-.216.214l-.123 1.162a.243.243 0 00.052.177.24.24 0 00.163.087.242.242 0 00.266-.214l.123-1.161a.247.247 0 00-.053-.177.241.241 0 00-.212-.088zm-4.801.233a.23.23 0 00-.103.024.235.235 0 00-.131.161.237.237 0 00-.001.106l.578 2.716a.239.239 0 00.286.186.241.241 0 00.187-.286l-.578-2.716a.24.24 0 00-.238-.191zm6.427.002a.24.24 0 00-.238.191l-.58 2.716a.229.229 0 00-.001.094.244.244 0 00.187.192.253.253 0 00.095.001.228.228 0 00.087-.035.234.234 0 00.105-.152l.58-2.716a.253.253 0 00-.001-.106.257.257 0 00-.047-.095.253.253 0 00-.083-.066.25.25 0 00-.104-.023v-.001zm-7.978.433a.235.235 0 00-.095.012.23.23 0 00-.141.119.239.239 0 00-.015.184l.363 1.111a.238.238 0 00.211.165.232.232 0 00.094-.011.246.246 0 00.141-.119.242.242 0 00.014-.184l-.363-1.111a.24.24 0 00-.209-.166zm9.52.001a.25.25 0 00-.13.051.249.249 0 00-.079.115l-.363 1.11a.238.238 0 00.155.304.239.239 0 00.259-.073.238.238 0 00.046-.082l.363-1.111a.238.238 0 00-.155-.303.241.241 0 00-.096-.011zm-11.054.558a.244.244 0 00-.221.155.223.223 0 00-.016.092c0 .032.008.063.021.092l1.133 2.537a.244.244 0 00.134.127.242.242 0 00.308-.322l-1.133-2.538a.244.244 0 00-.226-.143zm12.605.009a.24.24 0 00-.225.143l-1.137 2.535a.242.242 0 00-.005.185.255.255 0 00.051.079.242.242 0 00.396-.068l1.137-2.535a.242.242 0 00.005-.185.255.255 0 00-.051-.079.233.233 0 00-.077-.054.23.23 0 00-.094-.021zm-14.029.741a.239.239 0 00-.209.094.235.235 0 00-.041.084.23.23 0 00.024.183l.587 1.011a.236.236 0 00.147.113c.03.008.062.01.094.006a.255.255 0 00.16-.093.222.222 0 00.042-.084.247.247 0 00-.024-.183l-.587-1.011a.25.25 0 00-.081-.084.247.247 0 00-.112-.036zm15.434 0a.247.247 0 00-.112.036.25.25 0 00-.081.084l-.587 1.011a.247.247 0 00-.024.183.237.237 0 00.113.146.262.262 0 00.089.031.253.253 0 00.095-.006.265.265 0 00.084-.042.211.211 0 00.062-.071l.587-1.011a.243.243 0 00.025-.183.255.255 0 00-.042-.084.247.247 0 00-.209-.094zm-16.816.858a.246.246 0 00-.198.115.235.235 0 00-.03.182c.008.031.021.06.04.085l1.638 2.248a.238.238 0 00.158.096.247.247 0 00.094-.003.25.25 0 00.15-.109.23.23 0 00.029-.182.234.234 0 00-.039-.085l-1.638-2.247a.242.242 0 00-.204-.1zm18.216.012a.241.241 0 00-.204.1l-1.642 2.245a.236.236 0 00-.039.085.23.23 0 00.029.182.246.246 0 00.244.113.235.235 0 00.088-.033.237.237 0 00.07-.064l1.641-2.245a.234.234 0 00.039-.085.23.23 0 00.004-.094.238.238 0 00-.097-.157.236.236 0 00-.133-.047zm-19.452 1.02a.25.25 0 00-.094.013.256.256 0 00-.081.048.246.246 0 00-.066.26.24.24 0 00.048.08l.786.869a.246.246 0 00.167.079.232.232 0 00.174-.062.233.233 0 00.08-.166.238.238 0 00-.062-.174l-.785-.868a.25.25 0 00-.167-.079zm20.672.001a.244.244 0 00-.167.08l-.785.868a.232.232 0 00-.062.174.227.227 0 00.023.091.245.245 0 00.323.114.245.245 0 00.075-.057l.785-.868a.237.237 0 00-.017-.34.25.25 0 00-.175-.062zm-21.857 1.131a.237.237 0 00-.215.16.236.236 0 00.01.184.235.235 0 00.056.076l2.074 1.857a.232.232 0 00.174.062.245.245 0 00.167-.079.241.241 0 00.062-.174.233.233 0 00-.08-.166l-2.073-1.858a.238.238 0 00-.175-.062zm23.047.008a.248.248 0 00-.174.062l-2.075 1.856a.245.245 0 00-.057.075.244.244 0 00-.01.184c.011.03.027.058.049.081a.246.246 0 00.167.08.248.248 0 00.174-.062l2.075-1.856a.245.245 0 00.057-.075.241.241 0 00-.206-.345zm-24.032 1.253a.237.237 0 00-.114.024.234.234 0 00-.129.16.23.23 0 00.029.182.222.222 0 00.064.069l.949.687a.248.248 0 00.18.043.244.244 0 00.198-.182.247.247 0 00-.029-.182.263.263 0 00-.064-.069l-.95-.686a.23.23 0 00-.134-.046zm25.016.008a.245.245 0 00-.133.046l-.95.686a.251.251 0 00-.065.069.252.252 0 00-.029.182.244.244 0 00.378.139l.95-.686a.249.249 0 00.097-.157.238.238 0 00-.044-.179.239.239 0 00-.204-.1zm-25.936 1.336a.244.244 0 00-.223.209.248.248 0 00.006.094.236.236 0 00.113.146l2.416 1.388a.236.236 0 00.268-.017.223.223 0 00.062-.071.23.23 0 00.025-.182.242.242 0 00-.113-.146l-2.416-1.389a.247.247 0 00-.138-.032zm26.85 0a.247.247 0 00-.138.032l-2.416 1.389a.243.243 0 00-.113.146.243.243 0 00.087.253.242.242 0 00.268.017l2.416-1.388a.235.235 0 00.119-.24.24.24 0 00-.223-.209zm-27.546 1.434a.23.23 0 00-.135.037.244.244 0 00-.112.197.246.246 0 00.066.172.248.248 0 00.078.054l1.071.476a.247.247 0 00.186.005.235.235 0 00.079-.05.242.242 0 00.06-.261.247.247 0 00-.127-.134l-1.072-.475a.222.222 0 00-.094-.021zm28.247.009a.257.257 0 00-.094.021l-1.072.475a.247.247 0 00-.144.227.242.242 0 00.341.213l1.072-.475a.244.244 0 00.127-.133.242.242 0 00-.23-.328zm-28.867 1.489a.243.243 0 00-.221.258.242.242 0 00.084.165c.024.02.052.036.082.045l2.653.861a.27.27 0 00.094.011.269.269 0 00.091-.025.264.264 0 00.074-.059.255.255 0 00.046-.082.225.225 0 00.011-.093.233.233 0 00-.084-.164.238.238 0 00-.082-.046l-2.653-.86a.256.256 0 00-.095-.012v.001zm29.486.01a.234.234 0 00-.095.011l-2.654.858a.255.255 0 00-.082.046.238.238 0 00-.073.258.238.238 0 00.211.165.23.23 0 00.094-.011l2.653-.858a.244.244 0 00.167-.21.249.249 0 00-.091-.208.246.246 0 00-.13-.051zm-29.873 1.562a.236.236 0 00-.153.053.234.234 0 00-.085.138.229.229 0 00-.001.094c.005.031.017.06.035.087a.222.222 0 00.066.067.227.227 0 00.086.037l1.148.243a.234.234 0 00.095.001.226.226 0 00.087-.034.251.251 0 00.068-.066.248.248 0 00.039-.18.258.258 0 00-.035-.088.263.263 0 00-.066-.067.257.257 0 00-.087-.037l-1.148-.243a.263.263 0 00-.049-.005zm30.256.002a.39.39 0 00-.048.005l-1.148.243a.249.249 0 00-.153.104.247.247 0 00-.034.181.25.25 0 00.105.153.237.237 0 00.088.034.229.229 0 00.094-.001l1.148-.243a.232.232 0 00.087-.037.234.234 0 00.101-.154.248.248 0 00-.001-.094.248.248 0 00-.085-.138.246.246 0 00-.154-.053zm-30.548 1.58a.237.237 0 00-.217.214.231.231 0 00.052.177.25.25 0 00.163.088l2.774.292a.247.247 0 00.238-.125.22.22 0 00.028-.09.229.229 0 00-.052-.176.235.235 0 00-.163-.088l-2.774-.292a.2.2 0 00-.049 0zm30.843.02a.268.268 0 00-.049.001l-2.775.288a.235.235 0 00-.163.087.242.242 0 00.213.392l2.775-.289a.235.235 0 00.163-.087.246.246 0 00.053-.177.245.245 0 00-.07-.146.25.25 0 00-.147-.069zm-30.89 1.599a.244.244 0 00-.172.07.242.242 0 000 .341.244.244 0 00.172.07h1.173a.242.242 0 00.224-.333.242.242 0 00-.224-.148h-1.173zm29.761 0a.242.242 0 00-.224.333.24.24 0 00.131.13c.03.012.061.018.093.018h1.173a.244.244 0 00.172-.07.254.254 0 00.052-.078.248.248 0 000-.185.242.242 0 00-.131-.13.244.244 0 00-.093-.018h-1.173zm-26.894 1.312a.2.2 0 00-.049 0l-2.775.288a.237.237 0 00-.09.028.235.235 0 00-.117.143.247.247 0 00-.009.094.25.25 0 00.089.162.237.237 0 00.177.052l2.775-.288a.237.237 0 00.09-.028.235.235 0 00.117-.143.229.229 0 00.008-.094.236.236 0 00-.069-.145.244.244 0 00-.147-.069zm25.199.017a.233.233 0 00-.147.069.237.237 0 00-.062.239.246.246 0 00.117.143.237.237 0 00.09.028l2.774.292a.247.247 0 00.238-.124.225.225 0 00.028-.09.229.229 0 00-.052-.177.235.235 0 00-.073-.06.237.237 0 00-.09-.028l-2.774-.292a.2.2 0 00-.049 0zm-26.582 1.626a.263.263 0 00-.049.005l-1.148.243a.249.249 0 00-.153.104.25.25 0 00-.035.088.248.248 0 00.039.18.237.237 0 00.155.1.229.229 0 00.094-.001l1.148-.243a.225.225 0 00.087-.037.222.222 0 00.066-.067.248.248 0 00.034-.181.243.243 0 00-.238-.191zm27.966.002a.242.242 0 00-.139.44c.027.018.056.03.087.037l1.148.243a.245.245 0 00.287-.186.229.229 0 00.001-.094.226.226 0 00-.1-.154.239.239 0 00-.087-.037l-1.148-.243a.204.204 0 00-.049-.005v-.001zm-26.033.949a.225.225 0 00-.096.011l-2.653.858a.238.238 0 00-.082.046.238.238 0 00-.073.257c.01.031.025.058.046.082a.236.236 0 00.165.084.232.232 0 00.094-.011l2.653-.858a.255.255 0 00.082-.046.238.238 0 00.073-.258.24.24 0 00-.209-.165zm24.098.008a.243.243 0 00-.21.166.243.243 0 00.014.183.238.238 0 00.141.12l2.653.86c.03.01.062.014.094.012a.244.244 0 00.211-.166.237.237 0 00-.155-.304l-2.653-.86a.236.236 0 00-.095-.011zm-25.111 1.872a.222.222 0 00-.094.021l-1.072.475a.235.235 0 00-.143.226.237.237 0 00.075.168.23.23 0 00.08.05.242.242 0 00.185-.005l1.072-.475a.22.22 0 00.077-.054.255.255 0 00.051-.079.237.237 0 00-.005-.184.24.24 0 00-.226-.143zm26.122.009a.24.24 0 00-.103.46l1.071.476a.247.247 0 00.185.005.236.236 0 00.156-.218.246.246 0 00-.066-.172.233.233 0 00-.078-.054l-1.071-.476a.238.238 0 00-.094-.021zm-24.034.521a.247.247 0 00-.138.032l-2.416 1.389a.211.211 0 00-.071.062.222.222 0 00-.042.084.247.247 0 00.024.183.244.244 0 00.331.088l2.416-1.389a.243.243 0 00.113-.146.243.243 0 00-.217-.303zm21.95 0a.247.247 0 00-.111.036.243.243 0 00-.106.267.243.243 0 00.113.146l2.416 1.389a.25.25 0 00.184.024.244.244 0 00.147-.112.24.24 0 00-.089-.329l-2.416-1.389a.247.247 0 00-.138-.032zm-22.553 2.038a.248.248 0 00-.134.046l-.95.686a.249.249 0 00-.097.157.248.248 0 00.004.094.255.255 0 00.109.149.254.254 0 00.088.033.238.238 0 00.18-.044l.95-.685a.251.251 0 00.065-.069.252.252 0 00.029-.182.25.25 0 00-.129-.161.24.24 0 00-.115-.024zm23.15.008a.249.249 0 00-.114.024.234.234 0 00-.09.075.242.242 0 00.054.337l.949.686a.25.25 0 00.086.04.248.248 0 00.252-.093.234.234 0 00.039-.085.238.238 0 00-.093-.251l-.949-.687a.248.248 0 00-.134-.046zm-20.999.083a.232.232 0 00-.174.062l-2.075 1.856a.245.245 0 00-.057.075.265.265 0 00-.023.091.238.238 0 00.229.253.245.245 0 00.174-.061l2.075-1.856a.237.237 0 00.08-.167.237.237 0 00-.062-.173.233.233 0 00-.167-.08zm18.848.007a.242.242 0 00-.229.253.233.233 0 00.08.166l2.073 1.858a.25.25 0 00.175.062.241.241 0 00.091-.024.221.221 0 00.076-.056.242.242 0 00.062-.174.246.246 0 00-.08-.166l-2.074-1.858a.245.245 0 00-.174-.061zm-16.879 1.763a.253.253 0 00-.115.024.248.248 0 00-.089.075l-1.642 2.246a.236.236 0 00-.039.085.235.235 0 00.029.182.234.234 0 00.149.108.234.234 0 00.095.004.252.252 0 00.088-.032.267.267 0 00.07-.064l1.641-2.246a.22.22 0 00.039-.085.228.228 0 00.004-.094.252.252 0 00-.032-.088.248.248 0 00-.198-.115zm14.903.01a.248.248 0 00-.198.115.235.235 0 00-.029.182c.007.031.021.06.039.085l1.638 2.248a.267.267 0 00.07.064.252.252 0 00.183.029.246.246 0 00.179-.291.255.255 0 00-.04-.085L258.649 139a.246.246 0 00-.09-.076.249.249 0 00-.114-.024zm-17.022.347a.24.24 0 00-.167.08l-.785.868a.237.237 0 00.018.34.245.245 0 00.174.061.227.227 0 00.092-.023.258.258 0 00.075-.056l.786-.868a.245.245 0 00.062-.174.241.241 0 00-.08-.166.238.238 0 00-.175-.062zm19.153.001a.238.238 0 00-.231.137.246.246 0 00-.024.091.245.245 0 00.062.174l.785.868a.246.246 0 00.342.018.246.246 0 00.08-.167.248.248 0 00-.062-.173l-.785-.868a.249.249 0 00-.076-.057.265.265 0 00-.091-.023zm-14.742.963a.24.24 0 00-.226.143l-1.137 2.536a.233.233 0 00-.005.184.255.255 0 00.051.079.242.242 0 00.396-.067l1.137-2.536a.242.242 0 00-.045-.264.244.244 0 00-.171-.075zm10.317.007a.244.244 0 00-.221.154.228.228 0 00-.016.093c0 .032.008.063.021.092l1.133 2.537a.244.244 0 00.134.127.243.243 0 00.329-.231.242.242 0 00-.021-.092l-1.133-2.537a.244.244 0 00-.226-.143zm-12.315.777a.243.243 0 00-.192.12l-.587 1.011a.24.24 0 00.089.329.23.23 0 00.089.031.25.25 0 00.094-.006.236.236 0 00.147-.113l.587-1.011a.24.24 0 00-.227-.361zm14.328 0a.247.247 0 00-.209.094.237.237 0 00-.017.267l.586 1.011a.255.255 0 00.147.113.25.25 0 00.184-.025.232.232 0 00.071-.062.255.255 0 00.042-.084.243.243 0 00-.025-.183l-.586-1.011a.244.244 0 00-.193-.12zm-9.8.036a.247.247 0 00-.153.053.237.237 0 00-.085.138l-.58 2.716a.248.248 0 00.034.181.238.238 0 00.153.105.248.248 0 00.182-.034.244.244 0 00.105-.152l.579-2.716a.237.237 0 00-.048-.201.243.243 0 00-.187-.09zm5.264.002a.244.244 0 00-.188.089.247.247 0 00-.048.201l.578 2.717a.244.244 0 00.192.187.253.253 0 00.095-.001.257.257 0 00.087-.037.251.251 0 00.101-.155.248.248 0 00-.002-.094l-.578-2.716a.24.24 0 00-.237-.191zm-2.628.274a.242.242 0 00-.242.241v2.776c0 .032.006.063.018.093a.242.242 0 00.466-.093v-2.776a.24.24 0 00-.242-.241zm-4.44.897a.237.237 0 00-.129.052.236.236 0 00-.08.114l-.363 1.111a.238.238 0 00.155.303c.031.01.063.014.094.011a.237.237 0 00.211-.166l.363-1.11a.238.238 0 00-.155-.304.258.258 0 00-.096-.011zm8.878.001a.234.234 0 00-.095.011.219.219 0 00-.083.046.229.229 0 00-.058.073.245.245 0 00-.015.184l.363 1.111a.238.238 0 00.12.14.239.239 0 00.267-.031.238.238 0 00.073-.258l-.363-1.111a.239.239 0 00-.209-.165zm-5.956.618a.247.247 0 00-.147.069.245.245 0 00-.07.146l-.123 1.161a.247.247 0 00.053.177.241.241 0 00.257.08.246.246 0 00.144-.116.262.262 0 00.028-.09l.122-1.162a.242.242 0 00-.125-.237.268.268 0 00-.139-.028zm3.027.002a.24.24 0 00-.212.087.244.244 0 00-.053.177l.122 1.162a.242.242 0 00.172.206c.03.009.062.012.094.008a.24.24 0 00.162-.087.244.244 0 00.053-.177l-.122-1.162a.237.237 0 00-.216-.214z" fill="#F4F2F3"/><g opacity=".409" filter="url(#filter0_f)"><path d="M262.336 119.286l-13.233 7.652-8.367 13.109 12.24-9.023 9.36-11.738z" fill="#000"/></g><path d="M252.896 130.891l-3.793-3.954 13.456-9.008-9.663 12.962z" fill="#FF5150"/><path d="M252.896 130.892l-3.793-3.954-9.662 12.962 13.455-9.008z" fill="#F1F1F1"/><path opacity=".243" d="M239.441 139.899l13.455-9.008 9.662-12.962-23.117 21.97z" fill="#000"/><defs><radialGradient id="paint23_radial" cx="0" cy="0" r="1" gradientUnits="userSpaceOnUse" gradientTransform="matrix(18 0 0 17.9147 251.074 126.508)"><stop stop-color="#06C2E7"/><stop offset=".25" stop-color="#0DB8EC"/><stop offset=".5" stop-color="#12AEF1"/><stop offset=".75" stop-color="#1F86F9"/><stop offset="1" stop-color="#107DDD"/></radialGradient><radialGradient id="paint13_radial" cx="0" cy="0" r="1" gradientUnits="userSpaceOnUse" gradientTransform="translate(111.333 105.723) scale(27.8122)"><stop offset=".132" stop-color="#FFF44F"/><stop offset=".252" stop-color="#FFDC3E"/><stop offset=".506" stop-color="#FF9D12"/><stop offset=".526" stop-color="#FF980E"/></radialGradient><radialGradient id="paint20_radial" cx="0" cy="0" r="1" gradientUnits="userSpaceOnUse" gradientTransform="translate(115.135 119.504) scale(38.3421)"><stop offset=".094" stop-color="#FFF44F"/><stop offset=".231" stop-color="#FFE141"/><stop offset=".509" stop-color="#FFAF1E"/><stop offset=".626" stop-color="#FF980E"/></radialGradient><radialGradient id="paint19_radial" cx="0" cy="0" r="1" gradientUnits="userSpaceOnUse" gradientTransform="translate(106.106 117.603) scale(35.0301)"><stop offset=".137" stop-color="#FFF44F"/><stop offset=".48" stop-color="#FF980E"/><stop offset=".592" stop-color="#FF5634"/><stop offset=".655" stop-color="#FF3647"/><stop offset=".904" stop-color="#E31587"/></radialGradient><radialGradient id="paint18_radial" cx="0" cy="0" r="1" gradientUnits="userSpaceOnUse" gradientTransform="matrix(4.31581 40.89741 -26.84056 2.83242 111.896 107.409)"><stop stop-color="#FFF44F"/><stop offset=".06" stop-color="#FFE847"/><stop offset=".168" stop-color="#FFC830"/><stop offset=".304" stop-color="#FF980E"/><stop offset=".356" stop-color="#FF8B16"/><stop offset=".455" stop-color="#FF672A"/><stop offset=".57" stop-color="#FF3647"/><stop offset=".737" stop-color="#E31587"/></radialGradient><radialGradient id="paint5_radial" cx="0" cy="0" r="1" gradientUnits="userSpaceOnUse" gradientTransform="matrix(14.1387 0 0 13.4318 183.33 136.478)"><stop offset=".72" stop-opacity="0"/><stop offset=".95" stop-opacity=".53"/><stop offset="1"/></radialGradient><radialGradient id="paint17_radial" cx="0" cy="0" r="1" gradientUnits="userSpaceOnUse" gradientTransform="translate(116.56 104.298) scale(56.1185)"><stop offset=".113" stop-color="#FFF44F"/><stop offset=".456" stop-color="#FF980E"/><stop offset=".622" stop-color="#FF5634"/><stop offset=".716" stop-color="#FF3647"/><stop offset=".904" stop-color="#E31587"/></radialGradient><radialGradient id="paint7_radial" cx="0" cy="0" r="1" gradientUnits="userSpaceOnUse" gradientTransform="matrix(3.18511 -21.02086 16.98275 2.57325 170.489 139.524)"><stop offset=".76" stop-opacity="0"/><stop offset=".95" stop-opacity=".5"/><stop offset="1"/></radialGradient><radialGradient id="paint8_radial" cx="0" cy="0" r="1" gradientUnits="userSpaceOnUse" gradientTransform="matrix(-1.20029 30.0073 -63.9093 -2.55636 163.858 117.046)"><stop stop-color="#35C1F1"/><stop offset=".11" stop-color="#34C1ED"/><stop offset=".23" stop-color="#2FC2DF"/><stop offset=".31" stop-color="#2BC3D2"/><stop offset=".67" stop-color="#36C752"/></radialGradient><radialGradient id="paint9_radial" cx="0" cy="0" r="1" gradientUnits="userSpaceOnUse" gradientTransform="rotate(73.74 16.807 191.157) scale(14.4292 11.7339)"><stop stop-color="#66EB6E"/><stop offset="1" stop-color="#66EB6E" stop-opacity="0"/></radialGradient><radialGradient id="paint16_radial" cx="0" cy="0" r="1" gradientUnits="userSpaceOnUse" gradientTransform="translate(106.106 112.851) scale(13.1529)"><stop stop-color="#FFE226"/><stop offset=".121" stop-color="#FFDB27"/><stop offset=".295" stop-color="#FFC82A"/><stop offset=".502" stop-color="#FFA930"/><stop offset=".732" stop-color="#FF7E37"/><stop offset=".792" stop-color="#FF7139"/></radialGradient><radialGradient id="paint11_radial" cx="0" cy="0" r="1" gradientUnits="userSpaceOnUse" gradientTransform="translate(120.837 114.277) scale(38.3944)"><stop offset=".129" stop-color="#FFBD4F"/><stop offset=".186" stop-color="#FFAC31"/><stop offset=".247" stop-color="#FF9D17"/><stop offset=".283" stop-color="#FF980E"/><stop offset=".403" stop-color="#FF563B"/><stop offset=".467" stop-color="#FF3750"/><stop offset=".71" stop-color="#F5156C"/><stop offset=".782" stop-color="#EB0878"/><stop offset=".86" stop-color="#E50080"/></radialGradient><radialGradient id="paint15_radial" cx="0" cy="0" r="1" gradientUnits="userSpaceOnUse" gradientTransform="rotate(-13.592 585.66 -391.651) scale(9.69368 11.3489)"><stop offset=".206" stop-color="#9059FF" stop-opacity="0"/><stop offset=".278" stop-color="#8C4FF3" stop-opacity=".064"/><stop offset=".747" stop-color="#7716A8" stop-opacity=".45"/><stop offset=".975" stop-color="#6E008B" stop-opacity=".6"/></radialGradient><radialGradient id="paint12_radial" cx="0" cy="0" r="1" gradientUnits="userSpaceOnUse" gradientTransform="translate(106.582 129.957) scale(38.3944)"><stop offset=".3" stop-color="#960E18"/><stop offset=".351" stop-color="#B11927" stop-opacity=".74"/><stop offset=".435" stop-color="#DB293D" stop-opacity=".343"/><stop offset=".497" stop-color="#F5334B" stop-opacity=".094"/><stop offset=".53" stop-color="#FF3750" stop-opacity="0"/></radialGradient><radialGradient id="paint14_radial" cx="0" cy="0" r="1" gradientUnits="userSpaceOnUse" gradientTransform="translate(102.305 139.936) scale(18.2801)"><stop offset=".353" stop-color="#3A8EE6"/><stop offset=".472" stop-color="#5C79F0"/><stop offset=".669" stop-color="#9059FF"/><stop offset="1" stop-color="#C139E6"/></radialGradient><linearGradient id="paint10_linear" x1="122.02" y1="115.885" x2="91.446" y2="145.385" gradientUnits="userSpaceOnUse"><stop offset=".048" stop-color="#FFF44F"/><stop offset=".111" stop-color="#FFE847"/><stop offset=".225" stop-color="#FFC830"/><stop offset=".368" stop-color="#FF980E"/><stop offset=".401" stop-color="#FF8B16"/><stop offset=".462" stop-color="#FF672A"/><stop offset=".534" stop-color="#FF3647"/><stop offset=".705" stop-color="#E31587"/></linearGradient><linearGradient id="paint21_linear" x1="121.65" y1="115.729" x2="95.638" y2="141.745" gradientUnits="userSpaceOnUse"><stop offset=".167" stop-color="#FFF44F" stop-opacity=".8"/><stop offset=".266" stop-color="#FFF44F" stop-opacity=".634"/><stop offset=".489" stop-color="#FFF44F" stop-opacity=".217"/><stop offset=".6" stop-color="#FFF44F" stop-opacity="0"/></linearGradient><linearGradient id="paint6_linear" x1="182.667" y1="124.801" x2="166.155" y2="142.786" gradientUnits="userSpaceOnUse"><stop stop-color="#1B9DE2"/><stop offset=".16" stop-color="#1595DF"/><stop offset=".67" stop-color="#0680D7"/><stop offset="1" stop-color="#0078D4"/></linearGradient><linearGradient id="paint4_linear" x1="168.729" y1="136.269" x2="195.165" y2="136.269" gradientUnits="userSpaceOnUse"><stop stop-color="#0C59A4"/><stop offset="1" stop-color="#114A8B"/></linearGradient><linearGradient id="paint3_linear" x1="238.335" y1="59.422" x2="264.676" y2="59.422" gradientUnits="userSpaceOnUse"><stop stop-color="#FF452A"/><stop offset="1" stop-color="#FF2000"/></linearGradient><linearGradient id="paint2_linear" x1="235" y1="74.993" x2="267.431" y2="74.993" gradientUnits="userSpaceOnUse"><stop stop-color="#F50"/><stop offset=".41" stop-color="#F50"/><stop offset=".582" stop-color="#FF2000"/><stop offset="1" stop-color="#FF2000"/></linearGradient><linearGradient id="paint1_linear" x1="185.373" y1="58.79" x2="185.373" y2="91.362" gradientUnits="userSpaceOnUse"><stop stop-color="#9A1A1F"/><stop offset=".7" stop-color="#EF3547"/><stop offset="1" stop-color="#EF3547"/></linearGradient><linearGradient id="paint22_linear" x1="250.999" y1="146.829" x2="250.999" y2="111" gradientUnits="userSpaceOnUse"><stop stop-color="#BDBDBD"/><stop offset="1" stop-color="#fff"/></linearGradient><linearGradient id="paint0_linear" x1="175.832" y1="56.62" x2="175.832" y2="93.447" gradientUnits="userSpaceOnUse"><stop stop-color="#ED1F33"/><stop offset=".3" stop-color="#ED1F33"/><stop offset="1" stop-color="#A51C21"/></linearGradient><clipPath id="clip1"><path fill="#fff" transform="translate(89 110)" d="M0 0h36.788v38H0z"/></clipPath><clipPath id="clip0"><path fill="#fff" transform="translate(160 56)" d="M0 0h38v38H0z"/></clipPath><filter id="filter0_f" x="234.252" y="112.802" width="34.568" height="33.729" filterUnits="userSpaceOnUse" color-interpolation-filters="sRGB"><feFlood flood-opacity="0" result="BackgroundImageFix"/><feBlend in="SourceGraphic" in2="BackgroundImageFix" result="shape"/><feGaussianBlur stdDeviation="3.242" result="effect1_foregroundBlur"/></filter></defs></svg>