<svg xmlns="http://www.w3.org/2000/svg" viewBox="0 0 358 206" fill="none"><path d="M0 0h358v206H0z" fill="var(--bg-secondary)"/><path d="M133 96.75c0-11.55 0-17.324 3.588-20.912 3.588-3.588 9.363-3.588 20.912-3.588h49c11.549 0 17.324 0 20.912 3.588C231 79.426 231 85.2 231 96.75v24.5c0 11.549 0 17.324-3.588 20.912-3.588 3.588-9.363 3.588-20.912 3.588h-49c-11.549 0-17.324 0-20.912-3.588C133 138.574 133 132.799 133 121.25v-24.5z" fill="var(--indigo-400)"/><path opacity=".14" d="M133 123.086v3.063c0 6.86 0 10.291 1.335 12.911a12.258 12.258 0 005.354 5.354c2.62 1.335 6.05 1.335 12.911 1.335h58.8c6.861 0 10.291 0 12.911-1.335a12.258 12.258 0 005.354-5.354C231 136.44 231 133.009 231 126.149v-3.063c0 6.861 0 10.291-1.335 12.912a12.25 12.25 0 01-5.354 5.353c-2.62 1.335-6.05 1.335-12.911 1.335h-58.8c-6.861 0-10.291 0-12.911-1.335a12.25 12.25 0 01-5.354-5.353C133 133.377 133 129.947 133 123.086z" fill="var(--black)"/><g filter="url(#filter0_d)"><path d="M142.188 127.375a3.063 3.063 0 013.062-3.063h9.188a3.063 3.063 0 010 6.126h-9.188a3.063 3.063 0 01-3.062-3.063z" fill="var(--white)"/></g><g filter="url(#filter1_d)"><path d="M163.625 127.375a3.063 3.063 0 013.063-3.063h9.187a3.064 3.064 0 010 6.126h-9.188a3.063 3.063 0 01-3.062-3.063z" fill="var(--white)"/></g><g filter="url(#filter2_d)"><path d="M185.062 127.375a3.064 3.064 0 013.063-3.063h9.187a3.063 3.063 0 010 6.126h-9.187a3.064 3.064 0 01-3.063-3.063z" fill="var(--white)"/></g><g filter="url(#filter3_d)"><path d="M206.5 127.375a3.063 3.063 0 013.062-3.063h9.188a3.063 3.063 0 010 6.126h-9.188a3.063 3.063 0 01-3.062-3.063z" fill="var(--white)"/></g><path opacity=".15" d="M142.188 113.594v-9.188a3.062 3.062 0 013.062-3.062h10.981c.813 0 1.592.322 2.166.897l4.331 4.331c.574.574.897 1.353.897 2.165v4.857a3.062 3.062 0 01-3.063 3.062H145.25a3.062 3.062 0 01-3.062-3.062z" fill="var(--black)"/><path d="M142.188 111.297v-7.656a3.827 3.827 0 013.828-3.829h9.898c1.016 0 1.989.404 2.707 1.122l3.883 3.882a3.828 3.828 0 011.121 2.707v3.774a3.828 3.828 0 01-3.828 3.828h-13.781a3.828 3.828 0 01-3.828-3.828z" fill="var(--white)"/><g opacity=".15" fill="var(--black)"><path d="M200.375 104.406a9.188 9.188 0 100-18.375 9.188 9.188 0 000 18.375z"/><path d="M212.625 95.219a12.21 12.21 0 01-3.447 8.519 9.166 9.166 0 003.447.668 9.188 9.188 0 10-3.447-17.706 12.209 12.209 0 013.447 8.519z"/></g><path d="M200.375 102.875a9.188 9.188 0 100-18.376 9.188 9.188 0 000 18.376z" fill="var(--white)"/><path d="M212.625 93.688c0 3.31-1.313 6.314-3.447 8.518a9.188 9.188 0 100-17.037 12.209 12.209 0 013.447 8.519z" fill="var(--white)"/><defs><filter id="filter0_d" x="142.188" y="124.312" width="15.313" height="7.469" filterUnits="userSpaceOnUse" color-interpolation-filters="sRGB"><feFlood flood-opacity="0" result="BackgroundImageFix"/><feColorMatrix in="SourceAlpha" values="0 0 0 0 0 0 0 0 0 0 0 0 0 0 0 0 0 0 127 0" result="hardAlpha"/><feOffset dy="1.344"/><feColorMatrix values="0 0 0 0 0 0 0 0 0 0 0 0 0 0 0 0 0 0 0.15 0"/><feBlend in2="BackgroundImageFix" result="effect1_dropShadow"/><feBlend in="SourceGraphic" in2="effect1_dropShadow" result="shape"/></filter><filter id="filter1_d" x="163.625" y="124.312" width="15.313" height="7.469" filterUnits="userSpaceOnUse" color-interpolation-filters="sRGB"><feFlood flood-opacity="0" result="BackgroundImageFix"/><feColorMatrix in="SourceAlpha" values="0 0 0 0 0 0 0 0 0 0 0 0 0 0 0 0 0 0 127 0" result="hardAlpha"/><feOffset dy="1.344"/><feColorMatrix values="0 0 0 0 0 0 0 0 0 0 0 0 0 0 0 0 0 0 0.15 0"/><feBlend in2="BackgroundImageFix" result="effect1_dropShadow"/><feBlend in="SourceGraphic" in2="effect1_dropShadow" result="shape"/></filter><filter id="filter2_d" x="185.062" y="124.312" width="15.313" height="7.469" filterUnits="userSpaceOnUse" color-interpolation-filters="sRGB"><feFlood flood-opacity="0" result="BackgroundImageFix"/><feColorMatrix in="SourceAlpha" values="0 0 0 0 0 0 0 0 0 0 0 0 0 0 0 0 0 0 127 0" result="hardAlpha"/><feOffset dy="1.344"/><feColorMatrix values="0 0 0 0 0 0 0 0 0 0 0 0 0 0 0 0 0 0 0.15 0"/><feBlend in2="BackgroundImageFix" result="effect1_dropShadow"/><feBlend in="SourceGraphic" in2="effect1_dropShadow" result="shape"/></filter><filter id="filter3_d" x="206.5" y="124.312" width="15.313" height="7.469" filterUnits="userSpaceOnUse" color-interpolation-filters="sRGB"><feFlood flood-opacity="0" result="BackgroundImageFix"/><feColorMatrix in="SourceAlpha" values="0 0 0 0 0 0 0 0 0 0 0 0 0 0 0 0 0 0 127 0" result="hardAlpha"/><feOffset dy="1.344"/><feColorMatrix values="0 0 0 0 0 0 0 0 0 0 0 0 0 0 0 0 0 0 0.15 0"/><feBlend in2="BackgroundImageFix" result="effect1_dropShadow"/><feBlend in="SourceGraphic" in2="effect1_dropShadow" result="shape"/></filter></defs></svg>