<svg xmlns="http://www.w3.org/2000/svg" viewBox="0 0 358 206" fill="none"><rect width="358" height="206" fill="var(--bg-secondary)"/><rect x="68" y="109" width="258" height="69" rx="8" fill="var(--bg-tertiary)"/><rect x="68" y="107" width="258" height="70" rx="8" fill="var(--bg-primary)"/><path fill-rule="evenodd" clip-rule="evenodd" d="M100 158C103.165 158 106.258 157.062 108.889 155.304C111.52 153.545 113.571 151.047 114.782 148.123C115.993 145.199 116.31 141.982 115.693 138.879C115.075 135.775 113.551 132.924 111.314 130.686C109.076 128.449 106.225 126.925 103.121 126.307C100.018 125.69 96.8007 126.007 93.8771 127.218C90.9534 128.429 88.4546 130.48 86.6965 133.111C84.9384 135.742 84 138.836 84 142C84 146.243 85.6857 150.313 88.6863 153.314C91.6869 156.314 95.7565 158 100 158ZM100 150C101.582 150 103.129 149.531 104.445 148.652C105.76 147.773 106.786 146.523 107.391 145.061C107.997 143.6 108.155 141.991 107.846 140.439C107.538 138.887 106.776 137.462 105.657 136.343C104.538 135.224 103.113 134.462 101.561 134.154C100.009 133.845 98.4003 134.003 96.9385 134.609C95.4767 135.214 94.2273 136.24 93.3482 137.555C92.4692 138.871 92 140.418 92 142C92 144.122 92.8429 146.157 94.3431 147.657C95.8434 149.157 97.8783 150 100 150Z" fill="url(#paint0_radial_211_306)"/><path d="M89.51 154.08L95.14 148.35C94.3705 147.762 93.7133 147.041 93.2 146.22L87 151.28C87.7243 152.308 88.5667 153.248 89.51 154.08ZM87 132.72L93.23 137.78C93.7433 136.959 94.4005 136.238 95.17 135.65L89.54 129.92C88.5862 130.75 87.7336 131.69 87 132.72ZM104.86 135.65L110.49 129.92C111.444 130.753 112.3 131.692 113.04 132.72L106.8 137.78C106.29 136.957 105.632 136.235 104.86 135.65ZM106.8 146.22C106.288 147.042 105.63 147.763 104.86 148.35L110.49 154.08C111.444 153.247 112.3 152.308 113.04 151.28L106.8 146.22Z" fill="url(#paint1_radial_211_306)"/><text xml:space="preserve" style="white-space: pre" font-family="Nunito Sans" font-size="12" font-weight="600" letter-spacing="0em"><tspan fill="var(--tx-primary)" x="129" y="137.948">tom.smith@psm.com</tspan></text><text xml:space="preserve" style="white-space: pre" font-family="Nunito Sans" font-size="10" font-weight="600" letter-spacing="0em"><tspan fill="var(--tx-tertiary)" x="128" y="154.29">Can request to see your passwords</tspan></text><rect x="32" y="30" width="258" height="69" rx="8" fill="var(--bg-tertiary)"/><rect x="32" y="28" width="258" height="70" rx="8" fill="var(--bg-primary)"/><path fill-rule="evenodd" clip-rule="evenodd" d="M64 79C67.1645 79 70.2579 78.0616 72.8891 76.3035C75.5203 74.5454 77.5711 72.0466 78.7821 69.1229C79.9931 66.1993 80.3099 62.9823 79.6926 59.8786C79.0752 56.7749 77.5513 53.9239 75.3137 51.6863C73.0761 49.4487 70.2251 47.9248 67.1214 47.3074C64.0177 46.6901 60.8007 47.0069 57.8771 48.2179C54.9534 49.4289 52.4546 51.4797 50.6965 54.1109C48.9384 56.7421 48 59.8355 48 63C48 67.2435 49.6857 71.3131 52.6863 74.3137C55.6869 77.3143 59.7565 79 64 79ZM64 71C65.5823 71 67.129 70.5308 68.4446 69.6518C69.7602 68.7727 70.7855 67.5233 71.391 66.0615C71.9965 64.5997 72.155 62.9911 71.8463 61.4393C71.5376 59.8874 70.7757 58.462 69.6569 57.3431C68.538 56.2243 67.1126 55.4624 65.5607 55.1537C64.0089 54.845 62.4003 55.0035 60.9385 55.609C59.4767 56.2145 58.2273 57.2399 57.3482 58.5554C56.4692 59.871 56 61.4178 56 63C56 65.1217 56.8429 67.1566 58.3431 68.6569C59.8434 70.1572 61.8783 71 64 71Z" fill="url(#paint2_radial_211_306)"/><path d="M53.51 75.08L59.14 69.35C58.3705 68.7624 57.7133 68.0409 57.2 67.22L51 72.28C51.7243 73.3083 52.5667 74.248 53.51 75.08ZM51 53.72L57.23 58.78C57.7433 57.9591 58.4005 57.2375 59.17 56.65L53.54 50.92C52.5862 51.7502 51.7336 52.69 51 53.72ZM68.86 56.65L74.49 50.92C75.4444 51.7526 76.3 52.6921 77.04 53.72L70.8 58.78C70.2895 57.9569 69.6319 57.2349 68.86 56.65ZM70.8 67.22C70.2876 68.0415 69.6302 68.7632 68.86 69.35L74.49 75.08C75.4444 74.2474 76.3 73.3079 77.04 72.28L70.8 67.22Z" fill="url(#paint3_radial_211_306)"/><text xml:space="preserve" style="white-space: pre" font-family="Nunito Sans" font-size="12" font-weight="600" letter-spacing="0em"><tspan fill="var(--tx-primary)" x="93" y="58.948">john.smith@psm.com</tspan></text><text xml:space="preserve" style="white-space: pre" font-family="Nunito Sans" font-size="10" font-weight="600" letter-spacing="0em"><tspan fill="var(--tx-tertiary)" x="92" y="75.29">Pending</tspan></text><defs><radialGradient id="paint0_radial_211_306" cx="0" cy="0" r="1" gradientUnits="userSpaceOnUse" gradientTransform="translate(100 142) rotate(90) scale(16)"><stop stop-color="#FF3F15"/><stop offset="0.67" stop-color="#FF8B59"/><stop offset="1" stop-color="#FF3F15"/></radialGradient><radialGradient id="paint1_radial_211_306" cx="0" cy="0" r="1" gradientUnits="userSpaceOnUse" gradientTransform="translate(103.404 144.186) rotate(90) scale(12.08 13.04)"><stop offset="0.83" stop-color="#F4F5F9"/><stop offset="1" stop-color="#D5DAEC"/></radialGradient><radialGradient id="paint2_radial_211_306" cx="0" cy="0" r="1" gradientUnits="userSpaceOnUse" gradientTransform="translate(64 63) rotate(90) scale(16)"><stop stop-color="#FF3F15"/><stop offset="0.67" stop-color="#FF8B59"/><stop offset="1" stop-color="#FF3F15"/></radialGradient><radialGradient id="paint3_radial_211_306" cx="0" cy="0" r="1" gradientUnits="userSpaceOnUse" gradientTransform="translate(67.4036 65.1864) rotate(90) scale(12.08 13.04)"><stop offset="0.83" stop-color="#F4F5F9"/><stop offset="1" stop-color="#D5DAEC"/></radialGradient></defs></svg>
