<svg xmlns="http://www.w3.org/2000/svg" viewBox="0 0 358 206" fill="none"><path d="M0 0h358v206H0z" fill="var(--bg-secondary)"/><path d="M179 150c.873 0 2.114-.368 3.217-.92C207.405 136.423 216 129.243 216 113.686V81.975c0-5.983-2.022-8.469-7.262-10.678-4.321-1.795-19.764-7.088-23.809-8.377-1.838-.552-4.09-.92-5.929-.92-1.793 0-4.045.368-5.883.92-4.091 1.243-19.534 6.582-23.809 8.377C144.022 73.46 142 75.992 142 81.975v31.711c0 15.557 8.871 22.276 33.783 35.394 1.149.598 2.344.92 3.217.92z" fill="var(--green-700)"/><path d="M179 147c.873 0 2.114-.368 3.217-.92C207.405 133.423 216 126.243 216 110.686V78.975c0-5.983-2.022-8.469-7.262-10.678-4.321-1.795-19.764-7.088-23.809-8.377-1.838-.552-4.09-.92-5.929-.92-1.793 0-4.045.368-5.883.92-4.091 1.243-19.534 6.582-23.809 8.377C144.022 70.46 142 72.992 142 78.975v31.711c0 15.557 8.871 22.276 33.783 35.394 1.149.598 2.344.92 3.217.92z" fill="var(--green-500)"/><path d="M176.063 122.32c1.552 0 2.753-.579 3.581-1.801l18.137-27.37c.58-.87.829-1.74.829-2.527 0-2.174-1.677-3.789-3.914-3.789-1.511 0-2.484.56-3.416 2.009l-15.3 24.017-7.681-9.172c-.808-.974-1.74-1.408-3.023-1.408-2.236 0-3.893 1.615-3.893 3.809 0 .994.29 1.802 1.139 2.775l10.083 11.863c.932 1.097 2.029 1.594 3.458 1.594z" fill="var(--green-700)"/><path d="M176.063 120.32c1.552 0 2.753-.579 3.581-1.801l18.137-27.37c.58-.87.829-1.74.829-2.527 0-2.174-1.677-3.789-3.914-3.789-1.511 0-2.484.56-3.416 2.009l-15.3 24.017-7.681-9.172c-.808-.974-1.74-1.408-3.023-1.408-2.236 0-3.893 1.615-3.893 3.809 0 .994.29 1.802 1.139 2.775l10.083 11.863c.932 1.097 2.029 1.594 3.458 1.594z" fill="var(--bg-secondary)"/></svg>