<svg xmlns="http://www.w3.org/2000/svg" viewBox="0 0 358 206" fill="none"><rect width="358" height="206" fill="var(--bg-secondary)"/><rect x="107" y="53" width="144" height="100" rx="8" fill="var(--bg-primary)"/><path d="M187.506 88.0449L178.338 97.1252C176.046 99.4192 172.96 99.1982 170.978 97.2352C168.983 95.2721 168.772 92.229 171.089 89.9345L183.653 77.4925C184.979 76.1796 186.974 75.9097 188.275 77.2103C189.588 78.5232 189.315 80.4742 187.99 81.7871L175.624 94.045C175.116 94.5604 174.522 94.4131 174.162 94.0696C173.828 93.726 173.691 93.137 174.199 92.634L182.811 84.0939C183.281 83.6276 183.306 82.9282 182.848 82.4742C182.389 82.0325 181.683 82.0448 181.212 82.511L172.551 91.0879C171.176 92.4499 171.238 94.5481 172.465 95.7629C173.79 97.0762 175.798 97.0392 177.185 95.677L189.613 83.3577C192.066 80.9282 191.992 77.7379 189.836 75.5906C187.705 73.5047 184.421 73.3697 181.968 75.7869L169.318 88.3394C166.133 91.4928 166.344 96.0574 169.256 98.9412C172.167 101.812 176.777 102.033 179.961 98.8792L189.204 89.7259C189.662 89.2842 189.65 88.4498 189.179 88.0204C188.733 87.5418 187.977 87.5909 187.506 88.0449Z" fill="var(--tx-primary)"/><text xml:space="preserve" style="white-space: pre" font-family="Nunito Sans" font-size="16" font-weight="600" letter-spacing="0em"><tspan fill="var(--tx-primary)" x="140" y="126.264">Attach File</tspan></text></svg>