<svg xmlns="http://www.w3.org/2000/svg" viewBox="0 0 358 206" fill="none"><path d="M0 0h358v206H0z" fill="var(--bg-secondary)"/><path fill-rule="evenodd" clip-rule="evenodd" d="M143.935 65h7.663c1.645 0 2.989.106 4.202.363 1.21.258 2.283.671 3.353 1.292 1.067.62 2.13 1.446 3.34 2.548l.043.038c1.212 1.102 2.273 1.928 3.345 2.548a11.088 11.088 0 003.351 1.292c1.212.26 2.556.363 4.199.363h38.182c5.699 0 7.765.587 9.849 1.691a11.579 11.579 0 014.832 4.788c1.114 2.065 1.706 4.113 1.706 9.76v35.078c0 5.648-.592 7.695-1.706 9.76a11.576 11.576 0 01-4.832 4.788c-2.084 1.104-4.15 1.691-9.849 1.691h-65.226c-5.699 0-7.765-.587-9.849-1.691a11.576 11.576 0 01-4.832-4.788c-1.114-2.065-1.706-4.112-1.706-9.76V78.809c0-2.827.597-5.301 1.711-7.349a11.657 11.657 0 014.808-4.765c2.065-1.104 4.564-1.695 7.414-1.695h.002z" fill="var(--blue-500)"/><path fill-rule="evenodd" clip-rule="evenodd" d="M143.656 77.666h70.688c4.751 0 6.47.49 8.206 1.41a9.635 9.635 0 014.027 3.99c.929 1.721 1.423 3.427 1.423 8.133v31.029c0 5.647-.592 7.695-1.706 9.76a11.587 11.587 0 01-4.832 4.788c-2.084 1.104-4.15 1.691-9.849 1.691h-65.226c-5.699 0-7.765-.587-9.849-1.691a11.587 11.587 0 01-4.832-4.788c-1.114-2.065-1.706-4.113-1.706-9.76v-31.03c0-4.707.494-6.41 1.423-8.131a9.635 9.635 0 014.027-3.99c1.736-.92 3.455-1.41 8.206-1.41z" fill="var(--blue-200)"/></svg>