<svg xmlns="http://www.w3.org/2000/svg" viewBox="0 0 358 206" fill="none"><rect width="358" height="206" fill="var(--bg-secondary)"/><text xml:space="preserve" style="white-space: pre" font-family="Nunito Sans" font-size="14" font-weight="600" letter-spacing="0em"><tspan fill="var(--red-500)" x="65" y="136.106">Weak</tspan></text><rect x="59" y="66" width="48" height="48" rx="24" fill="var(--red-500)"/><path d="M83.0063 103.598C83.2546 103.598 83.6066 103.49 83.947 103.314C91.4669 99.3626 94 97.1982 94 92.354V82.4089C94 80.6626 93.3997 79.9732 91.9498 79.3363C90.5921 78.7548 85.8914 77.0629 84.5997 76.6303C84.0852 76.4618 83.5486 76.3707 83.0073 76.36C82.4971 76.36 81.9094 76.4815 81.4139 76.6303C80.1086 77.0493 75.4079 78.7685 74.0628 79.3373C72.6003 79.9596 72 80.6626 72 82.4079V92.354C72 97.1982 74.6243 99.2002 82.0666 103.314C82.406 103.504 82.758 103.598 83.0063 103.598ZM78.5937 95.7504C77.8227 95.7504 77.2224 95.1281 77.2224 94.3298C77.2224 93.9631 77.3795 93.6122 77.6404 93.3555L81.0745 89.7967L77.6404 86.2244C77.5098 86.0976 77.4056 85.9463 77.3339 85.779C77.2622 85.6118 77.2243 85.432 77.2224 85.2501C77.2224 84.4518 77.8227 83.8431 78.5937 83.8431C78.9855 83.8431 79.3113 83.9783 79.5596 84.2486L82.9937 87.7937L86.453 84.2486C86.7274 83.951 87.0281 83.8295 87.4199 83.8295C88.1899 83.8295 88.7776 84.4371 88.7776 85.2365C88.7776 85.6157 88.6467 85.9405 88.3732 86.2107L84.9391 89.7967L88.3732 93.3419C88.6205 93.6122 88.7776 93.9495 88.7776 94.3298C88.7776 95.1281 88.1773 95.7504 87.4063 95.7504C87.0019 95.7504 86.6751 95.6016 86.4278 95.3313L82.9937 91.7987L79.5858 95.3303C79.3239 95.6142 78.9855 95.7504 78.5937 95.7504Z" fill="var(--white)"/><text xml:space="preserve" style="white-space: pre" font-family="Nunito Sans" font-size="14" font-weight="600" letter-spacing="0em"><tspan fill="var(--pink-500)" x="155" y="136.106">Reused</tspan></text><rect x="155" y="66" width="48" height="48" rx="24" fill="var(--pink-500)"/><path d="M186.596 83.997H177.396C174.966 83.997 172.996 85.967 172.996 88.397V97.597C172.996 100.027 174.966 101.997 177.396 101.997H186.596C189.026 101.997 190.996 100.027 190.996 97.597V88.397C190.996 85.967 189.026 83.997 186.596 83.997Z" fill="var(--white)"/><path fill-rule="evenodd" clip-rule="evenodd" d="M171.401 78C170.234 78 169.115 78.4635 168.289 79.2887C167.464 80.1138 167 81.233 167 82.4V91.595C167 92.5318 167.299 93.4441 167.853 94.1995C168.407 94.9548 169.187 95.5137 170.081 95.795C170.022 95.4168 169.993 95.0347 169.993 94.652V88.326C169.993 86.3809 170.766 84.5155 172.141 83.1401C173.516 81.7647 175.382 80.992 177.327 80.992H183.653C184.041 80.992 184.422 81.022 184.794 81.08C184.513 80.1868 183.954 79.4066 183.199 78.8527C182.444 78.2988 181.531 78.0001 180.595 78H171.401Z" fill="var(--white)"/><text xml:space="preserve" style="white-space: pre" font-family="Nunito Sans" font-size="14" font-weight="600" letter-spacing="0em"><tspan fill="var(--orange-700)" x="263" y="136.106">Old</tspan></text><rect x="251" y="66" width="48" height="48" rx="24" fill="var(--orange-700)"/><path d="M275.006 102C281.602 102 287 96.603 287 90.006C287 83.397 281.602 78 274.994 78C268.398 78 263 83.397 263 90.006C263 96.603 268.398 102 275.006 102ZM270.097 92.038C269.929 92.0408 269.761 92.0097 269.605 91.9466C269.449 91.8834 269.307 91.7895 269.188 91.6703C269.069 91.5512 268.975 91.4092 268.911 91.253C268.848 91.0968 268.817 90.9295 268.82 90.761C268.82 90.05 269.375 89.484 270.097 89.484H273.728V84.253C273.728 83.531 274.284 82.975 274.994 82.975C275.716 82.975 276.272 83.531 276.272 84.253V90.761C276.272 91.483 275.716 92.038 274.994 92.038H270.097Z" fill="var(--white)"/></svg>
