<svg width="358" height="206" viewBox="0 0 358 206" fill="none" xmlns="http://www.w3.org/2000/svg"><rect width="358" height="206" fill="var(--bg-secondary)"/><rect x="203" y="56" width="36" height="36" rx="6" transform="rotate(30 203 56)" fill="#E63253"/><g clip-path="url(#clip0_216_864)"><path d="M206.158 86.5318C205.805 84.1853 205.865 82.3418 206.311 80.9925C207.745 75.8665 214.604 79.8262 210.881 83.631C209.894 84.7019 208.328 85.6753 206.161 86.5335L206.158 86.5318ZM211.023 94.2951C208.352 93.992 207.096 91.2917 206.448 88.2389C225.11 80.6679 201.451 67.6467 204.535 87.1344C201.828 88.0107 199.918 88.0342 198.605 87.4267C195.85 86.3388 195.286 82.7325 197.655 80.7155C199.569 79.1708 210.097 72.2577 210.612 71.8525C212.292 70.7881 213.591 69.6887 215.307 70.6795C217.023 71.6703 216.749 73.2673 216.616 75.4862C216.374 80.1244 215.951 87.1098 215.439 90.9829C215.138 93.0469 213.281 94.5603 211.023 94.2951ZM217.396 88.7648C218.892 71.07 218.645 70.6614 216.152 69.2221C213.842 67.8885 211.932 68.9286 209.723 70.4354C198.116 78.0987 196.712 79.3241 196.591 79.431C193.28 82.2101 194.133 86.8207 197.325 88.6632C198.426 89.2992 200.578 90.1313 204.855 88.7888C205.964 93.7444 208.165 94.9218 208.729 95.2473C211.918 97.0923 216.34 95.5238 217.09 91.2663C217.205 91.0695 217.376 88.7996 217.396 88.7651L217.396 88.7648Z" fill="var(--white)"/></g><rect x="124" y="74" width="36" height="36" rx="6" transform="rotate(-30 124 74)" fill="#1D9BF0"/><g clip-path="url(#clip1_216_864)"><path d="M155.885 66.9756C155.263 67.8286 154.509 68.5973 153.63 69.2557C154.26 68.1232 154.471 66.7812 154.19 65.4904C153.598 66.5456 152.824 67.5101 151.882 68.3318C150.508 67.9178 148.97 68.0509 147.629 68.8255C145.053 70.3123 144.171 73.6065 145.659 76.1832C145.869 76.5476 146.116 76.8779 146.392 77.1748C142.401 79.2183 137.894 79.3442 133.964 77.8512C133.963 78.773 134.195 79.7072 134.687 80.5602C135.621 82.1779 137.27 83.1311 139.003 83.245C138.224 83.6616 137.384 83.8672 136.554 83.881L136.588 83.9409C137.893 86.2005 140.588 87.1578 142.97 86.3544C142.639 86.6869 142.26 86.9808 141.836 87.2261C141.535 87.3995 141.226 87.5409 140.91 87.6507C142.573 89.1601 145.075 89.5155 147.137 88.3729C146.263 90.5462 144.682 92.4535 142.497 93.7147C142.121 93.9321 141.737 94.1247 141.346 94.2925C144.175 94.4252 147.072 93.7814 149.705 92.2609C158.285 87.3071 158.873 77.4922 155.315 71.3289C155.199 71.1285 155.077 70.9294 154.952 70.7343C155.483 69.5498 155.801 68.273 155.885 66.9787L155.885 66.9745L155.885 66.9756Z" fill="var(--white)"/></g><rect x="161" y="56" width="36" height="36" rx="6" fill="#1DB954"/><path d="M190.4 72.2123C190.014 72.2123 189.776 72.1156 189.442 71.9223C184.15 68.7635 174.689 68.0059 168.566 69.715C168.298 69.7895 167.964 69.9084 167.607 69.9084C166.626 69.9084 165.875 69.1432 165.875 68.1547C165.875 67.1662 166.5 66.5715 167.169 66.3787C169.785 65.6135 172.713 65.249 175.901 65.249C181.327 65.249 187.013 66.3787 191.167 68.8016C191.746 69.1361 192.125 69.5967 192.125 70.4814C192.125 71.4922 191.308 72.2129 190.401 72.2129L190.4 72.2123ZM188.097 77.8754C187.71 77.8754 187.45 77.7043 187.183 77.5631C182.537 74.8133 175.611 73.7059 169.45 75.3781C169.093 75.4748 168.9 75.5715 168.566 75.5715C167.77 75.5715 167.124 74.9246 167.124 74.1295C167.124 73.3344 167.51 72.8064 168.275 72.5908C170.342 72.0113 172.452 71.5801 175.544 71.5801C180.367 71.5801 185.027 72.7766 188.699 74.9615C189.301 75.3184 189.539 75.7789 189.539 76.4258C189.531 77.2285 188.907 77.8748 188.097 77.8748V77.8754ZM186.097 82.751C185.785 82.751 185.592 82.6543 185.302 82.4832C180.665 79.6889 175.269 79.5699 169.94 80.6621C169.65 80.7365 169.271 80.8555 169.056 80.8555C168.335 80.8555 167.882 80.283 167.882 79.6812C167.882 78.916 168.335 78.5516 168.892 78.4326C174.979 77.0873 181.2 77.2063 186.506 80.3797C186.96 80.6697 187.227 80.9299 187.227 81.6061C187.227 82.2822 186.699 82.7504 186.097 82.7504V82.751Z" fill="var(--bg-max)"/><rect x="146" y="86" width="65" height="65" rx="32.5" fill="var(--bg-tertiary)"/><rect x="146" y="84" width="65" height="65" rx="32.5" fill="var(--bg-primary)"/><path d="M193.436 101.449C193.141 101.152 192.789 101 192.39 101H165.494C165.087 101 164.743 101.152 164.447 101.449C164.152 101.746 164 102.091 164 102.5V120.504C164 121.844 164.264 123.184 164.783 124.5C165.302 125.824 165.95 126.995 166.725 128.014C167.492 129.041 168.411 130.036 169.481 130.999C170.544 131.969 171.535 132.772 172.438 133.414C173.341 134.055 174.284 134.657 175.266 135.227C176.249 135.797 176.944 136.182 177.36 136.39C177.775 136.591 178.103 136.751 178.351 136.856C178.534 136.952 178.742 137 178.958 137C179.174 137 179.381 136.952 179.565 136.856C179.813 136.743 180.148 136.591 180.556 136.39C180.971 136.19 181.667 135.797 182.649 135.227C183.632 134.657 184.575 134.047 185.478 133.414C186.381 132.772 187.364 131.969 188.434 130.999C189.497 130.028 190.416 129.033 191.191 128.014C191.958 126.987 192.605 125.816 193.125 124.5C193.644 123.176 193.908 121.844 193.908 120.504V102.5C193.884 102.091 193.732 101.746 193.436 101.449ZM189.968 120.673C189.968 127.188 178.942 132.804 178.942 132.804V104.851H189.968C189.968 104.851 189.968 114.158 189.968 120.673Z" fill="var(--max)"/><defs><clipPath id="clip0_216_864"><rect width="30" height="30" fill="white" transform="translate(204.098 60.098) rotate(30)"/></clipPath><clipPath id="clip1_216_864"><rect width="30" height="30" fill="white" transform="translate(128.098 75.098) rotate(-30)"/></clipPath></defs></svg>
