<svg xmlns="http://www.w3.org/2000/svg" viewBox="0 0 358 206" fill="none"><rect width="358" height="206" fill="var(--bg-secondary)"/><rect x="67" y="56" width="224" height="54" rx="7" stroke="var(--deep-blue-600)" stroke-width="2"/><line x1="82.5" y1="76" x2="82.5" y2="90" stroke="var(--max)"/><rect x="79" y="48" width="52" height="16" fill="var(--bg-secondary)"/><text xml:space="preserve" style="white-space: pre" font-family="Nunito Sans" font-size="10" font-weight="bold" letter-spacing="0em"><tspan fill="var(--deep-blue-600)" x="82" y="59.29">Password</tspan></text><rect x="50" y="102" width="258" height="56" rx="8" fill="var(--bg-tertiary)"/><rect x="50" y="100" width="258" height="56" rx="8" fill="var(--bg-primary)"/><text xml:space="preserve" style="white-space: pre" font-family="Nunito Sans" font-size="12" font-weight="600" letter-spacing="0em"><tspan fill="var(--tx-primary)" x="111" y="123.948">john.smith@gmail.com</tspan></text><text xml:space="preserve" style="white-space: pre" font-family="Nunito Sans" font-size="10" font-weight="600" letter-spacing="0em"><tspan fill="var(--tx-tertiary)" x="110" y="140.29">Google.com</tspan></text><path d="M95.7232 128.322C95.7232 127.37 95.6464 126.413 95.4814 125.478H82.2764V130.869H89.8382C89.5245 132.608 88.5164 134.146 87.0401 135.123V138.621H91.5514C94.2007 136.183 95.7232 132.582 95.7232 128.323V128.322Z" fill="#4285F4"/><path d="M82.2761 142C86.0517 142 89.2361 140.76 91.5561 138.621L87.0449 135.122C85.7899 135.976 84.1692 136.46 82.2817 136.46C78.6292 136.46 75.533 133.996 74.4217 130.683H69.7661V134.289C72.1424 139.017 76.983 142 82.2767 142H82.2761Z" fill="#34A853"/><path d="M74.4161 130.683C73.8298 128.944 73.8298 127.062 74.4161 125.323V121.717H69.7661C67.7804 125.673 67.7804 130.333 69.7661 134.289L74.4161 130.683V130.683Z" fill="#FBBC04"/><path d="M82.2763 119.541C84.2719 119.511 86.2013 120.261 87.6469 121.64L91.6438 117.643C89.1131 115.267 85.7538 113.96 82.2763 114.001C76.9831 114.001 72.1425 116.985 69.7656 121.717L74.4156 125.324C75.5219 122.006 78.6238 119.542 82.2756 119.542L82.2763 119.541Z" fill="#EA4335"/><g filter="url(#filter0_d_216_949)"><path d="M232.923 148.03C233.098 148.451 232.93 150.045 232 150.414C231.07 150.784 229.882 150.414 229.882 150.414L227.726 146.102L224 149.828V133L235.414 144.414H231.162C231.37 144.814 232.7 147.495 232.923 148.03Z" fill="white"/><path fill-rule="evenodd" clip-rule="evenodd" d="M225 135.414V147.414L228 144.414L230.5 149.414C230.5 149.414 231.176 149.63 231.5 149.414C231.824 149.198 232.146 148.764 232 148.414C231.312 146.764 229.5 143.414 229.5 143.414H233L225 135.414Z" fill="black"/></g><defs><filter id="filter0_d_216_949" x="215.2" y="129.2" width="27.6" height="27.6" filterUnits="userSpaceOnUse" color-interpolation-filters="sRGB"><feFlood flood-opacity="0" result="BackgroundImageFix"/><feColorMatrix in="SourceAlpha" type="matrix" values="0 0 0 0 0 0 0 0 0 0 0 0 0 0 0 0 0 0 127 0" result="hardAlpha"/><feOffset dy="1"/><feGaussianBlur stdDeviation="0.9"/><feColorMatrix type="matrix" values="0 0 0 0 0 0 0 0 0 0 0 0 0 0 0 0 0 0 0.65 0"/><feBlend mode="normal" in2="BackgroundImageFix" result="effect1_dropShadow_216_949"/><feBlend mode="normal" in="SourceGraphic" in2="effect1_dropShadow_216_949" result="shape"/></filter></defs></svg>
