<svg xmlns="http://www.w3.org/2000/svg" viewBox="0 0 358 206" fill="none"><path d="M0 0h358v206H0z" fill="var(--bg-secondary)"/><rect x="117" y="41" width="78" height="126" rx="10" fill="var(--bg-fifth)"/><rect x="117" y="39" width="78" height="126" rx="10" fill="var(--bg-fourth)"/><path fill="var(--bg-primary)" d="M124 48h64v100h-64z"/><text xml:space="preserve" style="white-space: pre" font-family="Nunito Sans" font-size="12" font-weight="bold" letter-spacing="0em"><tspan fill="var(--tx-primary)" x="133" y="106.948">255 587</tspan></text><circle cx="156" cy="156" r="6" fill="var(--bg-fifth)"/><rect x="208" y="104" width="34" height="64" rx="5" fill="var(--bg-tertiary)"/><rect x="208" y="102.001" width="34" height="64" rx="5" fill="var(--bg-primary)"/><path d="M216 93.399a3.398 3.398 0 013.398-3.398h11.204A3.398 3.398 0 01234 93.399v8.602h-18v-8.602z" fill="var(--max)"/><path fill="var(--grey-500)" d="M226 93.001h4v9h-4zm-6 0h4v9h-4z"/><path fill="var(--bg-fourth)" d="M132 87h27v4h-27z"/><path d="M225.077 124.537a6.111 6.111 0 00-6.135 6.124c0 2.559 1.521 4.806 3.898 5.722v9.349c0 .262.081.463.272.655l1.612 1.601c.171.172.524.222.746 0l3.012-3.012a.528.528 0 000-.775l-1.824-1.804 2.519-2.518c.211-.212.211-.524-.02-.756l-2.479-2.498c2.912-1.189 4.544-3.365 4.544-5.964a6.126 6.126 0 00-6.145-6.124zm0 5.812a1.681 1.681 0 01-1.683-1.692c0-.937.746-1.683 1.683-1.683a1.687 1.687 0 110 3.375z" fill="var(--bg-fifth)"/></svg>