<svg xmlns="http://www.w3.org/2000/svg" viewBox="0 0 358 206" fill="none"><path d="M0 0h358v206H0z" fill="var(--bg-secondary)"/><g><path fill-rule="evenodd" clip-rule="evenodd" d="M151.438 82.585h55.125c6.766 0 12.25 5.484 12.25 12.25v44.917c0 6.766-5.484 12.25-12.25 12.25h-55.125c-6.767 0-12.25-5.484-12.25-12.25V94.835c0-6.766 5.483-12.25 12.25-12.25z" fill="var(--amber-400)"/><mask id="a" maskUnits="userSpaceOnUse" x="139" y="54" width="80" height="96"><path d="M151.438 54h34.847c.551 0 1.08.225 1.464.619l30.486 31.34c.369.379.578.891.578 1.422V137.3c0 6.766-5.484 12.25-12.25 12.25h-55.125c-6.767 0-12.25-5.484-12.25-12.25V66.25c0-6.766 5.483-12.25 12.25-12.25z" fill="#fff"/></mask><g mask="url(#a)"><path d="M151.438 54h34.847c.551 0 1.08.223 1.464.615l30.486 31.138c.369.378.577.887.577 1.414v49.599c0 6.723-5.483 12.171-12.25 12.171h-55.124c-6.767 0-12.25-5.448-12.25-12.171V66.172c0-6.723 5.483-12.172 12.25-12.172z" fill="var(--amber-200)"/><path d="M264.75-7.25h-67.375c-6.765 0-12.25 5.485-12.25 12.25v73.5c0 6.766 5.485 12.25 12.25 12.25h67.375c6.765 0 12.25-5.484 12.25-12.25V5c0-6.765-5.485-12.25-12.25-12.25z" fill="var(--amber-400)"/><path d="M262.096-7.25h-65.129c-6.54 0-11.842 5.45-11.842 12.171v70.595c0 6.722 5.302 12.171 11.842 12.171h65.129c6.54 0 11.842-5.449 11.842-12.171V4.921c0-6.722-5.302-12.171-11.842-12.171z" fill="var(--yellow-200)"/><path opacity=".6" d="M180.531 99.938h-21.437a1.532 1.532 0 100 3.062h21.437a1.531 1.531 0 000-3.063zm18.375 9.187h-39.812a1.532 1.532 0 100 3.063h39.812a1.532 1.532 0 000-3.063zm0 9.187h-39.812a1.532 1.532 0 000 3.063h39.812a1.532 1.532 0 100-3.063zm0 9.188h-39.812a1.532 1.532 0 100 3.062h39.812a1.531 1.531 0 100-3.062z" fill="var(--grey-900)"/></g></g></svg>