<svg xmlns="http://www.w3.org/2000/svg" viewBox="0 0 358 206" fill="none"><path d="M0 0h358v206H0z" fill="var(--bg-secondary)"/><rect x="139" y="67" width="82" height="82" rx="11" fill="var(--indigo-500)"/><rect x="139" y="64" width="82" height="82" rx="11" fill="var(--indigo-400)"/><g><circle cx="179.5" cy="105.5" r="17" stroke="var(--white)" stroke-width="3"/><circle cx="179.5" cy="105.5" r="5.552" stroke="var(--white)" stroke-width="2"/><rect x="178.187" y="87" width="2.621" height="7.708" rx="1.31" fill="var(--white)"/><rect x="178.187" y="116.292" width="2.621" height="7.708" rx="1.31" fill="var(--white)"/><rect x="198" y="104.187" width="2.621" height="7.708" rx="1.31" transform="rotate(90 198 104.187)" fill="var(--white)"/><rect x="168.708" y="104.187" width="2.621" height="7.708" rx="1.31" transform="rotate(90 168.708 104.187)" fill="var(--white)"/><rect x="193.507" y="117.653" width="2.621" height="7.708" rx="1.31" transform="rotate(135 193.507 117.653)" fill="var(--white)"/><rect x="172.797" y="96.943" width="2.621" height="7.708" rx="1.31" transform="rotate(135 172.797 96.943)" fill="var(--white)"/><rect x="167.347" y="119.507" width="2.621" height="7.708" rx="1.31" transform="rotate(-135 167.347 119.507)" fill="var(--white)"/><rect x="188.057" y="98.797" width="2.621" height="7.708" rx="1.31" transform="rotate(-135 188.057 98.797)" fill="var(--white)"/></g></svg>