<svg xmlns="http://www.w3.org/2000/svg" viewBox="0 0 358 206" fill="none"><rect width="358" height="206" fill="var(--bg-secondary)"/><rect x="78" y="66" width="202" height="74" rx="8" fill="var(--bg-primary)"/><text xml:space="preserve" style="white-space: pre" font-family="Nunito Sans" font-size="14" font-weight="bold" letter-spacing="0em"><tspan fill="var(--tx-tertiary)" x="94" y="96.106">Passwo</tspan></text><circle cx="147" cy="93" r="2" fill="var(--tx-tertiary)"/><circle cx="154" cy="93" r="2" fill="var(--tx-tertiary)"/><circle cx="147" cy="116" r="2" fill="var(--tx-primary)"/><circle cx="154" cy="116" r="2" fill="var(--tx-primary)"/><circle cx="161" cy="116" r="2" fill="var(--tx-primary)"/><circle cx="168" cy="116" r="2" fill="var(--tx-primary)"/><circle cx="175" cy="116" r="2" fill="var(--tx-primary)"/><circle cx="182" cy="116" r="2" fill="var(--tx-primary)"/><circle cx="189" cy="116" r="2" fill="var(--tx-primary)"/><circle cx="196" cy="116" r="2" fill="var(--tx-primary)"/><circle cx="203" cy="116" r="2" fill="var(--tx-primary)"/><circle cx="210" cy="116" r="2" fill="var(--tx-primary)"/><circle cx="217" cy="116" r="2" fill="var(--tx-primary)"/><circle cx="224" cy="116" r="2" fill="var(--tx-primary)"/><circle cx="231" cy="116" r="2" fill="var(--tx-primary)"/><circle cx="238" cy="116" r="2" fill="var(--tx-primary)"/><text xml:space="preserve" style="white-space: pre" font-family="Nunito Sans" font-size="14" font-weight="600" letter-spacing="0.05em"><tspan fill="var(--tx-primary)" x="94" y="119.106">iLoving</tspan></text><rect x="141" y="50" width="3" height="106" rx="1.5" fill="var(--blue-500)"/><rect x="144" y="52" width="120" height="102" fill="url(#paint0_linear_216_713)"/><defs><linearGradient id="paint0_linear_216_713" x1="144" y1="103" x2="264" y2="103" gradientUnits="userSpaceOnUse"><stop stop-color="var(--blue-500)" stop-opacity="0.5"/><stop offset="1" stop-color="var(--blue-500)" stop-opacity="0"/></linearGradient></defs></svg>
