<svg xmlns="http://www.w3.org/2000/svg" viewBox="0 0 358 206" fill="none"><rect width="358" height="206" fill="var(--bg-secondary)"/><path d="M76 56C76 51.5817 79.5817 48 84 48H274C278.418 48 282 51.5817 282 56V206H76V56Z" fill="var(--bg-primary)"/><rect x="230" y="170" width="36" height="20" rx="10" fill="var(--ac-primary-500)"/><circle cx="256" cy="180" r="7" fill="var(--white)"/><text xml:space="preserve" style="white-space: pre" font-family="Nunito Sans" font-size="10" font-weight="600" letter-spacing="0em"><tspan fill="var(--tx-primary)" x="92" y="183.29">Use capital letters</tspan></text><rect x="92" y="155" width="174" height="3" rx="1.5" fill="var(--bg-tertiary)"/><rect x="92" y="155" width="67" height="3" rx="1.5" fill="var(--ac-primary-500)"/><circle cx="158.5" cy="156.5" r="4.5" fill="var(--ac-secondary-500)"/><text xml:space="preserve" style="white-space: pre" font-family="Nunito Sans" font-size="10" font-weight="600" letter-spacing="0em"><tspan fill="var(--tx-primary)" x="92" y="144.29">Length</tspan></text><text xml:space="preserve" style="white-space: pre" font-family="Nunito Sans" font-size="10" font-weight="600" letter-spacing="0em"><tspan fill="var(--tx-primary)" x="254" y="144.29">16</tspan></text><rect x="92" y="101" width="174" height="24" rx="4" fill="var(--bg-tertiary)"/><rect x="94" y="103" width="83" height="20" rx="4" fill="var(--bg-primary)"/><text xml:space="preserve" style="white-space: pre" font-family="Nunito Sans" font-size="10" font-weight="600" letter-spacing="0em"><tspan fill="var(--tx-primary)" x="111" y="116.29">Characters</tspan></text><text xml:space="preserve" style="white-space: pre" font-family="Nunito Sans" font-size="10" font-weight="600" letter-spacing="0em"><tspan fill="var(--tx-primary)" x="207" y="116.29">Words</tspan></text><text xml:space="preserve" style="white-space: pre" font-family="Roboto" font-size="18" font-weight="bold" letter-spacing="0.05em"><tspan fill="var(--tx-primary)" x="92" y="80.6523">x</tspan><tspan fill="var(--tx-primary)" x="113.294" y="80.6523">V</tspan><tspan fill="var(--tx-primary)" x="142.959" y="80.6523">r</tspan><tspan fill="var(--tx-primary)" x="161.687" y="80.6523">N</tspan><tspan fill="var(--tx-primary)" x="197.768" y="80.6523">t</tspan><tspan fill="var(--tx-primary)" x="213.841" y="80.6523">S</tspan><tspan fill="var(--tx-primary)" x="248.639" y="80.6523">a</tspan><tspan fill="var(--ac-primary-500)" x="102.058" y="80.6523">4</tspan><tspan fill="var(--ac-primary-500)" x="131.723" y="80.6523">1</tspan><tspan fill="var(--ac-primary-500)" x="150.451" y="80.6523">7</tspan><tspan fill="var(--ac-primary-500)" x="186.532" y="80.6523">3</tspan><tspan fill="var(--ac-primary-500)" x="225.833" y="80.6523">2</tspan><tspan fill="var(--blue-500)" x="125.954" y="80.6523">!</tspan><tspan fill="var(--blue-500)" x="175.296" y="80.6523">$</tspan><tspan fill="var(--blue-500)" x="204.767" y="80.6523">*</tspan><tspan fill="var(--blue-500)" x="237.069" y="80.6523">#</tspan></text></svg>
