<svg xmlns="http://www.w3.org/2000/svg" viewBox="0 0 358 206" fill="none"><path d="M0 0h358v206H0z" fill="var(--bg-secondary)"/><path d="M145.694 69.882c2.811-.568 6.499-.568 11.868-.568h42.875c5.368 0 9.056 0 11.868.569-.198-1.186-.498-2.174-.954-3.068a12.247 12.247 0 00-5.353-5.353c-2.62-1.336-6.051-1.336-12.911-1.336h-28.175c-6.861 0-10.291 0-12.912 1.336a12.247 12.247 0 00-5.353 5.353c-.456.894-.756 1.882-.953 3.067zm-9.568 22.092c0-6.861 0-10.291 1.335-12.912a12.254 12.254 0 015.354-5.353c2.62-1.335 6.051-1.335 12.911-1.335h46.55c6.861 0 10.291 0 12.912 1.335a12.247 12.247 0 015.353 5.353c1.335 2.62 1.335 6.05 1.335 12.912v34.3c0 6.86 0 10.29-1.335 12.911a12.243 12.243 0 01-5.353 5.353c-2.621 1.336-6.051 1.336-12.912 1.336h-46.55c-6.86 0-10.291 0-12.911-1.336a12.25 12.25 0 01-5.354-5.353c-1.335-2.621-1.335-6.051-1.335-12.911v-34.3z" fill="var(--indigo-200)"/><path fill-rule="evenodd" clip-rule="evenodd" d="M221.876 123.21c0 6.861 0 10.291-1.335 12.912a12.243 12.243 0 01-5.353 5.353c-2.621 1.335-6.051 1.335-12.912 1.335h-46.55c-6.86 0-10.291 0-12.911-1.335a12.25 12.25 0 01-5.354-5.353c-1.335-2.621-1.335-6.051-1.335-12.912v3.063c0 6.861 0 10.291 1.335 12.911a12.258 12.258 0 005.354 5.354c2.62 1.335 6.051 1.335 12.911 1.335h46.55c6.861 0 10.291 0 12.912-1.335a12.25 12.25 0 005.353-5.354c1.335-2.62 1.335-6.05 1.335-12.911v-3.063z" fill="var(--indigo-400)"/><path d="M179.025 108.579c4.786 0 8.662-4.257 8.662-9.799 0-5.303-3.923-9.56-8.662-9.56-4.717 0-8.686 4.28-8.639 9.584 0 5.518 3.876 9.775 8.639 9.775zm-14.453 20.453h28.858c2.732 0 3.946-.809 3.946-2.759 0-5.731-7.051-13.651-18.375-13.651s-18.375 7.92-18.375 13.651c0 1.95 1.214 2.759 3.946 2.759z" fill="var(--indigo-400)"/><path d="M179.025 107.046c4.786 0 8.662-4.257 8.662-9.799 0-5.303-3.923-9.56-8.662-9.56-4.717 0-8.686 4.28-8.639 9.584 0 5.518 3.876 9.775 8.639 9.775zm-14.453 20.453h28.858c2.732 0 3.946-.808 3.946-2.759 0-5.731-7.051-13.651-18.375-13.651s-18.375 7.92-18.375 13.651c0 1.951 1.214 2.759 3.946 2.759z" fill="var(--white)"/></svg>