<svg xmlns="http://www.w3.org/2000/svg" viewBox="0 0 358 206" fill="none"><rect width="358" height="206" fill="var(--bg-secondary)"/><rect x="78" y="51" width="202" height="107" rx="8" fill="var(--bg-tertiary)"/><rect x="78" y="49" width="202" height="107" rx="8" fill="var(--bg-primary)"/><rect x="94" y="105" width="170" height="35" rx="8" fill="var(--ac-primary-500)"/><text xml:space="preserve" style="white-space: pre" font-family="Nunito Sans" font-size="14" font-weight="bold" letter-spacing="0em"><tspan fill="var(--white)" x="163" y="127.106">Save</tspan></text><text xml:space="preserve" style="white-space: pre" font-family="Nunito Sans" font-size="14" font-weight="600" letter-spacing="0em"><tspan fill="var(--tx-primary)" x="94" y="75.106">Save password for </tspan><tspan fill="var(--tx-primary)" x="163.234" y="94.106">?</tspan></text><text xml:space="preserve" style="white-space: pre" font-family="Nunito Sans" font-size="14" font-weight="bold" letter-spacing="0em"><tspan fill="var(--tx-primary)" x="94" y="94.106">Apple.com</tspan></text><rect x="232" y="65" width="30" height="30" rx="6" fill="var(--bg-tertiary)"/><path d="M252.931 80.5972C252.921 78.8764 253.7 77.578 255.275 76.6212C254.394 75.3603 253.062 74.6661 251.304 74.5302C249.639 74.3989 247.821 75.5005 247.154 75.5005C246.451 75.5005 244.838 74.577 243.573 74.577C238.86 74.7552 237.072 79.7712 238.851 84.6284C239.451 86.3492 241.618 90.5684 243.877 90.4981C245.059 90.47 245.894 89.6591 247.431 89.6591C248.969 89.6591 249.696 90.4981 251.013 90.4981C253.291 90.4653 255.251 86.63 255.823 84.905C252.766 83.4655 252.93 80.6853 252.93 80.5963V80.5972H252.931ZM250.278 72.8989C251.557 71.3797 251.44 69.9969 251.403 69.5C248.978 69.703 246.799 71.9947 247.019 74.5072C248.243 74.6009 249.359 73.9728 250.278 72.8989Z" fill="var(--tx-tertiary)" /><g filter="url(#filter0_d_214_419)"><path d="M226.923 141.03C227.098 141.451 226.93 143.045 226 143.414C225.07 143.784 223.882 143.414 223.882 143.414L221.726 139.102L218 142.828V126L229.414 137.414H225.162C225.37 137.814 226.7 140.495 226.923 141.03Z" fill="var(--white)"/><path fill-rule="evenodd" clip-rule="evenodd" d="M219 128.414V140.414L222 137.414L224.5 142.414C224.5 142.414 225.176 142.63 225.5 142.414C225.824 142.198 226.146 141.764 226 141.414C225.312 139.764 223.5 136.414 223.5 136.414H227L219 128.414Z" fill="var(--black)"/></g><defs><filter id="filter0_d_214_419" x="209.2" y="122.2" width="27.6" height="27.6" filterUnits="userSpaceOnUse" color-interpolation-filters="sRGB"><feFlood flood-opacity="0" result="BackgroundImageFix"/><feColorMatrix in="SourceAlpha" type="matrix" values="0 0 0 0 0 0 0 0 0 0 0 0 0 0 0 0 0 0 127 0" result="hardAlpha"/><feOffset dy="1"/><feGaussianBlur stdDeviation="0.9"/><feColorMatrix type="matrix" values="0 0 0 0 0 0 0 0 0 0 0 0 0 0 0 0 0 0 0.65 0"/><feBlend mode="normal" in2="BackgroundImageFix" result="effect1_dropShadow_214_419"/><feBlend mode="normal" in="SourceGraphic" in2="effect1_dropShadow_214_419" result="shape"/></filter></defs></svg>
