<svg xmlns="http://www.w3.org/2000/svg" viewBox="0 0 358 206" fill="none"><rect width="358" height="206" fill="var(--bg-secondary)"/><rect x="47" y="66" width="253" height="74" rx="8" fill="var(--bg-primary)"/><rect x="59" y="86" width="34" height="34" rx="6" fill="var(--bg-max)"/><path d="M77.9336 90.7659L77.9243 96.1805L77.915 101.595L77.4693 100.338C77.4693 100.338 77.4687 100.336 77.4682 100.336L76.8923 112.39C77.4583 113.988 77.7613 114.841 77.7651 114.845C77.7695 114.849 78.0922 114.869 78.4821 114.888C79.6628 114.946 81.1262 115.072 82.2364 115.21C82.4934 115.242 82.7144 115.258 82.728 115.246C82.7417 115.234 82.7488 109.721 82.7439 102.995L82.7357 90.7659H77.9336ZM69.2481 90.75V102.992C69.2481 109.724 69.2547 115.24 69.2629 115.248C69.2711 115.256 69.6878 115.217 70.1893 115.16C70.6908 115.104 71.3842 115.035 71.7298 115.005C72.2597 114.96 73.843 114.858 74.0262 114.857C74.0792 114.857 74.083 114.582 74.0907 109.672L74.0989 104.488L74.4817 105.571C74.5408 105.739 74.5594 105.791 74.6173 105.954L75.1926 93.9033C75.0707 93.5588 75.1347 93.7398 74.9947 93.3444C74.5244 92.0149 74.1257 90.8873 74.1082 90.8386L74.0765 90.75H69.2476H69.2481Z" fill="#B1060F"/><path d="M69.2476 90.75V97.6215L74.088 110.462C74.088 110.168 74.089 110.009 74.0896 109.672L74.0978 104.488L74.4806 105.571C76.6123 111.603 77.7575 114.838 77.7646 114.844C77.769 114.849 78.0916 114.868 78.4815 114.887C79.6622 114.946 81.1257 115.072 82.2358 115.21C82.4929 115.241 82.7138 115.258 82.7275 115.246C82.7368 115.237 82.7428 112.534 82.7444 108.721L77.9265 94.8691L77.9243 96.1799L77.915 101.595L77.4693 100.338C77.034 99.1095 76.7436 98.2881 74.9947 93.3444C74.5244 92.0149 74.1257 90.8873 74.1082 90.8386L74.0765 90.75H69.2476Z" fill="url(#paint0_radial_216_762)"/><path d="M69.248 90.75L74.0983 104.494V104.488L74.4811 105.571C76.6128 111.603 77.758 114.838 77.7651 114.844C77.7695 114.849 78.0921 114.868 78.482 114.887C79.6627 114.946 81.1262 115.072 82.2363 115.21C82.4923 115.241 82.7121 115.258 82.7274 115.246L77.9149 101.592V101.595L77.4692 100.338C77.0339 99.1101 76.7435 98.2887 74.9946 93.3449C74.5243 92.0155 74.1256 90.8878 74.1081 90.8391L74.0764 90.7505H69.248V90.75Z" fill="#E50914"/><text xml:space="preserve" style="white-space: pre" font-family="Nunito Sans" font-size="14" font-weight="bold" letter-spacing="0em"><tspan fill="var(--tx-primary)" x="101" y="107.606">Netflix.com</tspan></text><g clip-path="url(#clip0_216_762)"><rect x="200" y="87" width="32" height="32" rx="16" fill="url(#paint1_linear_216_762)"/><path d="M219.414 105.773V108.173C219.414 108.636 212.587 108.48 212.587 107.814C212.587 107.186 212.6 104.344 212.587 101.42C211.058 99.4385 211.058 98.2 212.267 96.92C213.476 95.64 222.08 95 222.08 95C222.08 95 222.726 101.209 222.827 102.893C222.868 103.571 223.307 105.773 221.6 105.773H219.414Z" fill="url(#paint2_linear_216_762)"/><g style="mix-blend-mode:multiply"><path d="M219.411 105.568C218.021 105.417 216.678 104.978 215.467 104.28C215.467 104.28 216.32 106.307 219.411 106.857V105.568Z" fill="#FFD7B8"/></g><path d="M227.2 112.953C227.877 114.329 228.411 116.605 228.8 119.779H203.2C203.59 116.604 204.123 114.329 204.8 112.953C205.475 111.581 211.734 108.941 211.734 108.941C211.734 108.941 211.858 107.734 212.16 107.561C212.462 107.388 219.48 107.388 219.84 107.561C220.2 107.734 220.267 108.94 220.267 108.94C220.267 108.94 226.527 111.584 227.2 112.953Z" fill="url(#paint3_linear_216_762)"/><path d="M213.976 98.222C213.637 97.9306 213.225 97.7345 212.642 98.0372C211.261 98.7543 212.177 101.521 213.723 101.467C214.256 101.449 214.012 102.511 212.587 103.213C212.587 102.093 210.88 99.32 210.731 96.795C209.014 96.1555 209.44 93.5969 210.619 93.5969C210.431 91.2512 214.187 90.0397 215.641 91.3857C217.12 89.613 220.854 90.5197 221.079 92.0576C223.646 90.6872 225.334 94.6263 222.93 96.1555C221.941 96.7848 219.627 97.0243 216.287 97.0243C214.684 97.0243 215.606 100.776 216.107 101.987C216.747 103.533 220.32 103.747 221.44 103.587C222.315 103.462 222.774 103.107 222.827 102.893C223.627 105.027 222.614 106.307 221.014 106.307C218.294 106.307 215.574 105.507 215.147 103.533C214.807 101.963 214.826 99.4284 213.976 98.222Z" fill="url(#paint4_linear_216_762)"/></g><g clip-path="url(#clip1_216_762)"><rect x="228" y="87" width="32" height="32" rx="16" fill="url(#paint5_linear_216_762)"/><path d="M241.151 109.28C242.075 107.744 244.196 104.8 249.246 100.663C256.866 94.4201 249.674 88.7102 241.948 91.7513C241.121 92.0766 238.831 90.7741 236.709 92.1463C235.341 93.0315 235.873 93.7252 235.34 94.4189C234.808 95.1126 232.753 95.0718 232.303 96.873C232.036 97.9402 232.774 99.058 232.675 99.8613C232.577 100.665 231.798 101.389 231.761 102.449C231.745 102.897 231.817 103.343 231.974 103.763C232.13 104.183 232.368 104.568 232.673 104.896C232.979 105.224 233.346 105.489 233.753 105.675C234.161 105.861 234.601 105.965 235.049 105.981C235.053 106.867 235.399 107.716 236.014 108.353C236.63 108.989 237.467 109.363 238.352 109.396C238.919 109.417 239.483 109.295 239.991 109.042C240.495 109.506 240.927 109.652 241.151 109.28Z" fill="url(#paint6_linear_216_762)"/><path d="M243.04 91.3734C241.726 92.2161 240.101 94.9798 240.814 98.6898C240.97 99.4993 240.483 99.7417 240.067 98.7432C238.812 95.7308 238.667 93.0141 240.814 91.7146C241.187 91.4898 241.401 91.6719 241.667 91.6498C242.175 91.6078 242.858 91.2484 243.04 91.3734Z" fill="url(#paint7_linear_216_762)"/><path d="M241.333 107.693C241.333 106.733 241.3 101.998 241.302 101.918C238.666 102.307 238.72 97.2934 241.386 98.5201C241.973 98.8934 243.626 98.5201 243.466 95.4268C246.346 98.5201 249.69 94.9122 249.977 97.8521C250.368 101.867 249.974 106.068 247.48 106.068C247.207 106.065 246.935 106.038 246.666 105.987V107.693C246.666 108.76 248.586 109.293 248.586 109.293C248.586 109.293 245.27 112.419 243.893 112.401C242.516 112.384 239.413 109.293 239.413 109.293C239.413 109.293 241.333 108.76 241.333 107.693Z" fill="url(#paint8_linear_216_762)"/><g style="mix-blend-mode:multiply"><path d="M246.666 105.986C245.343 105.693 244.089 105.146 242.974 104.376C242.974 104.376 243.894 106.626 246.663 107.052L246.666 105.986Z" fill="#FFDBC9"/></g><path d="M253.813 112.493C254.587 114.213 254.987 119.427 254.987 119.427H233.013C233.013 119.427 233.413 114.213 234.187 112.493C234.864 110.987 239.332 109.257 240.641 108.76C241.397 109.606 242.48 110.147 244 110.147C245.519 110.147 246.603 109.606 247.358 108.76C248.668 109.257 253.135 110.987 253.813 112.493Z" fill="url(#paint9_linear_216_762)"/></g><g clip-path="url(#clip2_216_762)"><rect x="256" y="87" width="32" height="32" rx="16" fill="url(#paint10_linear_216_762)"/><path d="M273.158 92.3013C272.732 90.4347 274.755 89.0022 276.838 89.9856C281.745 92.3013 278.898 95.768 277.138 95.3947C275.378 95.0213 273.585 94.168 273.158 92.3013Z" fill="url(#paint11_linear_216_762)"/><path d="M274.347 104.067C272.055 105.168 271.721 105.109 266.667 100.973C259.04 94.7333 266.24 89.0266 273.973 92.0666C282.347 95.7466 279.541 101.571 274.347 104.067Z" fill="url(#paint12_linear_216_762)"/><path d="M274.56 108.44C273.778 110.147 272.782 111 272 111C271.218 111 270.222 110.147 269.44 108.44V106.307C269.44 106.307 269.092 106.317 268.853 106.307C266.358 106.2 265.524 102.186 265.916 98.172C266.203 95.232 268.693 99.2666 272.746 96.4399C272.586 99.5333 273.92 99.2133 274.506 98.8399C277.173 97.6133 277.226 102.627 274.591 102.238C274.591 102.291 274.581 104.359 274.56 108.44Z" fill="url(#paint13_linear_216_762)"/><path d="M269.44 106.307C270.4 106.235 271.596 105.699 273.028 104.696C272.589 106.207 271.393 107.099 269.44 107.373V106.307Z" fill="#FF9768"/><path d="M268.558 109.06C268.558 109.06 268.719 107.949 269.096 107.854C269.474 107.759 271.679 107.748 271.681 108.174C271.681 108.252 271.757 109.092 272.009 109.092C272.26 109.092 272.325 108.252 272.325 108.174C272.327 107.748 274.52 107.764 274.91 107.854C275.3 107.944 275.447 109.062 275.447 109.062C275.447 109.062 281.207 111.774 281.813 112.932C282.335 113.927 282.726 116.239 282.987 119.865H261.013C261.274 116.239 261.665 113.927 262.187 112.932C262.793 111.775 268.558 109.06 268.558 109.06Z" fill="url(#paint14_linear_216_762)"/><path d="M271.573 116.333C271.573 116.249 271.598 116.166 271.645 116.096C271.692 116.026 271.759 115.971 271.837 115.939C271.915 115.907 272 115.898 272.083 115.915C272.166 115.931 272.242 115.972 272.302 116.032C272.361 116.091 272.402 116.167 272.418 116.25C272.435 116.333 272.426 116.419 272.394 116.497C272.362 116.575 272.307 116.641 272.237 116.688C272.167 116.735 272.084 116.76 272 116.76C271.887 116.76 271.778 116.715 271.698 116.635C271.618 116.555 271.573 116.447 271.573 116.333ZM271.573 114.2C271.573 114.116 271.598 114.033 271.645 113.963C271.692 113.893 271.759 113.838 271.837 113.806C271.915 113.774 272 113.765 272.083 113.782C272.166 113.798 272.242 113.839 272.302 113.898C272.361 113.958 272.402 114.034 272.418 114.117C272.435 114.2 272.426 114.285 272.394 114.363C272.362 114.441 272.307 114.508 272.237 114.555C272.167 114.602 272.084 114.627 272 114.627C271.887 114.627 271.778 114.582 271.698 114.502C271.618 114.422 271.573 114.313 271.573 114.2ZM271.573 112.067C271.573 111.982 271.598 111.9 271.645 111.83C271.692 111.759 271.759 111.705 271.837 111.672C271.915 111.64 272 111.632 272.083 111.648C272.166 111.665 272.242 111.705 272.302 111.765C272.361 111.825 272.402 111.901 272.418 111.983C272.435 112.066 272.426 112.152 272.394 112.23C272.362 112.308 272.307 112.375 272.237 112.421C272.167 112.468 272.084 112.493 272 112.493C271.887 112.493 271.778 112.448 271.698 112.368C271.618 112.288 271.573 112.18 271.573 112.067V112.067Z" fill="#664F4D"/><path d="M273.13 95.4723C271.423 99.739 272.383 101.819 273.716 104.326C275.05 106.832 273.396 109.179 273.396 109.179C273.396 109.179 275.316 107.952 275.316 105.232C275.316 102.512 273.396 100.806 274.996 98.5656C276.596 96.3256 274.836 91.2056 273.13 95.4723Z" fill="url(#paint15_linear_216_762)"/></g><defs><radialGradient id="paint0_radial_216_762" cx="0" cy="0" r="1" gradientUnits="userSpaceOnUse" gradientTransform="translate(75.6474 102.861) rotate(-19.1) scale(2.94284 112.155)"><stop/><stop offset="1" stop-opacity="0"/></radialGradient><linearGradient id="paint1_linear_216_762" x1="216" y1="87" x2="216" y2="119" gradientUnits="userSpaceOnUse"><stop stop-color="#1D0024"/><stop offset="1" stop-color="#100014"/></linearGradient><linearGradient id="paint2_linear_216_762" x1="217.152" y1="95" x2="217.152" y2="108.439" gradientUnits="userSpaceOnUse"><stop stop-color="#FFD4B3"/><stop offset="1" stop-color="#FFDCC2"/></linearGradient><linearGradient id="paint3_linear_216_762" x1="216" y1="107.432" x2="216" y2="119.779" gradientUnits="userSpaceOnUse"><stop stop-color="#806A6A"/><stop offset="1" stop-color="#665654"/></linearGradient><linearGradient id="paint4_linear_216_762" x1="216.838" y1="106.307" x2="216.838" y2="90.4127" gradientUnits="userSpaceOnUse"><stop stop-color="#E6864E"/><stop offset="1" stop-color="#E67240"/></linearGradient><linearGradient id="paint5_linear_216_762" x1="244" y1="119" x2="244" y2="87" gradientUnits="userSpaceOnUse"><stop stop-color="#FFC9B3"/><stop offset="1" stop-color="#FFD2C2"/></linearGradient><linearGradient id="paint6_linear_216_762" x1="241.755" y1="109.524" x2="242.412" y2="90.7698" gradientUnits="userSpaceOnUse"><stop stop-color="#E6864E"/><stop offset="1" stop-color="#E67240"/></linearGradient><linearGradient id="paint7_linear_216_762" x1="241.097" y1="91.3472" x2="241.097" y2="99.399" gradientUnits="userSpaceOnUse"><stop stop-color="#1D0024"/><stop offset="1" stop-color="#100014"/></linearGradient><linearGradient id="paint8_linear_216_762" x1="244.731" y1="95.4268" x2="244.731" y2="112.402" gradientUnits="userSpaceOnUse"><stop stop-color="#FFE0CC"/><stop offset="1" stop-color="#FFEADB"/></linearGradient><linearGradient id="paint9_linear_216_762" x1="244" y1="108.76" x2="244" y2="119.427" gradientUnits="userSpaceOnUse"><stop stop-color="#130027"/><stop offset="1" stop-color="#130017"/></linearGradient><linearGradient id="paint10_linear_216_762" x1="272" y1="87" x2="272" y2="119" gradientUnits="userSpaceOnUse"><stop stop-color="#806A6A"/><stop offset="1" stop-color="#665654"/></linearGradient><linearGradient id="paint11_linear_216_762" x1="276.337" y1="89.6661" x2="276.337" y2="95.4225" gradientUnits="userSpaceOnUse"><stop stop-color="#1D0024"/><stop offset="1" stop-color="#100014"/></linearGradient><linearGradient id="paint12_linear_216_762" x1="271.354" y1="91.2247" x2="271.354" y2="104.673" gradientUnits="userSpaceOnUse"><stop stop-color="#1D0024"/><stop offset="1" stop-color="#100014"/></linearGradient><linearGradient id="paint13_linear_216_762" x1="271.18" y1="96.4399" x2="271.18" y2="111" gradientUnits="userSpaceOnUse"><stop stop-color="#F7B186"/><stop offset="1" stop-color="#FFC299"/></linearGradient><linearGradient id="paint14_linear_216_762" x1="272" y1="119.865" x2="272" y2="107.8" gradientUnits="userSpaceOnUse"><stop stop-color="#FCF2EB"/><stop offset="1" stop-color="#FFF9F5"/></linearGradient><linearGradient id="paint15_linear_216_762" x1="273.919" y1="93.8267" x2="273.919" y2="109.179" gradientUnits="userSpaceOnUse"><stop stop-color="#1D0024"/><stop offset="1" stop-color="#100014"/></linearGradient><clipPath id="clip0_216_762"><rect x="200" y="87" width="32" height="32" rx="16" fill="white"/></clipPath><clipPath id="clip1_216_762"><rect x="228" y="87" width="32" height="32" rx="16" fill="white"/></clipPath><clipPath id="clip2_216_762"><rect x="256" y="87" width="32" height="32" rx="16" fill="white"/></clipPath></defs></svg>
