<svg xmlns="http://www.w3.org/2000/svg" viewBox="0 0 358 206" fill="none"><path d="M0 0h358v206H0z" fill="var(--bg-secondary)"/><rect x="113" y="62" width="133" height="80" rx="6" fill="var(--bg-fourth)"/><path fill="var(--bg-primary)" d="M118 67h123v68H118z"/><path d="M101 134h157v3a6 6 0 01-6 6H108a7 7 0 01-7-7v-2z" fill="var(--bg-fifth)"/><path d="M101 134h157v1a6 6 0 01-6 6H108a7 7 0 01-7-7z" fill="var(--bg-fourth)"/><path d="M168 134h23a3 3 0 01-3 3h-17a3 3 0 01-3-3z" fill="var(--grey-500)"/><rect x="89" y="49" width="42" height="63" rx="5" fill="var(--bg-fifth)"/><rect x="89" y="47" width="42" height="63" rx="5" fill="var(--bg-fourth)"/><path fill="var(--bg-primary)" d="M93 51h34v50H93z"/><circle cx="110" cy="105" r="2" fill="var(--grey-500)"/><rect x="101" y="62" width="18.667" height="18.667" rx="4.667" fill="#E63253"/><path fill-rule="evenodd" clip-rule="evenodd" d="M116.002 73.737c-.063-.149-.126-.31-.189-.447-.101-.223-.201-.435-.289-.634l-.012-.012a130.16 130.16 0 00-2.778-5.615l-.038-.075a25.355 25.355 0 01-.302-.584c-.125-.224-.251-.46-.452-.683a2.04 2.04 0 00-1.596-.77 2.12 2.12 0 00-1.609.745 4.26 4.26 0 00-.453.683c-.098.196-.198.39-.301.584l-.038.075a145.901 145.901 0 00-2.778 5.615l-.012.025c-.088.199-.189.41-.29.633a9.104 9.104 0 00-.188.448c-.163.46-.214.894-.151 1.342a2.648 2.648 0 001.634 2.062 2.609 2.609 0 001.345.174c.415-.05.842-.186 1.257-.422.516-.286 1.006-.696 1.559-1.292.553.596 1.056 1.006 1.558 1.292a3.354 3.354 0 001.584.447 2.56 2.56 0 001.018-.2 2.64 2.64 0 001.634-2.061c.1-.435.05-.87-.113-1.33zm-5.669.646c-.679-.844-1.119-1.64-1.269-2.31a1.973 1.973 0 01-.038-.758c.025-.199.101-.373.201-.522a1.34 1.34 0 011.106-.547c.466 0 .88.2 1.107.547.1.15.176.323.201.522.037.224.025.484-.038.758-.151.658-.591 1.453-1.27 2.31zm5.015.585a1.85 1.85 0 01-1.143 1.453 1.928 1.928 0 01-.956.124 2.497 2.497 0 01-.955-.323c-.452-.248-.905-.633-1.433-1.205.83-1.006 1.332-1.925 1.521-2.745.088-.385.101-.733.063-1.056a2.012 2.012 0 00-.339-.845c-.39-.56-1.044-.882-1.773-.882-.729 0-1.382.335-1.772.882a1.999 1.999 0 00-.339.845c-.051.323-.038.683.062 1.056.189.82.704 1.751 1.521 2.758-.515.571-.98.957-1.433 1.205a2.487 2.487 0 01-.955.323 2.033 2.033 0 01-.955-.124 1.85 1.85 0 01-1.144-1.454 2.026 2.026 0 01.113-.969c.038-.124.101-.248.164-.397.088-.2.188-.41.289-.622l.012-.024c.868-1.852 1.798-3.74 2.766-5.578l.037-.075c.101-.186.201-.385.302-.572a2.76 2.76 0 01.352-.546c.264-.298.616-.46 1.005-.46.39 0 .742.162 1.006.46.138.162.251.348.352.546.101.187.201.386.302.572l.037.075a164.18 164.18 0 012.753 5.59v.013c.101.199.189.422.289.621.063.149.126.273.164.397.1.323.138.634.087.957z" fill="var(--white)"/><path fill="var(--bg-fourth)" d="M101 83h18.667v2.333H101zm0 4.668h15.167v2.333H101z"/><circle cx="242.5" cy="65.5" r="9.5" fill="var(--max)"/><path d="M242.333 78.692c7.187 0 13.131-5.944 13.131-13.144 0-7.187-5.944-13.13-13.144-13.13-7.187 0-13.117 5.943-13.117 13.13 0 7.2 5.943 13.144 13.13 13.144zm-4.843-17.385c-.367-.38-.262-.917.248-1.349 1.192-1.06 2.907-1.702 4.608-1.702 3.705 0 6.638 2.5 7.253 6.18h1.427c.51 0 .615.47.327.876l-1.99 2.88c-.34.498-.877.472-1.217 0l-2.003-2.88c-.288-.392-.17-.877.34-.877h1.532c-.563-2.605-2.854-4.53-5.669-4.53-1.361 0-2.461.446-3.6 1.389-.419.34-.89.392-1.256.013zm-4.176 4.438l1.976-2.88c.354-.498.89-.472 1.231 0l2.003 2.88c.288.392.17.877-.341.877h-1.479c.55 2.605 2.854 4.53 5.669 4.53 1.348 0 2.461-.446 3.6-1.389.419-.34.89-.392 1.256-.013.367.38.262.917-.248 1.349-1.192 1.06-2.907 1.715-4.608 1.715-3.705 0-6.638-2.514-7.253-6.192h-1.479c-.511 0-.615-.472-.327-.877z" fill="var(--bg-max)"/><rect x="163" y="78" width="30.105" height="30.105" rx="4.632" fill="#E63253"/><path fill-rule="evenodd" clip-rule="evenodd" d="M187.194 96.93c-.101-.24-.202-.5-.304-.721-.162-.36-.324-.702-.466-1.022l-.02-.02a208.386 208.386 0 00-4.48-9.056l-.061-.12a41.223 41.223 0 01-.486-.942c-.203-.361-.406-.742-.73-1.103a3.288 3.288 0 00-2.574-1.242c-1.014 0-1.926.44-2.595 1.202-.304.36-.527.741-.73 1.102-.158.316-.32.63-.486.942l-.061.12a234.218 234.218 0 00-4.48 9.056l-.02.04c-.142.321-.305.662-.467 1.022-.101.22-.202.461-.304.721-.263.742-.344 1.443-.243 2.165a4.27 4.27 0 002.635 3.326c.528.22 1.075.32 1.642.32a5.39 5.39 0 002.555-.721c.831-.461 1.622-1.122 2.514-2.084.891.962 1.702 1.623 2.513 2.084a5.39 5.39 0 002.555.721c.567 0 1.135-.1 1.641-.32a4.26 4.26 0 002.636-3.326c.161-.701.08-1.403-.184-2.144zm-9.141 1.042c-1.095-1.363-1.805-2.645-2.048-3.727-.101-.46-.122-.861-.061-1.222a1.94 1.94 0 01.325-.842c.385-.54 1.034-.881 1.784-.881s1.419.32 1.784.881c.162.24.284.522.324.842.061.36.041.781-.06 1.222-.245 1.062-.954 2.344-2.048 3.727zm8.087.941a2.985 2.985 0 01-1.844 2.345c-.487.2-1.014.26-1.541.2a4.021 4.021 0 01-1.54-.521c-.73-.401-1.46-1.022-2.311-1.944 1.337-1.622 2.148-3.105 2.452-4.427a4.961 4.961 0 00.102-1.704 3.239 3.239 0 00-.547-1.362c-.629-.902-1.684-1.423-2.859-1.423s-2.23.541-2.858 1.423a3.22 3.22 0 00-.547 1.362 4.119 4.119 0 00.101 1.704c.304 1.322 1.135 2.824 2.453 4.447-.832.922-1.582 1.543-2.312 1.944a4.005 4.005 0 01-1.54.521 3.286 3.286 0 01-1.541-.2 2.985 2.985 0 01-1.844-2.345 3.274 3.274 0 01.182-1.563c.061-.2.163-.4.264-.64.142-.321.304-.662.466-1.003l.02-.04a217.907 217.907 0 014.46-8.996l.061-.12c.162-.3.324-.621.486-.922.163-.32.345-.621.568-.882.426-.48.993-.74 1.622-.74.628 0 1.196.26 1.622.74.223.262.405.562.567.882.163.301.325.622.487.922l.061.12a263.86 263.86 0 014.439 9.017v.02c.162.32.304.68.466 1.002.102.24.203.44.264.64.162.521.222 1.022.141 1.543z" fill="var(--white)"/><path fill="var(--bg-fourth)" d="M163 111.578h30.105v3.474H163zm0 6.949h24.316v3.474H163z"/></svg>