<svg xmlns="http://www.w3.org/2000/svg" viewBox="0 0 358 206" fill="none"><rect width="358" height="206" fill="var(--bg-secondary)"/><rect x="249" y="149" width="34" height="34" rx="6" fill="var(--bg-primary)"/><path d="M278.008 166.282C278.008 165.449 277.94 164.611 277.796 163.793H266.242V168.51H272.858C272.584 170.032 271.702 171.377 270.41 172.233V175.294H274.357C276.676 173.16 278.008 170.009 278.008 166.283V166.282Z" fill="#4285F4"/><path d="M266.242 178.25C269.545 178.25 272.332 177.165 274.362 175.293L270.414 172.232C269.316 172.979 267.898 173.403 266.247 173.403C263.051 173.403 260.341 171.247 259.369 168.348H255.295V171.503C257.375 175.64 261.61 178.25 266.242 178.25H266.242Z" fill="#34A853"/><path d="M259.364 168.348C258.851 166.826 258.851 165.179 259.364 163.658V160.502H255.295C253.558 163.963 253.558 168.041 255.295 171.503L259.364 168.347V168.348Z" fill="#FBBC04"/><path d="M266.242 158.599C267.988 158.572 269.676 159.229 270.941 160.435L274.438 156.938C272.224 154.859 269.285 153.715 266.242 153.751C261.61 153.751 257.375 156.362 255.295 160.503L259.364 163.658C260.332 160.755 263.046 158.599 266.241 158.599L266.242 158.599Z" fill="#EA4335"/><rect x="191" y="149" width="34" height="34" rx="6" fill="#5865F2"/><path d="M216.504 158.271C214.895 157.534 213.195 157.011 211.449 156.716C211.21 157.143 210.994 157.582 210.802 158.032C208.942 157.752 207.052 157.752 205.193 158.032C205 157.582 204.784 157.143 204.545 156.716C202.798 157.014 201.098 157.538 199.486 158.275C196.288 163.007 195.42 167.623 195.854 172.172C197.727 173.556 199.824 174.609 202.053 175.284C202.555 174.609 203 173.893 203.381 173.143C202.657 172.873 201.957 172.538 201.291 172.145C201.466 172.018 201.637 171.887 201.803 171.76C205.728 173.605 210.272 173.605 214.197 171.76C214.365 171.896 214.536 172.028 214.71 172.145C214.042 172.54 213.341 172.874 212.615 173.145C212.996 173.895 213.44 174.611 213.943 175.284C216.174 174.612 218.273 173.559 220.146 172.174C220.655 166.898 219.277 162.326 216.504 158.271ZM203.93 169.374C202.722 169.374 201.724 168.278 201.724 166.929C201.82 163.663 206.057 163.68 206.135 166.929C206.113 168.278 205.162 169.374 203.93 169.374V169.374ZM212.07 169.374C210.86 169.374 209.866 168.278 209.866 166.929C209.962 163.666 214.199 163.675 214.273 166.929C214.251 168.278 213.302 169.374 212.07 169.374V169.374Z" fill="var(--white)"/><rect x="133" y="149" width="34" height="34" rx="6" fill="#0E700E"/><path d="M148.778 178.2C146.837 178 144.973 177.338 143.339 176.27C141.964 175.375 141.653 175.005 141.653 174.27C141.653 172.793 143.28 170.203 146.061 167.252C147.64 165.576 149.842 163.611 150.079 163.664C150.542 163.768 154.241 167.375 155.626 169.071C157.815 171.755 158.823 173.954 158.311 174.934C157.923 175.679 155.509 177.135 153.737 177.694C152.277 178.155 150.358 178.351 148.778 178.199L148.778 178.2ZM139.796 172.733C138.652 170.981 138.075 169.257 137.796 166.761C137.704 165.936 137.738 165.466 138.006 163.775C138.34 161.667 139.541 159.227 140.984 157.727C141.598 157.088 141.654 157.073 142.402 157.324C143.313 157.631 144.286 158.301 145.791 159.664L146.67 160.459L146.191 161.048C143.961 163.785 141.609 167.663 140.721 170.063C140.238 171.368 140.044 172.677 140.252 173.221C140.391 173.589 140.263 173.451 139.793 172.733H139.796ZM159.856 173.032C159.97 172.48 159.827 171.47 159.492 170.448C158.768 168.239 156.345 164.127 154.121 161.332L153.421 160.452L154.177 159.757C155.166 158.849 155.854 158.305 156.596 157.843C157.18 157.48 158.016 157.157 158.374 157.157C158.596 157.157 159.376 157.965 160.005 158.847C161.006 160.274 161.706 161.891 162.061 163.598C162.295 164.712 162.316 167.098 162.098 168.21C161.894 169.206 161.586 170.177 161.179 171.108C160.905 171.71 160.224 172.879 159.924 173.258C159.771 173.454 159.771 173.453 159.858 173.032H159.856ZM148.982 156.739C147.956 156.218 146.373 155.659 145.497 155.509C145.112 155.452 144.723 155.43 144.334 155.444C143.613 155.48 143.645 155.444 144.803 154.896C145.71 154.46 146.67 154.141 147.657 153.946C148.882 153.688 151.188 153.686 152.395 153.939C153.696 154.214 155.232 154.784 156.097 155.317L156.354 155.474L155.765 155.444C154.592 155.386 152.886 155.857 151.052 156.75C150.499 157.019 150.016 157.234 149.981 157.228C149.643 157.074 149.309 156.912 148.98 156.739H148.982V156.739Z" fill="var(--white)"/><rect x="75" y="149" width="34" height="34" rx="6" fill="var(--bg-max)"/><path d="M101.341 175.387C95.2707 179.788 85.7715 178.9 80.5335 173.884C80.3038 173.669 80.5089 173.377 80.7938 173.544C86.5256 176.971 94.6483 177.595 100.973 174.795C101.402 174.613 101.762 175.076 101.34 175.387M102.394 174.181C102.072 173.768 100.253 173.986 99.4384 174.082C99.1896 174.112 99.1518 173.896 99.3755 173.74C100.83 172.722 103.199 173.015 103.476 173.358C103.753 173.7 103.404 176.083 102.044 177.22C101.835 177.394 101.636 177.302 101.738 177.07C102.044 176.308 102.729 174.597 102.404 174.182" fill="#FF9900"/><path d="M99.7015 169.365C99.0961 168.526 98.4529 167.846 98.4529 166.295V161.132C98.4529 158.947 98.6061 156.939 96.9944 155.434C95.7235 154.214 93.6175 153.785 92.0058 153.785C88.8564 153.785 85.3345 154.96 84.5908 158.861C84.512 159.269 84.8144 159.487 85.084 159.547L88.304 159.907C88.607 159.894 88.8258 159.606 88.8815 159.302C89.1561 157.961 90.2788 157.312 91.5415 157.312C92.2257 157.312 93.0001 157.564 93.4004 158.174C93.9407 158.984 93.7794 160.07 93.8045 160.993C89.4503 161.376 84.1784 161.819 84.0444 167.55C84.0444 170.993 86.2106 172.712 89.0013 172.712C91.354 172.712 92.6446 172.158 94.4613 170.304C95.0623 171.176 95.2636 171.599 96.3622 172.513C96.6094 172.643 96.9261 172.629 97.1448 172.433V172.435L97.1492 172.444C97.9865 171.701 98.833 170.968 99.6878 170.245C99.9579 170.021 99.9115 169.67 99.7015 169.365ZM93.7498 164.359C93.7493 165.657 93.7832 166.739 93.1275 167.891C92.5915 168.825 91.7494 169.401 90.8268 169.401C89.5504 169.401 88.8022 168.429 88.8022 166.993C88.8022 164.16 91.3408 163.645 93.7498 163.645V164.359Z" fill="var(--max)"/><rect x="220" y="107" width="34" height="34" rx="6" fill="#9146FF"/><path d="M230.875 111.75L226.5 116.125V131.875H231.75V136.25L236.125 131.875H239.625L247.5 124V111.75H230.875ZM245.75 123.125L242.25 126.625H238.75L235.688 129.688V126.625H231.75V113.5H245.75V123.125ZM241.375 116.562H243.125V121.812H241.375V116.562ZM236.562 116.562H238.312V121.812H236.562V116.562Z" fill="var(--white)"/><rect x="162" y="107" width="34" height="34" rx="6" fill="#1D9BF0"/><path d="M191.25 116.402C190.349 116.801 189.381 117.071 188.363 117.193C189.401 116.571 190.198 115.585 190.573 114.411C189.602 114.987 188.526 115.405 187.382 115.63C186.465 114.654 185.159 114.044 183.713 114.044C180.938 114.044 178.688 116.295 178.688 119.072C178.688 119.465 178.733 119.847 178.817 120.216C174.638 120.005 170.936 118.004 168.457 114.963C168.025 115.707 167.777 116.571 167.777 117.49C167.777 119.233 168.665 120.773 170.013 121.674C169.188 121.647 168.413 121.421 167.736 121.045V121.11C167.736 123.545 169.468 125.577 171.768 126.039C171.345 126.153 170.902 126.214 170.444 126.214C170.12 126.214 169.804 126.184 169.498 126.125C170.138 128.121 171.994 129.576 174.194 129.615C172.473 130.963 170.305 131.767 167.951 131.767C167.545 131.767 167.145 131.744 166.751 131.697C168.976 133.125 171.617 133.956 174.455 133.956C183.702 133.956 188.758 126.297 188.758 119.655C188.758 119.439 188.752 119.221 188.742 119.005C189.724 118.295 190.577 117.411 191.249 116.404L191.251 116.401L191.25 116.402Z" fill="var(--white)"/><rect x="104" y="107" width="34" height="34" rx="6" fill="#E63E00"/><path d="M133.25 123.774C133.25 122.285 132.033 121.074 130.538 121.074C129.807 121.074 129.146 121.366 128.659 121.836C126.811 120.62 124.311 119.846 121.543 119.747L123.056 114.981L127.156 115.942L127.15 116.001C127.15 117.219 128.146 118.21 129.369 118.21C130.593 118.21 131.586 117.219 131.586 116.001C131.586 114.784 130.591 113.793 129.369 113.793C128.43 113.793 127.63 114.378 127.306 115.2L122.887 114.164C122.694 114.117 122.498 114.228 122.438 114.418L120.75 119.734C117.852 119.768 115.228 120.549 113.297 121.801C112.813 121.354 112.171 121.074 111.461 121.074C109.965 121.074 108.75 122.286 108.75 123.775C108.75 124.766 109.294 125.624 110.094 126.093C110.041 126.381 110.006 126.672 110.006 126.968C110.006 130.961 114.914 134.209 120.948 134.209C126.982 134.209 131.892 130.961 131.892 126.968C131.892 126.689 131.862 126.413 131.815 126.142C132.664 125.685 133.25 124.802 133.25 123.775L133.25 123.774ZM115.667 125.628C115.667 124.742 116.392 124.02 117.282 124.02C118.173 124.02 118.896 124.742 118.896 125.628C118.896 126.514 118.173 127.235 117.282 127.235C116.392 127.235 115.667 126.514 115.667 125.628ZM124.917 130.394C124.104 131.203 122.827 131.598 121.014 131.598L121.001 131.594L120.987 131.598C119.174 131.598 117.897 131.203 117.084 130.394C116.936 130.247 116.936 130.007 117.084 129.86C117.232 129.712 117.473 129.712 117.621 129.86C118.284 130.521 119.386 130.841 120.987 130.841L121.001 130.845L121.014 130.841C122.616 130.841 123.717 130.52 124.38 129.859C124.529 129.711 124.769 129.712 124.917 129.859C125.066 130.007 125.066 130.246 124.917 130.394ZM124.724 127.235C123.834 127.235 123.11 126.514 123.11 125.628C123.11 124.742 123.834 124.02 124.724 124.02C125.615 124.02 126.338 124.742 126.338 125.628C126.338 126.514 125.615 127.235 124.724 127.235Z" fill="var(--white)"/><rect x="249" y="65" width="34" height="34" rx="6" fill="#E63253"/><path d="M266.001 88.405C264.62 86.673 263.809 85.1549 263.54 83.8561C262.307 79.0436 269.698 79.0436 268.465 83.8561C268.167 85.1823 267.355 86.6998 266.004 88.405H266.001ZM273.556 92.4098C271.256 93.4111 268.98 91.8148 267.032 89.6497C278.583 74.8212 253.383 75.3369 264.97 89.6497C263.191 91.6212 261.659 92.5312 260.313 92.6531C257.579 93.0595 255.44 90.4077 256.414 87.6716C257.24 85.5301 262.524 75.029 262.751 74.4613C263.612 72.8169 264.149 71.3223 265.998 71.3223C267.848 71.3223 268.371 72.7409 269.3 74.5964C271.268 78.4584 274.186 84.3023 275.58 87.6716C276.3 89.4802 275.505 91.5703 273.556 92.4098ZM276.126 84.9657C269.078 69.9649 268.688 69.75 266.001 69.75C263.511 69.75 262.453 71.482 261.371 73.7307C255.565 85.3414 255.003 86.987 254.954 87.1302C253.575 90.9217 256.416 94.25 259.856 94.25C261.043 94.25 263.17 93.9186 266.001 90.8375C269.21 94.3255 271.538 94.25 272.146 94.25C275.585 94.2527 278.427 90.9217 277.047 87.1302C277.048 86.9175 276.127 85.0029 276.127 84.9657H276.126Z" fill="var(--white)"/><rect x="191" y="65" width="34" height="34" rx="6" fill="#0057E5"/><path d="M201.875 71.57L195.75 75.4993L201.875 79.3706L208 75.4993L201.875 71.57ZM214.125 71.57L208 75.4993L214.125 79.3706L220.25 75.4993L214.125 71.57ZM195.75 83.2999L201.875 87.2292L208 83.2999L201.875 79.3706L195.75 83.2999ZM214.125 79.3706L208 83.2999L214.125 87.2292L220.25 83.2999L214.125 79.3706ZM201.875 88.5002L208 92.4295L214.125 88.5002L208 84.6288L201.875 88.5002Z" fill="var(--white)"/><rect x="133" y="65" width="34" height="34" rx="6" fill="url(#paint0_linear_208_273)"/><path d="M159.271 88.8217C157.584 90.6663 154.58 93.5648 154.422 93.6703C154.036 94.0335 153.529 94.2402 152.999 94.25C151.865 94.2456 150.948 93.3225 150.952 92.1872C150.954 91.6338 151.179 91.1044 151.576 90.7188C151.629 90.6663 154.633 87.8204 156.214 86.0813C156.945 85.2566 157.323 84.1782 157.268 83.0774C157.193 81.8819 156.619 80.7728 155.687 80.0209C154.422 78.967 151.998 78.7034 150.47 80.0734C149.574 80.9166 148.467 82.076 148.414 82.1285C147.643 82.9581 146.346 83.0052 145.516 82.2341C144.686 81.463 144.639 80.1652 145.41 79.3356C145.463 79.2831 146.675 77.9657 147.729 77.0169C150.773 74.3777 155.28 74.3334 158.375 76.9113C160.133 78.3917 161.216 80.5213 161.379 82.8138C161.548 85.0231 160.784 87.2024 159.27 88.8217M146.886 88.9798C144.959 88.9945 143.091 88.3219 141.616 87.0827C139.857 85.6023 138.774 83.4727 138.612 81.1802C138.476 78.9752 139.236 76.8091 140.72 75.1723C142.406 73.3277 145.41 70.4292 145.568 70.3237C146.383 69.5378 147.681 69.5613 148.467 70.3762C149.253 71.191 149.229 72.4888 148.414 73.2746C148.362 73.3271 145.358 76.1731 143.777 77.9121C143.046 78.7368 142.668 79.8152 142.723 80.9161C142.798 82.1116 143.372 83.2206 144.304 83.9726C145.569 85.0264 147.993 85.29 149.521 83.9201C150.417 83.0768 151.524 81.9174 151.576 81.8649C152.348 81.0353 153.645 80.9883 154.475 81.7594C155.304 82.5305 155.352 83.8282 154.58 84.6578C154.528 84.7103 153.315 86.0277 152.262 86.9766C150.774 88.2776 148.862 88.9902 146.886 88.9792" fill="var(--white)"/><rect x="75" y="65" width="34" height="34" rx="6" fill="var(--bg-max)"/><path d="M93.4433 69.7659L93.434 75.1805L93.4247 80.5951L92.979 79.3384C92.979 79.3384 92.9785 79.3362 92.978 79.3356L92.4021 91.3899C92.9681 92.9884 93.2711 93.8415 93.2749 93.8448C93.2793 93.8491 93.6019 93.8688 93.9919 93.888C95.1726 93.9465 96.636 94.0723 97.7462 94.2101C98.0032 94.2418 98.2241 94.2582 98.2378 94.2462C98.2515 94.2341 98.2586 88.7211 98.2537 81.9951L98.2455 69.7659H93.4433ZM84.7579 69.75V81.9918C84.7579 88.7244 84.7644 94.2402 84.7726 94.2478C84.7808 94.256 85.1976 94.2167 85.699 94.1603C86.2005 94.104 86.894 94.0345 87.2396 94.005C87.7695 93.9602 89.3527 93.8584 89.5359 93.8574C89.589 93.8574 89.5928 93.5817 89.6005 88.6724L89.6087 83.4881L89.9915 84.5714C90.0505 84.7388 90.0691 84.7913 90.1271 84.9542L90.7024 72.9033C90.5805 72.5588 90.6444 72.7398 90.5044 72.3444C90.0341 71.0149 89.6355 69.8873 89.618 69.8386L89.5862 69.75H84.7573H84.7579Z" fill="#B1060F"/><path d="M84.7573 69.75V76.6215L89.5977 89.4621C89.5977 89.1679 89.5988 89.0088 89.5994 88.6724L89.6076 83.488L89.9904 84.5714C92.1221 90.6034 93.2672 93.8377 93.2744 93.8442C93.2787 93.8486 93.6014 93.8683 93.9913 93.8874C95.172 93.9459 96.6355 94.0717 97.7456 94.2095C98.0026 94.2413 98.2236 94.2577 98.2372 94.2456C98.2465 94.2374 98.2526 91.5342 98.2542 87.7209L93.4362 73.8691L93.434 75.1799L93.4247 80.5945L92.979 79.3378C92.5437 78.1095 92.2533 77.2881 90.5044 72.3444C90.0341 71.0149 89.6355 69.8873 89.618 69.8386L89.5862 69.75H84.7573Z" fill="url(#paint1_radial_208_273)"/><path d="M84.7578 69.75L89.608 83.4941V83.488L89.9909 84.5714C92.1226 90.6034 93.2677 93.8377 93.2748 93.8442C93.2792 93.8486 93.6019 93.8683 93.9918 93.8874C95.1725 93.9459 96.6359 94.0717 97.7461 94.2095C98.002 94.2413 98.2219 94.2577 98.2372 94.2462L93.4247 80.5923V80.5951L92.979 79.3384C92.5437 78.1101 92.2533 77.2887 90.5044 72.3449C90.0341 71.0155 89.6354 69.8878 89.6179 69.8391L89.5862 69.7505H84.7578V69.75Z" fill="#E50914"/><rect x="220" y="23" width="34" height="34" rx="6" fill="#2068CB"/><path d="M239.127 52.25V41.5323H242.701L243.38 37.0977H239.126V34.2206C239.126 33.0082 239.72 31.8242 241.626 31.8242H243.561V28.0497C243.561 28.0497 241.805 27.75 240.127 27.75C236.624 27.75 234.333 29.8724 234.333 33.718V37.0977H230.438V41.5323H234.333V52.25" fill="var(--white)"/><rect x="162" y="23" width="34" height="34" rx="6" fill="var(--bg-max)"/><path fill-rule="evenodd" clip-rule="evenodd" d="M179.01 27.954C172.231 27.954 166.75 33.4752 166.75 40.3052C166.75 45.7652 170.261 50.3862 175.133 52.0219C175.742 52.145 175.965 51.7562 175.965 51.4291C175.965 51.1426 175.945 50.1615 175.945 49.1388C172.535 49.8749 171.824 47.6666 171.824 47.6666C171.276 46.2349 170.464 45.8674 170.464 45.8674C169.348 45.1105 170.546 45.1105 170.546 45.1105C171.784 45.1926 172.434 46.3782 172.434 46.3782C173.53 48.2595 175.295 47.7279 176.006 47.4009C176.107 46.6035 176.432 46.0512 176.777 45.7444C174.057 45.4578 171.196 44.3947 171.196 39.6505C171.196 38.3009 171.682 37.1967 172.454 36.3381C172.332 36.0313 171.906 34.7631 172.576 33.0662C172.576 33.0662 173.611 32.7391 175.945 34.3338C176.944 34.0637 177.975 33.9259 179.01 33.9248C180.046 33.9248 181.101 34.068 182.075 34.3338C184.41 32.7386 185.444 33.0662 185.444 33.0662C186.114 34.7631 185.688 36.0313 185.566 36.3381C186.358 37.1967 186.825 38.3009 186.825 39.6505C186.825 44.3947 183.963 45.4376 181.222 45.7444C181.669 46.1327 182.055 46.8687 182.055 48.0347C182.055 49.6912 182.035 51.0201 182.035 51.4291C182.035 51.7562 182.258 52.145 182.867 52.0225C187.739 50.3862 191.25 45.7652 191.25 40.3052C191.27 33.4747 185.769 27.954 179.01 27.954Z" fill="var(--max)"/><rect x="104" y="23" width="34" height="34" rx="6" fill="#E30000"/><path d="M117.374 51.6867C118.536 52.0389 119.733 52.25 121 52.25C127.759 52.25 133.25 46.7588 133.25 40C133.25 33.2412 127.759 27.75 121 27.75C114.241 27.75 108.75 33.2412 108.75 40C108.75 45.2095 112.024 49.6802 116.635 51.4406C116.529 50.4902 116.424 48.9064 116.635 47.8148L118.043 41.7604C118.043 41.7604 117.691 41.0566 117.691 39.93C117.691 38.2402 118.747 36.973 119.944 36.973C121 36.973 121.493 37.7474 121.493 38.7329C121.493 39.7889 120.789 41.3027 120.437 42.7459C120.226 43.943 121.071 44.999 122.302 44.999C124.485 44.999 126.174 42.6759 126.174 39.3667C126.174 36.4448 124.062 34.4388 121.034 34.4388C117.585 34.4388 115.543 37.0086 115.543 39.7189C115.543 40.7749 115.895 41.8309 116.459 42.5348C116.564 42.6053 116.564 42.7109 116.529 42.887L116.177 44.2246C116.177 44.4357 116.037 44.5063 115.825 44.3652C114.276 43.6613 113.361 41.4432 113.361 39.6484C113.361 35.7765 116.107 32.2562 121.387 32.2562C125.611 32.2562 128.884 35.2838 128.884 39.2967C128.884 43.5208 126.28 46.8999 122.548 46.8999C121.351 46.8999 120.19 46.2661 119.802 45.4917L118.957 48.4137C118.676 49.4697 117.901 50.8779 117.373 51.7228V51.6878L117.374 51.6867Z" fill="var(--white)"/><defs><linearGradient id="paint0_linear_208_273" x1="150" y1="99" x2="150" y2="65" gradientUnits="userSpaceOnUse"><stop stop-color="#2255FF"/><stop offset="1" stop-color="#00AAFF"/></linearGradient><radialGradient id="paint1_radial_208_273" cx="0" cy="0" r="1" gradientUnits="userSpaceOnUse" gradientTransform="translate(91.1571 81.8606) rotate(-19.1) scale(2.94284 112.155)"><stop/><stop offset="1" stop-opacity="0"/></radialGradient></defs></svg>
